<?xml version="1.0" encoding="UTF-8" standalone="no"?>
<svg
   xmlns:dc="http://purl.org/dc/elements/1.1/"
   xmlns:cc="http://creativecommons.org/ns#"
   xmlns:rdf="http://www.w3.org/1999/02/22-rdf-syntax-ns#"
   xmlns:svg="http://www.w3.org/2000/svg"
   xmlns="http://www.w3.org/2000/svg"
   viewBox="0 0 500 238.42741"
   height="238.42741"
   width="500"
   xml:space="preserve"
   id="svg2"
   version="1.1"><metadata
     id="metadata8"><rdf:RDF><cc:Work
         rdf:about=""><dc:format>image/svg+xml</dc:format><dc:type
           rdf:resource="http://purl.org/dc/dcmitype/StillImage" /></cc:Work></rdf:RDF></metadata><defs
     id="defs6" /><g
     transform="matrix(1.3333333,0,0,1.3333333,0,6.6273519e-6)"
     id="g10"><g
       id="g12"><g
         transform="rotate(90)"
         id="g14"><path
           id="path16"
           style="fill:none;stroke:#000000;stroke-width:1.841434;stroke-linecap:round;stroke-linejoin:round;stroke-miterlimit:4;stroke-dasharray:none;stroke-opacity:1"
           d="m 116.52,-42.352 c 0,5.93 -4.809,10.743 -10.743,10.743 -5.933,0 -10.742,-4.813 -10.742,-10.743 0,-5.933 4.809,-10.742 10.742,-10.742 5.934,0 10.743,4.809 10.743,10.742 z" /></g><g
         transform="rotate(90)"
         id="g18"><path
           id="path20"
           style="fill:none;stroke:#000000;stroke-width:1.841434;stroke-linecap:round;stroke-linejoin:round;stroke-miterlimit:4;stroke-dasharray:none;stroke-opacity:1"
           d="m 116.52,-73.043 c 0,5.934 -4.809,10.742 -10.743,10.742 -5.933,0 -10.742,-4.808 -10.742,-10.742 0,-5.934 4.809,-10.742 10.742,-10.742 5.934,0 10.743,4.808 10.743,10.742 z" /></g><g
         transform="rotate(90)"
         id="g22"><path
           id="path24"
           style="fill:none;stroke:#000000;stroke-width:1.841434;stroke-linecap:round;stroke-linejoin:round;stroke-miterlimit:4;stroke-dasharray:none;stroke-opacity:1"
           d="m 147.211,-103.734 c 0,5.933 -4.813,10.742 -10.742,10.742 -5.934,0 -10.742,-4.809 -10.742,-10.742 0,-5.934 4.808,-10.743 10.742,-10.743 5.929,0 10.742,4.809 10.742,10.743 z" /></g><g
         transform="rotate(90)"
         id="g26"><path
           id="path28"
           style="fill:none;stroke:#000000;stroke-width:1.841434;stroke-linecap:round;stroke-linejoin:round;stroke-miterlimit:4;stroke-dasharray:none;stroke-opacity:1"
           d="m 85.828,-73.043 c 0,5.934 -4.808,10.742 -10.742,10.742 -5.934,0 -10.742,-4.808 -10.742,-10.742 0,-5.934 4.808,-10.742 10.742,-10.742 5.934,0 10.742,4.808 10.742,10.742 z" /></g><g
         transform="rotate(90)"
         id="g30"><path
           id="path32"
           style="fill:none;stroke:#000000;stroke-width:1.841434;stroke-linecap:round;stroke-linejoin:round;stroke-miterlimit:4;stroke-dasharray:none;stroke-opacity:1"
           d="m 147.211,-11.664 c 0,5.934 -4.813,10.742 -10.742,10.742 -5.934,0 -10.742,-4.808 -10.742,-10.742 0,-5.93 4.808,-10.738 10.742,-10.738 5.929,0 10.742,4.808 10.742,10.738 z" /></g><g
         transform="rotate(90)"
         id="g34"><path
           id="path36"
           style="fill:none;stroke:#000000;stroke-width:1.841434;stroke-linecap:round;stroke-linejoin:round;stroke-miterlimit:4;stroke-dasharray:none;stroke-opacity:1"
           d="m 85.828,-103.734 c 0,5.933 -4.808,10.742 -10.742,10.742 -5.934,0 -10.742,-4.809 -10.742,-10.742 0,-5.934 4.808,-10.743 10.742,-10.743 5.934,0 10.742,4.809 10.742,10.743 z" /></g><g
         transform="rotate(90)"
         id="g38"><path
           id="path40"
           style="fill:none;stroke:#000000;stroke-width:1.841434;stroke-linecap:round;stroke-linejoin:round;stroke-miterlimit:4;stroke-dasharray:none;stroke-opacity:1"
           d="m 147.211,-73.043 c 0,5.934 -4.813,10.742 -10.742,10.742 -5.934,0 -10.742,-4.808 -10.742,-10.742 0,-5.934 4.808,-10.742 10.742,-10.742 5.929,0 10.742,4.808 10.742,10.742 z" /></g><g
         transform="rotate(90)"
         id="g42"><path
           id="path44"
           style="fill:none;stroke:#000000;stroke-width:1.841434;stroke-linecap:round;stroke-linejoin:round;stroke-miterlimit:4;stroke-dasharray:none;stroke-opacity:1"
           d="m 147.211,-42.352 c 0,5.93 -4.813,10.743 -10.742,10.743 -5.934,0 -10.742,-4.813 -10.742,-10.743 0,-5.933 4.808,-10.742 10.742,-10.742 5.929,0 10.742,4.809 10.742,10.742 z" /></g><g
         transform="rotate(90)"
         id="g46"><path
           id="path48"
           style="fill:none;stroke:#000000;stroke-width:1.841434;stroke-linecap:round;stroke-linejoin:round;stroke-miterlimit:4;stroke-dasharray:none;stroke-opacity:1"
           d="m 116.52,-134.426 c 0,5.934 -4.809,10.742 -10.743,10.742 -5.933,0 -10.742,-4.808 -10.742,-10.742 0,-5.929 4.809,-10.742 10.742,-10.742 5.934,0 10.743,4.813 10.743,10.742 z" /></g><g
         transform="rotate(90)"
         id="g50"><path
           id="path52"
           style="fill:none;stroke:#000000;stroke-width:1.841434;stroke-linecap:round;stroke-linejoin:round;stroke-miterlimit:4;stroke-dasharray:none;stroke-opacity:1"
           d="m 177.898,-11.664 c 0,5.934 -4.808,10.742 -10.742,10.742 -5.929,0 -10.738,-4.808 -10.738,-10.742 0,-5.93 4.809,-10.738 10.738,-10.738 5.934,0 10.742,4.808 10.742,10.738 z" /></g><g
         transform="rotate(90)"
         id="g54"><path
           id="path56"
           style="fill:none;stroke:#000000;stroke-width:1.841434;stroke-linecap:round;stroke-linejoin:round;stroke-miterlimit:4;stroke-dasharray:none;stroke-opacity:1"
           d="m 177.898,-73.043 c 0,5.934 -4.808,10.742 -10.742,10.742 -5.929,0 -10.738,-4.808 -10.738,-10.742 0,-5.934 4.809,-10.742 10.738,-10.742 5.934,0 10.742,4.808 10.742,10.742 z" /></g><g
         transform="rotate(90)"
         id="g58"><path
           id="path60"
           style="fill:none;stroke:#000000;stroke-width:1.841434;stroke-linecap:round;stroke-linejoin:round;stroke-miterlimit:4;stroke-dasharray:none;stroke-opacity:1"
           d="m 85.828,-42.352 c 0,5.93 -4.808,10.743 -10.742,10.743 -5.934,0 -10.742,-4.813 -10.742,-10.743 0,-5.933 4.808,-10.742 10.742,-10.742 5.934,0 10.742,4.809 10.742,10.742 z" /></g><g
         transform="rotate(90)"
         id="g62"><path
           id="path64"
           style="fill:none;stroke:#000000;stroke-width:1.841434;stroke-linecap:round;stroke-linejoin:round;stroke-miterlimit:4;stroke-dasharray:none;stroke-opacity:1"
           d="m 85.828,-11.664 c 0,5.934 -4.808,10.742 -10.742,10.742 -5.934,0 -10.742,-4.808 -10.742,-10.742 0,-5.93 4.808,-10.738 10.742,-10.738 5.934,0 10.742,4.808 10.742,10.738 z" /></g><g
         transform="rotate(90)"
         id="g66"><path
           id="path68"
           style="fill:none;stroke:#000000;stroke-width:1.841434;stroke-linecap:round;stroke-linejoin:round;stroke-miterlimit:4;stroke-dasharray:none;stroke-opacity:1"
           d="m 177.898,-42.352 c 0,5.93 -4.808,10.743 -10.742,10.743 -5.929,0 -10.738,-4.813 -10.738,-10.743 0,-5.933 4.809,-10.742 10.738,-10.742 5.934,0 10.742,4.809 10.742,10.742 z" /></g><g
         transform="rotate(90)"
         id="g70"><path
           id="path72"
           style="fill:none;stroke:#000000;stroke-width:1.841434;stroke-linecap:round;stroke-linejoin:round;stroke-miterlimit:4;stroke-dasharray:none;stroke-opacity:1"
           d="m 147.211,-134.426 c 0,5.934 -4.813,10.742 -10.742,10.742 -5.934,0 -10.742,-4.808 -10.742,-10.742 0,-5.929 4.808,-10.742 10.742,-10.742 5.929,0 10.742,4.813 10.742,10.742 z" /></g><g
         transform="rotate(90)"
         id="g74"><path
           id="path76"
           style="fill:none;stroke:#000000;stroke-width:1.841434;stroke-linecap:round;stroke-linejoin:round;stroke-miterlimit:4;stroke-dasharray:none;stroke-opacity:1"
           d="m 55.137,-42.352 c 0,5.93 -4.809,10.743 -10.742,10.743 -5.93,0 -10.743,-4.813 -10.743,-10.743 0,-5.933 4.813,-10.742 10.743,-10.742 5.933,0 10.742,4.809 10.742,10.742 z" /></g><g
         transform="rotate(90)"
         id="g78"><path
           id="path80"
           style="fill:none;stroke:#000000;stroke-width:1.841434;stroke-linecap:round;stroke-linejoin:round;stroke-miterlimit:4;stroke-dasharray:none;stroke-opacity:1"
           d="m 177.898,-103.734 c 0,5.933 -4.808,10.742 -10.742,10.742 -5.929,0 -10.738,-4.809 -10.738,-10.742 0,-5.934 4.809,-10.743 10.738,-10.743 5.934,0 10.742,4.809 10.742,10.743 z" /></g><g
         transform="rotate(90)"
         id="g82"><path
           id="path84"
           style="fill:none;stroke:#000000;stroke-width:1.841434;stroke-linecap:round;stroke-linejoin:round;stroke-miterlimit:4;stroke-dasharray:none;stroke-opacity:1"
           d="m 55.137,-73.043 c 0,5.934 -4.809,10.742 -10.742,10.742 -5.93,0 -10.743,-4.808 -10.743,-10.742 0,-5.934 4.813,-10.742 10.743,-10.742 5.933,0 10.742,4.808 10.742,10.742 z" /></g><g
         transform="rotate(90)"
         id="g86"><path
           id="path88"
           style="fill:none;stroke:#000000;stroke-width:1.841434;stroke-linecap:round;stroke-linejoin:round;stroke-miterlimit:4;stroke-dasharray:none;stroke-opacity:1"
           d="m 177.898,-134.426 c 0,5.934 -4.808,10.742 -10.742,10.742 -5.929,0 -10.738,-4.808 -10.738,-10.742 0,-5.929 4.809,-10.742 10.738,-10.742 5.934,0 10.742,4.813 10.742,10.742 z" /></g><g
         transform="rotate(90)"
         id="g90"><path
           id="path92"
           style="fill:none;stroke:#000000;stroke-width:1.841434;stroke-linecap:round;stroke-linejoin:round;stroke-miterlimit:4;stroke-dasharray:none;stroke-opacity:1"
           d="m 116.52,-103.734 c 0,5.933 -4.809,10.742 -10.743,10.742 -5.933,0 -10.742,-4.809 -10.742,-10.742 0,-5.934 4.809,-10.743 10.742,-10.743 5.934,0 10.743,4.809 10.743,10.743 z" /></g><g
         transform="rotate(90)"
         id="g94"><path
           id="path96"
           style="fill:none;stroke:#000000;stroke-width:1.841434;stroke-linecap:round;stroke-linejoin:round;stroke-miterlimit:4;stroke-dasharray:none;stroke-opacity:1"
           d="m 116.52,-11.664 c 0,5.934 -4.809,10.742 -10.743,10.742 -5.933,0 -10.742,-4.808 -10.742,-10.742 0,-5.93 4.809,-10.738 10.742,-10.738 5.934,0 10.743,4.808 10.743,10.738 z" /></g><g
         transform="rotate(90)"
         id="g98"><path
           id="path100"
           style="fill:none;stroke:#000000;stroke-width:1.841434;stroke-linecap:round;stroke-linejoin:round;stroke-miterlimit:4;stroke-dasharray:none;stroke-opacity:1"
           d="m 55.137,-11.664 c 0,5.934 -4.809,10.742 -10.742,10.742 -5.93,0 -10.743,-4.808 -10.743,-10.742 0,-5.93 4.813,-10.738 10.743,-10.738 5.933,0 10.742,4.808 10.742,10.738 z" /></g><path
         id="path102"
         style="fill:#000000;fill-opacity:1;fill-rule:nonzero;stroke:none"
         d="m 8.941,40.902 v -0.933 c 1.301,0 2.336,-0.36 3.102,-1.082 h 0.309 v 10.058 h 2.031 v 0.957 H 9.031 v -0.957 h 2.028 v -8.414 c -0.645,0.246 -1.348,0.371 -2.118,0.371 z" /><path
         id="path104"
         style="fill:#000000;fill-opacity:1;fill-rule:nonzero;stroke:none"
         d="m 39.039,41.555 c 0.527,-1.778 1.578,-2.668 3.149,-2.668 1.039,0 1.882,0.343 2.519,1.031 0.641,0.684 0.961,1.5 0.961,2.453 0,0.379 -0.055,0.727 -0.16,1.039 -0.098,0.309 -0.301,0.645 -0.602,0.996 -0.297,0.352 -0.558,0.633 -0.785,0.852 -0.226,0.215 -0.617,0.566 -1.164,1.055 -0.293,0.257 -1.164,1.078 -2.617,2.457 l 5.328,-0.016 v 1.148 h -6.504 v -1.054 l 2.117,-2.094 c 0.086,-0.082 0.27,-0.254 0.555,-0.516 0.293,-0.261 0.484,-0.441 0.582,-0.531 0.094,-0.094 0.258,-0.258 0.488,-0.492 0.235,-0.231 0.395,-0.406 0.477,-0.531 0.09,-0.125 0.215,-0.293 0.375,-0.504 0.156,-0.215 0.262,-0.399 0.316,-0.559 0.051,-0.164 0.106,-0.351 0.156,-0.562 0.059,-0.211 0.09,-0.426 0.09,-0.641 0,-0.691 -0.218,-1.277 -0.66,-1.754 -0.437,-0.476 -0.996,-0.715 -1.68,-0.715 -0.371,0 -0.699,0.086 -0.992,0.254 -0.285,0.164 -0.5,0.371 -0.648,0.613 -0.145,0.243 -0.262,0.485 -0.36,0.731 -0.089,0.242 -0.148,0.449 -0.179,0.625 l -0.067,0.277 z" /><path
         id="path106"
         style="fill:#000000;fill-opacity:1;fill-rule:nonzero;stroke:none"
         d="m 69.664,48.41 0.176,-0.992 c 0.348,0.465 0.758,0.836 1.23,1.109 0.469,0.27 0.84,0.43 1.11,0.477 0.273,0.047 0.535,0.07 0.785,0.07 0.598,0 1.078,-0.215 1.441,-0.648 0.371,-0.434 0.555,-0.988 0.555,-1.66 0,-0.629 -0.176,-1.168 -0.531,-1.618 -0.352,-0.449 -0.871,-0.671 -1.551,-0.671 h -1.184 v -1 c 0.258,-0.024 0.485,-0.039 0.676,-0.055 0.188,-0.024 0.309,-0.035 0.363,-0.043 0.055,-0.004 0.094,-0.008 0.125,-0.008 0.52,-0.094 0.946,-0.351 1.278,-0.773 0.336,-0.426 0.5,-0.891 0.5,-1.399 0,-0.453 -0.153,-0.82 -0.461,-1.094 -0.301,-0.281 -0.696,-0.421 -1.18,-0.421 -0.953,0 -1.703,0.41 -2.262,1.222 -0.062,0.094 -0.148,0.25 -0.261,0.469 l -0.578,-0.887 c 0.746,-1.179 1.789,-1.773 3.132,-1.777 0.825,0 1.52,0.246 2.086,0.738 0.571,0.485 0.856,1.071 0.856,1.75 0,1.168 -0.602,2.094 -1.809,2.778 0.746,0.257 1.309,0.644 1.692,1.156 0.378,0.508 0.57,1.062 0.57,1.664 0,0.879 -0.328,1.644 -0.984,2.301 -0.657,0.656 -1.473,0.984 -2.458,0.984 -1.332,0 -2.437,-0.559 -3.316,-1.672 z" /><path
         id="path108"
         style="fill:#000000;fill-opacity:1;fill-rule:nonzero;stroke:none"
         d="m 8.055,77.629 c 0,0 0,-0.262 0,-0.785 0,-0.133 0.058,-0.301 0.183,-0.5 L 12.16,69.77 h 1.5 v 6.867 h 1.61 v 0.992 h -1.61 v 2.773 h -1.301 v -2.773 z m 1.269,-0.992 h 3.133 v -6.274 c -0.066,0.403 -0.219,0.883 -0.461,1.438 -0.242,0.547 -0.473,1.015 -0.691,1.402 -0.215,0.379 -0.692,1.207 -1.426,2.473 -0.238,0.414 -0.422,0.734 -0.555,0.961 z" /><path
         id="path110"
         style="fill:#000000;fill-opacity:1;fill-rule:nonzero;stroke:none"
         d="m 39.016,78.988 0.547,-0.906 c 0.605,0.996 1.453,1.492 2.535,1.492 0.539,0 1.031,-0.207 1.468,-0.625 0.438,-0.418 0.657,-1.101 0.657,-2.054 0,-0.887 -0.16,-1.547 -0.481,-1.977 -0.32,-0.426 -0.711,-0.641 -1.176,-0.641 -0.734,0 -1.328,0.434 -1.785,1.301 H 39.68 V 69.59 h 5.472 v 1.039 h -4.289 v 3.324 c 0.547,-0.445 1.129,-0.664 1.735,-0.66 0.836,0 1.562,0.352 2.175,1.047 0.614,0.699 0.918,1.555 0.918,2.57 0,1.043 -0.355,1.914 -1.07,2.617 -0.707,0.703 -1.543,1.055 -2.508,1.055 -0.617,0 -1.199,-0.144 -1.75,-0.43 -0.55,-0.289 -1,-0.679 -1.347,-1.164 z" /><path
         id="path112"
         style="fill:#000000;fill-opacity:1;fill-rule:nonzero;stroke:none"
         d="m 69.672,75.164 c 0,-1.621 0.41,-2.988 1.23,-4.098 0.825,-1.109 1.86,-1.664 3.11,-1.664 0.558,0 1.136,0.106 1.734,0.325 v 0.976 c -0.617,-0.23 -1.195,-0.344 -1.734,-0.344 -0.629,0 -1.176,0.219 -1.641,0.661 -0.465,0.437 -0.797,0.937 -0.992,1.496 -0.195,0.554 -0.309,1.132 -0.34,1.73 0.332,-0.422 0.742,-0.75 1.227,-0.984 0.492,-0.231 0.996,-0.348 1.515,-0.348 0.715,0 1.305,0.328 1.77,0.992 0.574,0.801 0.863,1.758 0.863,2.871 0,1.2 -0.371,2.196 -1.117,2.989 -0.629,0.672 -1.367,1.007 -2.215,1.007 -0.301,0 -0.598,-0.046 -0.887,-0.136 -0.285,-0.082 -0.586,-0.25 -0.902,-0.5 -0.313,-0.246 -0.586,-0.567 -0.82,-0.957 -0.231,-0.399 -0.426,-0.942 -0.578,-1.629 -0.149,-0.692 -0.223,-1.488 -0.223,-2.387 z m 1.383,1.676 c 0.203,1.949 0.875,2.926 2.011,2.926 0.551,0 0.985,-0.188 1.301,-0.555 0.324,-0.375 0.535,-0.793 0.637,-1.246 0.051,-0.238 0.078,-0.602 0.078,-1.086 0,-0.941 -0.152,-1.652 -0.453,-2.133 -0.359,-0.562 -0.852,-0.84 -1.481,-0.84 -0.609,0 -1.109,0.246 -1.5,0.735 -0.386,0.492 -0.578,1.082 -0.578,1.761 0,0.094 0.008,0.243 0.032,0.438 z" /><path
         id="path114"
         style="fill:#000000;fill-opacity:1;fill-rule:nonzero;stroke:none"
         d="m 100.355,70.82 v -1.148 l 6.758,0.016 v 1.054 c -1.148,1.321 -2.035,2.832 -2.656,4.535 -0.625,1.696 -0.937,3.438 -0.937,5.227 h -1.379 c 0,-1.715 0.312,-3.402 0.941,-5.063 0.633,-1.664 1.606,-3.203 2.93,-4.621 z" /><path
         id="path116"
         style="fill:#000000;fill-opacity:1;fill-rule:nonzero;stroke:none"
         d="m 8.285,108.18 c 0,-0.61 0.18,-1.16 0.547,-1.657 0.371,-0.496 0.941,-0.886 1.711,-1.168 -0.516,-0.164 -0.984,-0.449 -1.402,-0.863 -0.418,-0.418 -0.625,-0.937 -0.625,-1.554 0,-0.754 0.3,-1.418 0.902,-1.989 0.609,-0.574 1.355,-0.859 2.246,-0.859 0.899,0 1.645,0.289 2.242,0.867 0.602,0.574 0.907,1.234 0.907,1.981 0,0.507 -0.172,0.976 -0.508,1.402 -0.336,0.43 -0.844,0.769 -1.524,1.015 0.598,0.188 1.121,0.524 1.578,1.016 0.454,0.492 0.68,1.102 0.68,1.824 0,0.868 -0.324,1.629 -0.973,2.285 -0.652,0.657 -1.453,0.981 -2.402,0.981 -0.941,0 -1.742,-0.324 -2.394,-0.973 -0.657,-0.652 -0.985,-1.422 -0.985,-2.308 z m 1.317,-0.016 c 0,0.691 0.187,1.246 0.562,1.664 0.379,0.418 0.879,0.629 1.5,0.629 0.598,0 1.086,-0.207 1.473,-0.621 0.39,-0.41 0.586,-0.973 0.586,-1.688 0,-0.683 -0.192,-1.234 -0.578,-1.656 -0.379,-0.426 -0.875,-0.637 -1.481,-0.637 -0.531,0 -1.008,0.196 -1.43,0.579 -0.421,0.386 -0.632,0.964 -0.632,1.73 z m 0.046,-5.211 c 0,0.578 0.184,1.039 0.555,1.387 0.375,0.344 0.856,0.515 1.445,0.515 0.606,0 1.094,-0.175 1.465,-0.531 0.375,-0.351 0.563,-0.808 0.563,-1.371 0,-0.574 -0.188,-1.035 -0.563,-1.379 -0.371,-0.347 -0.851,-0.523 -1.449,-0.523 -0.609,0 -1.098,0.176 -1.469,0.531 -0.363,0.356 -0.547,0.813 -0.547,1.371 z" /><path
         id="path118"
         style="fill:#000000;fill-opacity:1;fill-rule:nonzero;stroke:none"
         d="m 38.984,104.039 c 0,-1.187 0.387,-2.18 1.164,-2.973 0.641,-0.648 1.387,-0.976 2.247,-0.976 0.378,0 0.742,0.082 1.093,0.238 0.352,0.16 0.703,0.426 1.055,0.801 0.352,0.371 0.637,0.949 0.855,1.738 0.215,0.781 0.325,1.727 0.325,2.832 0,1.664 -0.399,3.039 -1.196,4.129 -0.793,1.09 -1.757,1.633 -2.894,1.633 -0.778,0 -1.5,-0.246 -2.168,-0.742 l 0.508,-0.883 c 0.011,0.012 0.058,0.047 0.136,0.105 0.086,0.051 0.141,0.09 0.164,0.11 0.028,0.023 0.079,0.054 0.153,0.094 0.078,0.043 0.144,0.078 0.191,0.105 0.047,0.02 0.113,0.047 0.199,0.078 0.09,0.031 0.172,0.055 0.25,0.07 0.086,0.016 0.18,0.032 0.282,0.043 0.097,0.008 0.203,0.016 0.316,0.016 0.734,-0.012 1.344,-0.363 1.832,-1.055 0.492,-0.695 0.777,-1.617 0.863,-2.777 -0.757,0.898 -1.671,1.348 -2.742,1.348 -0.703,0 -1.289,-0.328 -1.754,-0.993 -0.586,-0.824 -0.879,-1.804 -0.879,-2.941 z m 1.332,0 c 0,0.5 0.032,0.906 0.094,1.231 0.07,0.316 0.207,0.632 0.422,0.953 0.348,0.496 0.82,0.742 1.418,0.742 0.609,0 1.105,-0.246 1.492,-0.735 0.391,-0.5 0.586,-1.093 0.586,-1.785 0,-0.187 -0.008,-0.324 -0.015,-0.422 h 0.031 c -0.024,-0.32 -0.067,-0.628 -0.137,-0.925 -0.062,-0.301 -0.164,-0.618 -0.301,-0.946 -0.133,-0.332 -0.328,-0.597 -0.586,-0.793 -0.257,-0.195 -0.562,-0.293 -0.91,-0.293 -0.562,0 -1.008,0.192 -1.344,0.571 -0.324,0.383 -0.546,0.793 -0.656,1.238 -0.062,0.258 -0.094,0.648 -0.094,1.164 z" /><path
         id="path120"
         style="fill:#000000;fill-opacity:1;fill-rule:nonzero;stroke:none"
         d="m 65.992,102.105 v -0.937 c 1.301,0 2.336,-0.359 3.102,-1.078 h 0.308 v 10.055 h 2.032 v 0.96 h -5.352 v -0.96 h 2.027 v -8.411 c -0.644,0.246 -1.347,0.371 -2.117,0.371 z" /><path
         id="path122"
         style="fill:#000000;fill-opacity:1;fill-rule:nonzero;stroke:none"
         d="m 73.32,106.07 v -0.277 c 0,-0.422 0.008,-0.789 0.024,-1.102 0.015,-0.312 0.066,-0.726 0.152,-1.238 0.09,-0.519 0.207,-0.957 0.356,-1.316 0.152,-0.364 0.386,-0.723 0.699,-1.071 0.316,-0.355 0.691,-0.613 1.125,-0.777 0.332,-0.133 0.676,-0.199 1.023,-0.199 0.301,0 0.594,0.043 0.871,0.129 0.285,0.078 0.586,0.238 0.899,0.484 0.316,0.242 0.59,0.555 0.824,0.934 0.23,0.383 0.422,0.906 0.57,1.57 0.153,0.668 0.231,1.43 0.231,2.293 v 0.34 c 0,0.414 -0.008,0.781 -0.024,1.109 -0.015,0.324 -0.07,0.735 -0.16,1.239 -0.082,0.496 -0.207,0.929 -0.363,1.292 -0.152,0.36 -0.391,0.711 -0.707,1.055 -0.313,0.34 -0.684,0.59 -1.117,0.754 -0.36,0.121 -0.7,0.18 -1.024,0.172 -0.301,0 -0.594,-0.039 -0.871,-0.117 -0.277,-0.074 -0.574,-0.227 -0.898,-0.461 -0.317,-0.231 -0.59,-0.535 -0.817,-0.91 -0.226,-0.383 -0.418,-0.907 -0.57,-1.578 -0.148,-0.672 -0.223,-1.446 -0.223,-2.325 z m 1.27,0 c 0,0.723 0.047,1.36 0.144,1.91 0.098,0.547 0.219,0.973 0.356,1.286 0.14,0.308 0.312,0.554 0.515,0.746 0.2,0.191 0.387,0.312 0.555,0.371 0.176,0.058 0.36,0.09 0.555,0.09 0.25,0 0.48,-0.059 0.699,-0.168 0.215,-0.117 0.438,-0.317 0.664,-0.602 0.227,-0.285 0.406,-0.742 0.539,-1.363 0.137,-0.625 0.207,-1.387 0.207,-2.285 v -0.961 c 0,-0.824 -0.07,-1.516 -0.207,-2.078 -0.133,-0.559 -0.312,-0.969 -0.547,-1.227 -0.23,-0.266 -0.457,-0.445 -0.672,-0.539 -0.218,-0.102 -0.449,-0.152 -0.699,-0.152 -0.25,0 -0.48,0.05 -0.699,0.152 -0.215,0.094 -0.437,0.273 -0.664,0.539 -0.227,0.258 -0.41,0.672 -0.547,1.242 -0.133,0.567 -0.199,1.254 -0.199,2.063 z" /><path
         id="path124"
         style="fill:#000000;fill-opacity:1;fill-rule:nonzero;stroke:none"
         d="m 96.953,102.285 v -0.937 c 1.301,0 2.336,-0.36 3.102,-1.078 h 0.308 v 10.054 h 2.032 v 0.961 h -5.352 v -0.961 h 2.027 v -8.414 c -0.644,0.25 -1.351,0.375 -2.117,0.375 z" /><path
         id="path126"
         style="fill:#000000;fill-opacity:1;fill-rule:nonzero;stroke:none"
         d="m 105.074,102.285 v -0.937 c 1.301,0 2.336,-0.36 3.102,-1.078 h 0.308 v 10.054 h 2.032 v 0.961 h -5.356 v -0.961 h 2.031 v -8.414 c -0.644,0.25 -1.351,0.375 -2.117,0.375 z" /><path
         id="path128"
         style="fill:#000000;fill-opacity:1;fill-rule:nonzero;stroke:none"
         d="m 127.445,102.285 v -0.937 c 1.301,0 2.336,-0.36 3.102,-1.078 h 0.308 v 10.054 h 2.032 v 0.961 h -5.352 v -0.961 h 2.028 v -8.414 c -0.645,0.25 -1.348,0.375 -2.118,0.375 z" /><path
         id="path130"
         style="fill:#000000;fill-opacity:1;fill-rule:nonzero;stroke:none"
         d="m 134.773,102.934 c 0.528,-1.778 1.579,-2.664 3.149,-2.664 1.043,0 1.883,0.343 2.523,1.031 0.637,0.683 0.957,1.5 0.957,2.449 0,0.383 -0.05,0.727 -0.156,1.039 -0.101,0.313 -0.305,0.645 -0.605,1 -0.297,0.348 -0.555,0.633 -0.786,0.848 -0.226,0.218 -0.613,0.57 -1.164,1.054 -0.293,0.258 -1.164,1.079 -2.617,2.457 l 5.328,-0.015 v 1.152 h -6.5 v -1.055 l 2.118,-2.093 c 0.082,-0.086 0.269,-0.258 0.554,-0.516 0.289,-0.266 0.481,-0.441 0.578,-0.531 0.094,-0.094 0.258,-0.258 0.493,-0.492 0.23,-0.235 0.39,-0.41 0.476,-0.532 0.09,-0.125 0.211,-0.296 0.371,-0.507 0.16,-0.211 0.266,-0.395 0.317,-0.555 0.054,-0.164 0.105,-0.352 0.16,-0.563 0.058,-0.211 0.086,-0.425 0.086,-0.644 0,-0.692 -0.219,-1.274 -0.657,-1.75 -0.441,-0.477 -1,-0.715 -1.683,-0.715 -0.371,0 -0.699,0.086 -0.992,0.254 -0.285,0.164 -0.5,0.367 -0.649,0.609 -0.144,0.246 -0.261,0.489 -0.355,0.731 -0.09,0.242 -0.153,0.453 -0.184,0.625 l -0.062,0.281 z" /><path
         id="path132"
         style="fill:#000000;fill-opacity:1;fill-rule:nonzero;stroke:none"
         d="m 4.621,132.797 v -0.938 c 1.301,0 2.332,-0.359 3.102,-1.078 h 0.308 v 10.055 h 2.032 v 0.961 H 4.707 v -0.961 h 2.031 v -8.414 c -0.644,0.25 -1.351,0.375 -2.117,0.375 z" /><path
         id="path134"
         style="fill:#000000;fill-opacity:1;fill-rule:nonzero;stroke:none"
         d="m 11.949,140.48 0.172,-0.992 c 0.352,0.465 0.762,0.836 1.231,1.11 0.468,0.269 0.839,0.429 1.109,0.476 0.277,0.047 0.539,0.071 0.785,0.071 0.598,0 1.078,-0.215 1.445,-0.649 0.368,-0.433 0.555,-0.984 0.555,-1.656 0,-0.629 -0.18,-1.168 -0.531,-1.617 -0.356,-0.45 -0.875,-0.676 -1.555,-0.676 h -1.183 v -1 c 0.261,-0.02 0.484,-0.039 0.675,-0.055 0.192,-0.019 0.313,-0.035 0.364,-0.039 0.054,-0.008 0.097,-0.008 0.129,-0.008 0.515,-0.097 0.941,-0.355 1.277,-0.777 0.332,-0.422 0.5,-0.887 0.5,-1.395 0,-0.457 -0.156,-0.82 -0.461,-1.097 -0.301,-0.278 -0.695,-0.418 -1.184,-0.418 -0.949,0 -1.703,0.406 -2.257,1.219 -0.067,0.097 -0.153,0.253 -0.262,0.468 l -0.578,-0.886 c 0.742,-1.18 1.789,-1.77 3.129,-1.778 0.828,0 1.519,0.246 2.086,0.739 0.57,0.484 0.859,1.07 0.859,1.753 0,1.168 -0.606,2.094 -1.809,2.774 0.746,0.258 1.309,0.644 1.688,1.156 0.383,0.508 0.57,1.067 0.57,1.668 0,0.875 -0.328,1.645 -0.98,2.301 -0.657,0.652 -1.477,0.98 -2.461,0.98 -1.332,0 -2.438,-0.558 -3.313,-1.672 z" /><path
         id="path136"
         style="fill:#000000;fill-opacity:1;fill-rule:nonzero;stroke:none"
         d="m 35.195,132.973 v -0.934 c 1.301,0 2.336,-0.359 3.102,-1.078 h 0.308 v 10.055 h 2.032 v 0.961 h -5.352 v -0.961 h 2.028 v -8.414 c -0.645,0.25 -1.352,0.371 -2.118,0.371 z" /><path
         id="path138"
         style="fill:#000000;fill-opacity:1;fill-rule:nonzero;stroke:none"
         d="m 42.293,139.199 c 0,0 0,-0.261 0,-0.785 0,-0.133 0.062,-0.297 0.184,-0.5 l 3.925,-6.574 h 1.496 v 6.867 h 1.61 v 0.992 h -1.61 v 2.778 h -1.3 v -2.778 z m 1.27,-0.992 h 3.132 v -6.269 c -0.062,0.398 -0.218,0.878 -0.461,1.433 -0.242,0.551 -0.472,1.016 -0.691,1.402 -0.215,0.383 -0.691,1.207 -1.426,2.477 -0.238,0.41 -0.422,0.73 -0.554,0.957 z" /><path
         id="path140"
         style="fill:#000000;fill-opacity:1;fill-rule:nonzero;stroke:none"
         d="m 66.066,132.797 v -0.938 c 1.301,0 2.332,-0.359 3.098,-1.078 h 0.313 v 10.055 h 2.027 v 0.961 h -5.352 v -0.961 h 2.032 v -8.414 c -0.645,0.25 -1.352,0.375 -2.118,0.375 z" /><path
         id="path142"
         style="fill:#000000;fill-opacity:1;fill-rule:nonzero;stroke:none"
         d="m 73.344,140.559 0.547,-0.903 c 0.609,0.992 1.457,1.489 2.539,1.489 0.539,0 1.027,-0.207 1.468,-0.625 0.438,-0.418 0.657,-1.102 0.657,-2.055 0,-0.887 -0.16,-1.547 -0.485,-1.973 -0.316,-0.429 -0.707,-0.644 -1.172,-0.644 -0.734,0 -1.332,0.433 -1.785,1.3 h -1.101 v -5.984 h 5.472 v 1.039 h -4.293 v 3.32 c 0.551,-0.445 1.129,-0.664 1.739,-0.656 0.836,0 1.558,0.348 2.172,1.047 0.613,0.695 0.921,1.551 0.921,2.566 0,1.043 -0.359,1.915 -1.07,2.618 -0.711,0.703 -1.547,1.054 -2.508,1.054 -0.617,0 -1.203,-0.14 -1.754,-0.425 -0.546,-0.293 -0.996,-0.68 -1.347,-1.168 z" /><path
         id="path144"
         style="fill:#000000;fill-opacity:1;fill-rule:nonzero;stroke:none"
         d="m 96.691,132.797 v -0.938 c 1.301,0 2.336,-0.359 3.102,-1.078 h 0.309 v 10.055 h 2.031 v 0.961 h -5.352 v -0.961 h 2.028 v -8.414 c -0.645,0.25 -1.352,0.375 -2.118,0.375 z" /><path
         id="path146"
         style="fill:#000000;fill-opacity:1;fill-rule:nonzero;stroke:none"
         d="m 104.035,136.547 c 0,-1.621 0.41,-2.988 1.231,-4.102 0.824,-1.109 1.859,-1.664 3.109,-1.664 0.559,0 1.137,0.11 1.734,0.324 v 0.977 c -0.617,-0.227 -1.195,-0.34 -1.734,-0.34 -0.633,0 -1.18,0.219 -1.645,0.656 -0.464,0.442 -0.792,0.942 -0.988,1.5 -0.199,0.555 -0.312,1.133 -0.344,1.731 0.336,-0.426 0.743,-0.754 1.231,-0.984 0.492,-0.235 0.996,-0.352 1.516,-0.352 0.71,0 1.3,0.332 1.765,0.992 0.578,0.805 0.867,1.762 0.867,2.871 0,1.199 -0.375,2.196 -1.121,2.989 -0.629,0.671 -1.363,1.007 -2.211,1.007 -0.3,0 -0.597,-0.043 -0.886,-0.132 -0.286,-0.086 -0.59,-0.254 -0.907,-0.5 -0.312,-0.25 -0.582,-0.571 -0.816,-0.961 -0.231,-0.395 -0.426,-0.938 -0.578,-1.625 -0.149,-0.692 -0.223,-1.489 -0.223,-2.387 z m 1.379,1.672 c 0.207,1.953 0.879,2.926 2.016,2.926 0.55,0 0.984,-0.184 1.3,-0.555 0.321,-0.375 0.536,-0.789 0.633,-1.242 0.055,-0.239 0.082,-0.602 0.082,-1.09 0,-0.938 -0.152,-1.649 -0.453,-2.133 -0.359,-0.559 -0.855,-0.84 -1.484,-0.84 -0.606,0 -1.106,0.246 -1.496,0.738 -0.387,0.493 -0.582,1.079 -0.582,1.762 0,0.094 0.011,0.238 0.031,0.434 z" /><path
         id="path148"
         style="fill:#000000;fill-opacity:1;fill-rule:nonzero;stroke:none"
         d="m 127.383,132.883 v -0.934 c 1.301,0 2.336,-0.359 3.101,-1.082 h 0.309 v 10.059 h 2.031 v 0.957 h -5.355 v -0.957 h 2.031 v -8.414 c -0.645,0.246 -1.352,0.371 -2.117,0.371 z" /><path
         id="path150"
         style="fill:#000000;fill-opacity:1;fill-rule:nonzero;stroke:none"
         d="m 134.711,132.383 v -1.149 l 6.754,0.016 v 1.055 c -1.145,1.32 -2.031,2.832 -2.656,4.535 -0.621,1.699 -0.934,3.437 -0.934,5.226 h -1.379 c 0,-1.714 0.313,-3.398 0.942,-5.058 0.628,-1.668 1.605,-3.207 2.925,-4.625 z" /><path
         id="path152"
         style="fill:#000000;fill-opacity:1;fill-rule:nonzero;stroke:none"
         d="m 4.621,163.488 v -0.937 c 1.301,0 2.332,-0.36 3.102,-1.078 h 0.308 v 10.054 h 2.032 v 0.961 H 4.707 v -0.961 h 2.031 v -8.414 c -0.644,0.25 -1.351,0.375 -2.117,0.375 z" /><path
         id="path154"
         style="fill:#000000;fill-opacity:1;fill-rule:nonzero;stroke:none"
         d="m 11.949,169.563 c 0,-0.61 0.18,-1.161 0.547,-1.661 0.367,-0.496 0.942,-0.882 1.711,-1.164 -0.516,-0.164 -0.984,-0.453 -1.402,-0.863 -0.418,-0.418 -0.625,-0.937 -0.625,-1.555 0,-0.757 0.3,-1.422 0.902,-1.992 0.609,-0.57 1.356,-0.855 2.242,-0.855 0.903,0 1.649,0.289 2.246,0.863 0.602,0.578 0.903,1.238 0.903,1.984 0,0.508 -0.168,0.973 -0.508,1.403 -0.332,0.429 -0.84,0.765 -1.52,1.015 0.598,0.184 1.121,0.524 1.578,1.016 0.454,0.492 0.68,1.098 0.68,1.824 0,0.867 -0.324,1.625 -0.973,2.281 -0.652,0.657 -1.453,0.985 -2.406,0.985 -0.937,0 -1.738,-0.324 -2.394,-0.977 -0.653,-0.648 -0.981,-1.418 -0.981,-2.304 z m 1.317,-0.016 c 0,0.691 0.187,1.246 0.562,1.664 0.379,0.418 0.879,0.625 1.496,0.625 0.598,0 1.09,-0.207 1.477,-0.617 0.39,-0.414 0.586,-0.977 0.586,-1.692 0,-0.679 -0.192,-1.234 -0.578,-1.656 -0.379,-0.422 -0.875,-0.633 -1.485,-0.633 -0.527,0 -1.004,0.192 -1.426,0.578 -0.421,0.387 -0.632,0.961 -0.632,1.731 z m 0.047,-5.211 c 0,0.574 0.183,1.039 0.554,1.387 0.375,0.343 0.856,0.515 1.442,0.515 0.609,0 1.097,-0.175 1.468,-0.531 0.375,-0.355 0.563,-0.812 0.563,-1.371 0,-0.578 -0.188,-1.035 -0.563,-1.379 -0.371,-0.352 -0.855,-0.523 -1.453,-0.523 -0.605,0 -1.094,0.175 -1.465,0.531 -0.363,0.351 -0.546,0.808 -0.546,1.371 z" /><path
         id="path156"
         style="fill:#000000;fill-opacity:1;fill-rule:nonzero;stroke:none"
         d="m 35.313,163.488 v -0.937 c 1.3,0 2.332,-0.36 3.097,-1.078 h 0.313 v 10.054 h 2.027 v 0.961 h -5.352 v -0.961 h 2.032 v -8.414 c -0.645,0.25 -1.352,0.375 -2.117,0.375 z" /><path
         id="path158"
         style="fill:#000000;fill-opacity:1;fill-rule:nonzero;stroke:none"
         d="m 42.656,165.422 c 0,-1.192 0.387,-2.18 1.164,-2.973 0.641,-0.652 1.387,-0.976 2.243,-0.976 0.382,0 0.746,0.078 1.097,0.238 0.352,0.156 0.703,0.426 1.055,0.801 0.351,0.371 0.637,0.949 0.855,1.734 0.215,0.785 0.325,1.727 0.325,2.832 0,1.664 -0.399,3.043 -1.196,4.133 -0.793,1.09 -1.758,1.633 -2.894,1.633 -0.778,0 -1.5,-0.25 -2.168,-0.746 l 0.508,-0.879 c 0.011,0.011 0.054,0.043 0.136,0.101 0.082,0.055 0.141,0.09 0.164,0.114 0.028,0.019 0.078,0.05 0.153,0.093 0.078,0.043 0.144,0.078 0.191,0.102 0.047,0.023 0.113,0.051 0.195,0.082 0.09,0.031 0.176,0.055 0.254,0.07 0.086,0.016 0.18,0.028 0.278,0.039 0.101,0.012 0.207,0.016 0.32,0.016 0.734,-0.008 1.344,-0.359 1.832,-1.055 0.488,-0.691 0.777,-1.617 0.863,-2.773 -0.758,0.898 -1.672,1.347 -2.746,1.347 -0.703,0 -1.285,-0.332 -1.75,-0.992 -0.586,-0.824 -0.879,-1.804 -0.879,-2.941 z m 1.332,0 c 0,0.496 0.032,0.906 0.094,1.23 0.07,0.317 0.207,0.633 0.422,0.95 0.348,0.496 0.82,0.746 1.418,0.746 0.609,0 1.105,-0.246 1.492,-0.739 0.391,-0.496 0.586,-1.089 0.586,-1.785 0,-0.183 -0.008,-0.324 -0.016,-0.418 h 0.032 c -0.024,-0.324 -0.067,-0.633 -0.137,-0.929 -0.063,-0.301 -0.164,-0.614 -0.301,-0.942 -0.133,-0.336 -0.328,-0.597 -0.586,-0.793 -0.258,-0.195 -0.562,-0.293 -0.914,-0.293 -0.558,0 -1.004,0.188 -1.34,0.571 -0.328,0.378 -0.547,0.793 -0.656,1.234 -0.062,0.262 -0.094,0.648 -0.094,1.168 z" /><path
         id="path160"
         style="fill:#000000;fill-opacity:1;fill-rule:nonzero;stroke:none"
         d="m 65.598,164.137 c 0.527,-1.778 1.578,-2.664 3.148,-2.664 1.039,0 1.883,0.343 2.52,1.031 0.64,0.68 0.961,1.496 0.961,2.449 0,0.383 -0.051,0.727 -0.161,1.039 -0.097,0.313 -0.3,0.645 -0.601,1 -0.297,0.348 -0.559,0.633 -0.785,0.848 -0.227,0.219 -0.614,0.57 -1.164,1.055 -0.293,0.257 -1.164,1.078 -2.618,2.457 l 5.329,-0.016 v 1.152 h -6.504 v -1.054 l 2.117,-2.094 c 0.086,-0.086 0.269,-0.258 0.558,-0.516 0.29,-0.265 0.481,-0.441 0.579,-0.531 0.093,-0.098 0.257,-0.262 0.492,-0.492 0.23,-0.235 0.39,-0.41 0.472,-0.531 0.09,-0.129 0.215,-0.297 0.375,-0.508 0.157,-0.211 0.262,-0.399 0.317,-0.555 0.055,-0.164 0.105,-0.352 0.16,-0.562 0.059,-0.211 0.086,-0.426 0.086,-0.645 0,-0.691 -0.219,-1.277 -0.66,-1.75 -0.438,-0.477 -0.996,-0.715 -1.68,-0.715 -0.371,0 -0.699,0.086 -0.992,0.254 -0.285,0.164 -0.5,0.367 -0.649,0.609 -0.144,0.243 -0.261,0.489 -0.355,0.731 -0.094,0.242 -0.152,0.453 -0.184,0.625 l -0.062,0.277 z" /><path
         id="path162"
         style="fill:#000000;fill-opacity:1;fill-rule:nonzero;stroke:none"
         d="m 73.719,167.453 v -0.281 c 0,-0.422 0.008,-0.789 0.023,-1.102 0.016,-0.312 0.067,-0.722 0.149,-1.234 0.089,-0.52 0.211,-0.957 0.359,-1.316 0.152,-0.368 0.387,-0.723 0.695,-1.071 0.321,-0.355 0.696,-0.613 1.129,-0.777 0.332,-0.133 0.672,-0.199 1.024,-0.199 0.3,0 0.59,0.043 0.871,0.125 0.285,0.082 0.582,0.242 0.894,0.484 0.317,0.242 0.594,0.555 0.825,0.938 0.234,0.378 0.425,0.902 0.57,1.57 0.156,0.664 0.23,1.43 0.23,2.289 v 0.344 c 0,0.41 -0.008,0.781 -0.023,1.109 -0.016,0.32 -0.067,0.734 -0.156,1.238 -0.086,0.496 -0.207,0.926 -0.368,1.289 -0.152,0.364 -0.386,0.711 -0.703,1.055 -0.312,0.34 -0.687,0.59 -1.121,0.754 -0.359,0.121 -0.699,0.18 -1.019,0.176 -0.305,0 -0.594,-0.039 -0.875,-0.117 -0.274,-0.075 -0.575,-0.231 -0.895,-0.461 -0.316,-0.235 -0.59,-0.539 -0.816,-0.914 -0.227,-0.379 -0.418,-0.907 -0.571,-1.579 -0.148,-0.671 -0.222,-1.445 -0.222,-2.32 z m 1.269,0 c 0,0.723 0.047,1.36 0.141,1.91 0.101,0.543 0.219,0.973 0.355,1.285 0.145,0.305 0.317,0.555 0.516,0.743 0.203,0.191 0.387,0.316 0.555,0.375 0.175,0.058 0.359,0.086 0.558,0.086 0.246,0 0.481,-0.055 0.696,-0.164 0.218,-0.118 0.441,-0.321 0.668,-0.606 0.226,-0.285 0.406,-0.738 0.539,-1.363 0.136,-0.625 0.207,-1.383 0.207,-2.285 v -0.957 c 0,-0.825 -0.071,-1.52 -0.207,-2.079 -0.133,-0.558 -0.317,-0.968 -0.547,-1.23 -0.235,-0.262 -0.457,-0.441 -0.676,-0.539 -0.215,-0.098 -0.449,-0.149 -0.695,-0.149 -0.25,0 -0.485,0.051 -0.7,0.149 -0.218,0.098 -0.437,0.277 -0.668,0.539 -0.226,0.262 -0.41,0.676 -0.546,1.246 -0.133,0.566 -0.196,1.254 -0.196,2.063 z" /><path
         id="path164"
         style="fill:#000000;fill-opacity:1;fill-rule:nonzero;stroke:none"
         d="m 96.559,164.316 c 0.527,-1.777 1.578,-2.664 3.148,-2.664 1.039,0 1.879,0.344 2.52,1.032 0.64,0.679 0.961,1.496 0.961,2.449 0,0.379 -0.055,0.726 -0.161,1.039 -0.097,0.312 -0.3,0.644 -0.601,1 -0.297,0.348 -0.559,0.629 -0.785,0.848 -0.227,0.214 -0.618,0.566 -1.164,1.054 -0.293,0.258 -1.164,1.078 -2.618,2.457 l 5.329,-0.015 v 1.148 h -6.504 v -1.055 l 2.117,-2.093 c 0.086,-0.082 0.269,-0.254 0.554,-0.516 0.293,-0.262 0.485,-0.441 0.583,-0.531 0.093,-0.094 0.257,-0.258 0.488,-0.489 0.234,-0.234 0.394,-0.41 0.476,-0.531 0.09,-0.129 0.215,-0.297 0.375,-0.508 0.157,-0.211 0.262,-0.398 0.317,-0.554 0.051,-0.164 0.105,-0.352 0.156,-0.567 0.059,-0.211 0.09,-0.425 0.09,-0.64 0,-0.692 -0.219,-1.278 -0.66,-1.754 -0.438,-0.473 -1,-0.711 -1.68,-0.711 -0.371,0 -0.699,0.082 -0.992,0.254 -0.285,0.164 -0.5,0.367 -0.649,0.609 -0.144,0.242 -0.261,0.485 -0.359,0.731 -0.09,0.242 -0.148,0.449 -0.18,0.625 l -0.066,0.277 z" /><path
         id="path166"
         style="fill:#000000;fill-opacity:1;fill-rule:nonzero;stroke:none"
         d="m 105.473,163.664 v -0.934 c 1.297,0 2.332,-0.359 3.097,-1.078 h 0.309 v 10.055 h 2.031 v 0.957 h -5.351 v -0.957 h 2.031 v -8.414 c -0.649,0.246 -1.352,0.371 -2.117,0.371 z" /><path
         id="path168"
         style="fill:#000000;fill-opacity:1;fill-rule:nonzero;stroke:none"
         d="m 127.051,164.316 c 0.527,-1.777 1.578,-2.664 3.148,-2.664 1.039,0 1.879,0.344 2.52,1.032 0.64,0.679 0.961,1.496 0.961,2.449 0,0.379 -0.055,0.726 -0.16,1.039 -0.098,0.312 -0.301,0.644 -0.602,1 -0.297,0.348 -0.559,0.629 -0.785,0.848 -0.227,0.214 -0.617,0.566 -1.164,1.054 -0.293,0.258 -1.164,1.078 -2.617,2.457 l 5.328,-0.015 v 1.148 h -6.504 v -1.055 l 2.117,-2.093 c 0.086,-0.082 0.27,-0.254 0.555,-0.516 0.293,-0.262 0.484,-0.441 0.582,-0.531 0.093,-0.094 0.258,-0.258 0.488,-0.489 0.234,-0.234 0.395,-0.41 0.477,-0.531 0.089,-0.129 0.214,-0.297 0.375,-0.508 0.156,-0.211 0.261,-0.398 0.316,-0.554 0.051,-0.164 0.105,-0.352 0.156,-0.567 0.059,-0.211 0.09,-0.425 0.09,-0.64 0,-0.692 -0.219,-1.278 -0.66,-1.754 -0.438,-0.473 -0.996,-0.711 -1.68,-0.711 -0.371,0 -0.699,0.082 -0.992,0.254 -0.285,0.164 -0.5,0.367 -0.648,0.609 -0.145,0.242 -0.262,0.485 -0.36,0.731 -0.09,0.242 -0.148,0.449 -0.179,0.625 l -0.067,0.277 z" /><path
         id="path170"
         style="fill:#000000;fill-opacity:1;fill-rule:nonzero;stroke:none"
         d="m 135.172,164.316 c 0.527,-1.777 1.578,-2.664 3.144,-2.664 1.043,0 1.883,0.344 2.524,1.032 0.64,0.679 0.961,1.496 0.961,2.449 0,0.379 -0.055,0.726 -0.16,1.039 -0.102,0.312 -0.301,0.644 -0.602,1 -0.297,0.348 -0.559,0.629 -0.785,0.848 -0.227,0.214 -0.617,0.566 -1.168,1.054 -0.289,0.258 -1.16,1.078 -2.617,2.457 l 5.332,-0.015 v 1.148 h -6.504 v -1.055 l 2.117,-2.093 c 0.086,-0.082 0.27,-0.254 0.555,-0.516 0.293,-0.262 0.484,-0.441 0.578,-0.531 0.098,-0.094 0.262,-0.258 0.492,-0.489 0.234,-0.234 0.391,-0.41 0.477,-0.531 0.089,-0.129 0.214,-0.297 0.371,-0.508 0.16,-0.211 0.265,-0.398 0.32,-0.554 0.051,-0.164 0.106,-0.352 0.156,-0.567 0.059,-0.211 0.09,-0.425 0.09,-0.64 0,-0.692 -0.223,-1.278 -0.66,-1.754 -0.438,-0.473 -1,-0.711 -1.68,-0.711 -0.371,0 -0.703,0.082 -0.992,0.254 -0.285,0.164 -0.504,0.367 -0.652,0.609 -0.141,0.242 -0.262,0.485 -0.356,0.731 -0.09,0.242 -0.148,0.449 -0.183,0.625 l -0.063,0.277 z" /><path
         id="path172"
         style="fill:#000000;fill-opacity:1;fill-rule:nonzero;stroke:none"
         d="m 31.059,1.246 v 3.363 h 4.007 v 1.512 h -4.007 v 6.43 c 0,0.965 0.129,1.586 0.39,1.859 0.266,0.278 0.805,0.414 1.617,0.414 h 2 v 1.629 h -2 c -1.5,0 -2.539,-0.281 -3.109,-0.836 -0.57,-0.566 -0.855,-1.586 -0.855,-3.066 V 6.121 H 27.676 V 4.609 h 1.426 V 1.246 Z" /><path
         id="path174"
         style="fill:#000000;fill-opacity:1;fill-rule:nonzero;stroke:none"
         d="m 42.223,5.973 c -1.043,0 -1.868,0.41 -2.473,1.226 -0.609,0.813 -0.91,1.926 -0.91,3.344 0,1.414 0.301,2.531 0.898,3.352 0.606,0.808 1.434,1.214 2.485,1.214 1.035,0 1.855,-0.41 2.465,-1.226 0.605,-0.817 0.906,-1.93 0.906,-3.34 0,-1.402 -0.301,-2.516 -0.906,-3.332 -0.61,-0.824 -1.43,-1.238 -2.465,-1.238 z m 0,-1.649 c 1.691,0 3.019,0.551 3.984,1.649 0.969,1.101 1.449,2.625 1.449,4.57 0,1.937 -0.48,3.461 -1.449,4.566 -0.965,1.098 -2.293,1.649 -3.984,1.649 -1.7,0 -3.032,-0.551 -3.996,-1.649 -0.961,-1.105 -1.438,-2.629 -1.438,-4.566 0,-1.945 0.477,-3.469 1.438,-4.57 0.964,-1.098 2.296,-1.649 3.996,-1.649 z" /><path
         id="path176"
         style="fill:#000000;fill-opacity:1;fill-rule:nonzero;stroke:none"
         d="m 52.754,14.676 v 6.281 H 50.797 V 4.609 h 1.957 v 1.797 c 0.41,-0.703 0.922,-1.226 1.543,-1.562 0.629,-0.348 1.375,-0.52 2.242,-0.52 1.438,0 2.606,0.571 3.5,1.715 0.902,1.141 1.352,2.641 1.352,4.504 0,1.859 -0.45,3.359 -1.352,4.504 -0.894,1.141 -2.062,1.711 -3.5,1.711 -0.867,0 -1.613,-0.168 -2.242,-0.508 -0.621,-0.344 -1.133,-0.871 -1.543,-1.574 z m 6.617,-4.133 c 0,-1.434 -0.293,-2.555 -0.887,-3.363 -0.586,-0.817 -1.39,-1.227 -2.421,-1.227 -1.028,0 -1.84,0.41 -2.43,1.227 -0.586,0.808 -0.879,1.929 -0.879,3.363 0,1.43 0.293,2.555 0.879,3.371 0.59,0.813 1.402,1.215 2.43,1.215 1.031,0 1.835,-0.402 2.421,-1.215 0.594,-0.816 0.887,-1.941 0.887,-3.371 z" /><path
         id="path178"
         style="fill:#000000;fill-opacity:1;fill-rule:nonzero;stroke:none"
         d="m 70.113,4.609 h 2.063 l 3.703,9.938 3.699,-9.938 h 2.063 l -4.442,11.844 h -2.644 z" /><path
         id="path180"
         style="fill:#000000;fill-opacity:1;fill-rule:nonzero;stroke:none"
         d="M 84.324,4.609 H 86.27 V 16.453 H 84.324 Z M 84.324,0 H 86.27 V 2.465 H 84.324 Z" /><path
         id="path182"
         style="fill:#000000;fill-opacity:1;fill-rule:nonzero;stroke:none"
         d="m 100.461,10.043 v 0.953 h -8.945 c 0.082,1.34 0.484,2.363 1.203,3.067 0.726,0.699 1.734,1.046 3.027,1.046 0.746,0 1.469,-0.093 2.164,-0.273 0.707,-0.184 1.403,-0.461 2.094,-0.828 v 1.84 c -0.695,0.297 -1.41,0.523 -2.145,0.679 -0.734,0.153 -1.476,0.231 -2.23,0.231 -1.891,0 -3.387,-0.551 -4.496,-1.649 -1.098,-1.101 -1.649,-2.586 -1.649,-4.461 0,-1.941 0.524,-3.476 1.567,-4.609 1.051,-1.144 2.461,-1.715 4.238,-1.715 1.594,0 2.852,0.516 3.774,1.543 0.933,1.024 1.398,2.414 1.398,4.176 z M 98.516,9.473 C 98.5,8.41 98.199,7.559 97.617,6.926 97.039,6.293 96.27,5.973 95.313,5.973 c -1.086,0 -1.958,0.308 -2.614,0.922 -0.648,0.613 -1.023,1.476 -1.121,2.589 z" /><path
         id="path184"
         style="fill:#000000;fill-opacity:1;fill-rule:nonzero;stroke:none"
         d="m 102.523,4.609 h 1.946 l 2.429,9.243 2.422,-9.243 h 2.293 l 2.434,9.243 2.422,-9.243 h 1.945 l -3.098,11.844 h -2.296 l -2.547,-9.707 -2.559,9.707 h -2.293 z" /><path
         id="path186"
         style="fill:#000000;fill-opacity:1;fill-rule:nonzero;stroke:none"
         d="m 244.434,12.641 c 0,-1.43 -0.297,-2.551 -0.891,-3.364 -0.582,-0.816 -1.391,-1.226 -2.418,-1.226 -1.031,0 -1.84,0.41 -2.434,1.226 -0.586,0.813 -0.878,1.934 -0.878,3.364 0,1.429 0.292,2.554 0.878,3.371 0.594,0.812 1.403,1.218 2.434,1.218 1.027,0 1.836,-0.406 2.418,-1.218 0.594,-0.817 0.891,-1.942 0.891,-3.371 z m -6.621,-4.133 c 0.41,-0.707 0.925,-1.227 1.546,-1.567 0.625,-0.343 1.371,-0.519 2.239,-0.519 1.441,0 2.605,0.574 3.5,1.715 0.902,1.14 1.355,2.644 1.355,4.504 0,1.859 -0.453,3.363 -1.355,4.504 -0.895,1.14 -2.059,1.71 -3.5,1.71 -0.868,0 -1.614,-0.167 -2.239,-0.503 -0.621,-0.348 -1.136,-0.872 -1.546,-1.579 v 1.778 h -1.954 V 2.098 h 1.954 z" /><path
         id="path188"
         style="fill:#000000;fill-opacity:1;fill-rule:nonzero;stroke:none"
         d="m 254.266,8.074 c -1.043,0 -1.868,0.406 -2.473,1.227 -0.605,0.808 -0.91,1.922 -0.91,3.34 0,1.418 0.301,2.535 0.898,3.351 0.606,0.809 1.434,1.215 2.485,1.215 1.035,0 1.859,-0.406 2.464,-1.227 0.606,-0.816 0.911,-1.929 0.911,-3.339 0,-1.403 -0.305,-2.512 -0.911,-3.332 -0.605,-0.825 -1.429,-1.235 -2.464,-1.235 z m 0,-1.652 c 1.691,0 3.019,0.551 3.988,1.652 0.965,1.098 1.445,2.621 1.445,4.567 0,1.937 -0.48,3.461 -1.445,4.566 -0.969,1.102 -2.297,1.648 -3.988,1.648 -1.7,0 -3.032,-0.546 -3.996,-1.648 -0.957,-1.105 -1.438,-2.629 -1.438,-4.566 0,-1.946 0.481,-3.469 1.438,-4.567 0.964,-1.101 2.296,-1.652 3.996,-1.652 z" /><path
         id="path190"
         style="fill:#000000;fill-opacity:1;fill-rule:nonzero;stroke:none"
         d="m 264.84,3.348 v 3.359 h 4.008 v 1.512 h -4.008 v 6.429 c 0,0.965 0.129,1.586 0.39,1.864 0.27,0.273 0.809,0.41 1.618,0.41 h 2 v 1.629 h -2 c -1.5,0 -2.535,-0.278 -3.11,-0.836 -0.57,-0.563 -0.855,-1.586 -0.855,-3.067 V 8.219 h -1.426 V 6.707 h 1.426 V 3.348 Z" /><path
         id="path192"
         style="fill:#000000;fill-opacity:1;fill-rule:nonzero;stroke:none"
         d="m 273.34,3.348 v 3.359 h 4.008 v 1.512 h -4.008 v 6.429 c 0,0.965 0.129,1.586 0.39,1.864 0.27,0.273 0.809,0.41 1.618,0.41 h 2 v 1.629 h -2 c -1.5,0 -2.535,-0.278 -3.106,-0.836 -0.574,-0.563 -0.859,-1.586 -0.859,-3.067 V 8.219 h -1.426 V 6.707 h 1.426 V 3.348 Z" /><path
         id="path194"
         style="fill:#000000;fill-opacity:1;fill-rule:nonzero;stroke:none"
         d="m 284.504,8.074 c -1.043,0 -1.867,0.406 -2.473,1.227 -0.605,0.808 -0.91,1.922 -0.91,3.34 0,1.418 0.301,2.535 0.899,3.351 0.605,0.809 1.437,1.215 2.484,1.215 1.039,0 1.859,-0.406 2.465,-1.227 0.605,-0.816 0.91,-1.929 0.91,-3.339 0,-1.403 -0.305,-2.512 -0.91,-3.332 -0.606,-0.825 -1.426,-1.235 -2.465,-1.235 z m 0,-1.652 c 1.691,0 3.023,0.551 3.988,1.652 0.965,1.098 1.449,2.621 1.449,4.567 0,1.937 -0.484,3.461 -1.449,4.566 -0.965,1.102 -2.297,1.648 -3.988,1.648 -1.699,0 -3.031,-0.546 -3.996,-1.648 -0.957,-1.105 -1.438,-2.629 -1.438,-4.566 0,-1.946 0.481,-3.469 1.438,-4.567 0.965,-1.101 2.297,-1.652 3.996,-1.652 z" /><path
         id="path196"
         style="fill:#000000;fill-opacity:1;fill-rule:nonzero;stroke:none"
         d="m 302.375,8.98 c 0.484,-0.871 1.066,-1.515 1.742,-1.933 0.68,-0.414 1.477,-0.625 2.391,-0.625 1.234,0 2.183,0.433 2.855,1.301 0.668,0.859 1.004,2.086 1.004,3.679 v 7.149 h -1.957 v -7.086 c 0,-1.133 -0.199,-1.977 -0.601,-2.524 -0.403,-0.55 -1.016,-0.828 -1.84,-0.828 -1.008,0 -1.805,0.336 -2.391,1.008 -0.582,0.668 -0.875,1.582 -0.875,2.738 v 6.692 h -1.957 v -7.086 c 0,-1.141 -0.203,-1.985 -0.601,-2.524 -0.403,-0.55 -1.024,-0.828 -1.864,-0.828 -0.992,0 -1.781,0.34 -2.367,1.016 -0.586,0.672 -0.879,1.578 -0.879,2.73 v 6.692 h -1.953 V 6.707 h 1.953 v 1.84 c 0.445,-0.723 0.977,-1.262 1.598,-1.606 0.621,-0.343 1.355,-0.519 2.211,-0.519 0.859,0 1.59,0.219 2.187,0.656 0.606,0.438 1.055,1.07 1.344,1.902 z" /><path
         id="path198"
         style="fill:#000000;fill-opacity:1;fill-rule:nonzero;stroke:none"
         d="m 319.758,6.707 h 2.058 l 3.704,9.941 3.699,-9.941 h 2.062 l -4.441,11.844 h -2.645 z" /><path
         id="path200"
         style="fill:#000000;fill-opacity:1;fill-rule:nonzero;stroke:none"
         d="m 333.965,6.707 h 1.949 v 11.844 h -1.949 z m 0,-4.609 h 1.949 v 2.465 h -1.949 z" /><path
         id="path202"
         style="fill:#000000;fill-opacity:1;fill-rule:nonzero;stroke:none"
         d="m 350.102,12.145 v 0.949 h -8.946 c 0.086,1.34 0.489,2.363 1.207,3.066 0.727,0.699 1.735,1.047 3.024,1.047 0.746,0 1.468,-0.09 2.168,-0.273 0.703,-0.184 1.402,-0.457 2.093,-0.825 v 1.84 c -0.699,0.293 -1.414,0.52 -2.148,0.676 -0.734,0.156 -1.477,0.23 -2.23,0.23 -1.891,0 -3.387,-0.546 -4.493,-1.648 -1.101,-1.098 -1.652,-2.586 -1.652,-4.461 0,-1.937 0.523,-3.476 1.566,-4.609 1.051,-1.141 2.465,-1.715 4.239,-1.715 1.593,0 2.851,0.516 3.777,1.547 0.93,1.019 1.395,2.414 1.395,4.176 z m -1.946,-0.571 c -0.015,-1.066 -0.312,-1.914 -0.898,-2.551 -0.578,-0.632 -1.348,-0.949 -2.305,-0.949 -1.086,0 -1.957,0.305 -2.613,0.918 -0.649,0.613 -1.02,1.477 -1.121,2.59 z" /><path
         id="path204"
         style="fill:#000000;fill-opacity:1;fill-rule:nonzero;stroke:none"
         d="m 352.164,6.707 h 1.945 l 2.43,9.242 2.422,-9.242 h 2.297 l 2.43,9.242 2.421,-9.242 h 1.946 l -3.098,11.844 h -2.293 l -2.551,-9.707 -2.558,9.707 h -2.293 z" /><g
         transform="matrix(0,1,1,0,0,0)"
         id="g206"><path
           id="path208"
           style="fill:none;stroke:#000000;stroke-width:1.841434;stroke-linecap:round;stroke-linejoin:round;stroke-miterlimit:4;stroke-dasharray:none;stroke-opacity:1"
           d="m 116.52,332.648 c 0,5.93 -4.809,10.743 -10.743,10.743 -5.933,0 -10.742,-4.813 -10.742,-10.743 0,-5.933 4.809,-10.742 10.742,-10.742 5.934,0 10.743,4.809 10.743,10.742 z" /></g><g
         transform="matrix(0,1,1,0,0,0)"
         id="g210"><path
           id="path212"
           style="fill:none;stroke:#000000;stroke-width:1.841434;stroke-linecap:round;stroke-linejoin:round;stroke-miterlimit:4;stroke-dasharray:none;stroke-opacity:1"
           d="m 116.52,301.957 c 0,5.934 -4.809,10.742 -10.743,10.742 -5.933,0 -10.742,-4.808 -10.742,-10.742 0,-5.934 4.809,-10.742 10.742,-10.742 5.934,0 10.743,4.808 10.743,10.742 z" /></g><g
         transform="matrix(0,1,1,0,0,0)"
         id="g214"><path
           id="path216"
           style="fill:none;stroke:#000000;stroke-width:1.841434;stroke-linecap:round;stroke-linejoin:round;stroke-miterlimit:4;stroke-dasharray:none;stroke-opacity:1"
           d="m 147.211,271.266 c 0,5.933 -4.813,10.742 -10.742,10.742 -5.934,0 -10.742,-4.809 -10.742,-10.742 0,-5.934 4.808,-10.743 10.742,-10.743 5.929,0 10.742,4.809 10.742,10.743 z" /></g><g
         transform="matrix(0,1,1,0,0,0)"
         id="g218"><path
           id="path220"
           style="fill:none;stroke:#000000;stroke-width:1.841434;stroke-linecap:round;stroke-linejoin:round;stroke-miterlimit:4;stroke-dasharray:none;stroke-opacity:1"
           d="m 85.828,301.957 c 0,5.934 -4.808,10.742 -10.742,10.742 -5.934,0 -10.742,-4.808 -10.742,-10.742 0,-5.934 4.808,-10.742 10.742,-10.742 5.934,0 10.742,4.808 10.742,10.742 z" /></g><g
         transform="matrix(0,1,1,0,0,0)"
         id="g222"><path
           id="path224"
           style="fill:none;stroke:#000000;stroke-width:1.841434;stroke-linecap:round;stroke-linejoin:round;stroke-miterlimit:4;stroke-dasharray:none;stroke-opacity:1"
           d="m 147.211,363.336 c 0,5.934 -4.813,10.742 -10.742,10.742 -5.934,0 -10.742,-4.808 -10.742,-10.742 0,-5.93 4.808,-10.738 10.742,-10.738 5.929,0 10.742,4.808 10.742,10.738 z" /></g><g
         transform="matrix(0,1,1,0,0,0)"
         id="g226"><path
           id="path228"
           style="fill:none;stroke:#000000;stroke-width:1.841434;stroke-linecap:round;stroke-linejoin:round;stroke-miterlimit:4;stroke-dasharray:none;stroke-opacity:1"
           d="m 85.828,271.266 c 0,5.933 -4.808,10.742 -10.742,10.742 -5.934,0 -10.742,-4.809 -10.742,-10.742 0,-5.934 4.808,-10.743 10.742,-10.743 5.934,0 10.742,4.809 10.742,10.743 z" /></g><g
         transform="matrix(0,1,1,0,0,0)"
         id="g230"><path
           id="path232"
           style="fill:none;stroke:#000000;stroke-width:1.841434;stroke-linecap:round;stroke-linejoin:round;stroke-miterlimit:4;stroke-dasharray:none;stroke-opacity:1"
           d="m 147.211,301.957 c 0,5.934 -4.813,10.742 -10.742,10.742 -5.934,0 -10.742,-4.808 -10.742,-10.742 0,-5.934 4.808,-10.742 10.742,-10.742 5.929,0 10.742,4.808 10.742,10.742 z" /></g><g
         transform="matrix(0,1,1,0,0,0)"
         id="g234"><path
           id="path236"
           style="fill:none;stroke:#000000;stroke-width:1.841434;stroke-linecap:round;stroke-linejoin:round;stroke-miterlimit:4;stroke-dasharray:none;stroke-opacity:1"
           d="m 147.211,332.648 c 0,5.93 -4.813,10.743 -10.742,10.743 -5.934,0 -10.742,-4.813 -10.742,-10.743 0,-5.933 4.808,-10.742 10.742,-10.742 5.929,0 10.742,4.809 10.742,10.742 z" /></g><g
         transform="matrix(0,1,1,0,0,0)"
         id="g238"><path
           id="path240"
           style="fill:none;stroke:#000000;stroke-width:1.841434;stroke-linecap:round;stroke-linejoin:round;stroke-miterlimit:4;stroke-dasharray:none;stroke-opacity:1"
           d="m 116.52,240.574 c 0,5.934 -4.809,10.742 -10.743,10.742 -5.933,0 -10.742,-4.808 -10.742,-10.742 0,-5.929 4.809,-10.742 10.742,-10.742 5.934,0 10.743,4.813 10.743,10.742 z" /></g><g
         transform="matrix(0,1,1,0,0,0)"
         id="g242"><path
           id="path244"
           style="fill:none;stroke:#000000;stroke-width:1.841434;stroke-linecap:round;stroke-linejoin:round;stroke-miterlimit:4;stroke-dasharray:none;stroke-opacity:1"
           d="m 177.898,363.336 c 0,5.934 -4.808,10.742 -10.742,10.742 -5.929,0 -10.738,-4.808 -10.738,-10.742 0,-5.93 4.809,-10.738 10.738,-10.738 5.934,0 10.742,4.808 10.742,10.738 z" /></g><g
         transform="matrix(0,1,1,0,0,0)"
         id="g246"><path
           id="path248"
           style="fill:none;stroke:#000000;stroke-width:1.841434;stroke-linecap:round;stroke-linejoin:round;stroke-miterlimit:4;stroke-dasharray:none;stroke-opacity:1"
           d="m 177.898,301.957 c 0,5.934 -4.808,10.742 -10.742,10.742 -5.929,0 -10.738,-4.808 -10.738,-10.742 0,-5.934 4.809,-10.742 10.738,-10.742 5.934,0 10.742,4.808 10.742,10.742 z" /></g><g
         transform="matrix(0,1,1,0,0,0)"
         id="g250"><path
           id="path252"
           style="fill:none;stroke:#000000;stroke-width:1.841434;stroke-linecap:round;stroke-linejoin:round;stroke-miterlimit:4;stroke-dasharray:none;stroke-opacity:1"
           d="m 85.828,332.648 c 0,5.93 -4.808,10.743 -10.742,10.743 -5.934,0 -10.742,-4.813 -10.742,-10.743 0,-5.933 4.808,-10.742 10.742,-10.742 5.934,0 10.742,4.809 10.742,10.742 z" /></g><g
         transform="matrix(0,1,1,0,0,0)"
         id="g254"><path
           id="path256"
           style="fill:none;stroke:#000000;stroke-width:1.841434;stroke-linecap:round;stroke-linejoin:round;stroke-miterlimit:4;stroke-dasharray:none;stroke-opacity:1"
           d="m 85.828,363.336 c 0,5.934 -4.808,10.742 -10.742,10.742 -5.934,0 -10.742,-4.808 -10.742,-10.742 0,-5.93 4.808,-10.738 10.742,-10.738 5.934,0 10.742,4.808 10.742,10.738 z" /></g><g
         transform="matrix(0,1,1,0,0,0)"
         id="g258"><path
           id="path260"
           style="fill:none;stroke:#000000;stroke-width:1.841434;stroke-linecap:round;stroke-linejoin:round;stroke-miterlimit:4;stroke-dasharray:none;stroke-opacity:1"
           d="m 177.898,332.648 c 0,5.93 -4.808,10.743 -10.742,10.743 -5.929,0 -10.738,-4.813 -10.738,-10.743 0,-5.933 4.809,-10.742 10.738,-10.742 5.934,0 10.742,4.809 10.742,10.742 z" /></g><g
         transform="matrix(0,1,1,0,0,0)"
         id="g262"><path
           id="path264"
           style="fill:none;stroke:#000000;stroke-width:1.841434;stroke-linecap:round;stroke-linejoin:round;stroke-miterlimit:4;stroke-dasharray:none;stroke-opacity:1"
           d="m 147.211,240.574 c 0,5.934 -4.813,10.742 -10.742,10.742 -5.934,0 -10.742,-4.808 -10.742,-10.742 0,-5.929 4.808,-10.742 10.742,-10.742 5.929,0 10.742,4.813 10.742,10.742 z" /></g><g
         transform="matrix(0,1,1,0,0,0)"
         id="g266"><path
           id="path268"
           style="fill:none;stroke:#000000;stroke-width:1.841434;stroke-linecap:round;stroke-linejoin:round;stroke-miterlimit:4;stroke-dasharray:none;stroke-opacity:1"
           d="m 55.137,332.648 c 0,5.93 -4.809,10.743 -10.742,10.743 -5.93,0 -10.743,-4.813 -10.743,-10.743 0,-5.933 4.813,-10.742 10.743,-10.742 5.933,0 10.742,4.809 10.742,10.742 z" /></g><g
         transform="matrix(0,1,1,0,0,0)"
         id="g270"><path
           id="path272"
           style="fill:none;stroke:#000000;stroke-width:1.841434;stroke-linecap:round;stroke-linejoin:round;stroke-miterlimit:4;stroke-dasharray:none;stroke-opacity:1"
           d="m 177.898,271.266 c 0,5.933 -4.808,10.742 -10.742,10.742 -5.929,0 -10.738,-4.809 -10.738,-10.742 0,-5.934 4.809,-10.743 10.738,-10.743 5.934,0 10.742,4.809 10.742,10.743 z" /></g><g
         transform="matrix(0,1,1,0,0,0)"
         id="g274"><path
           id="path276"
           style="fill:none;stroke:#000000;stroke-width:1.841434;stroke-linecap:round;stroke-linejoin:round;stroke-miterlimit:4;stroke-dasharray:none;stroke-opacity:1"
           d="m 55.137,301.957 c 0,5.934 -4.809,10.742 -10.742,10.742 -5.93,0 -10.743,-4.808 -10.743,-10.742 0,-5.934 4.813,-10.742 10.743,-10.742 5.933,0 10.742,4.808 10.742,10.742 z" /></g><g
         transform="matrix(0,1,1,0,0,0)"
         id="g278"><path
           id="path280"
           style="fill:none;stroke:#000000;stroke-width:1.841434;stroke-linecap:round;stroke-linejoin:round;stroke-miterlimit:4;stroke-dasharray:none;stroke-opacity:1"
           d="m 177.898,240.574 c 0,5.934 -4.808,10.742 -10.742,10.742 -5.929,0 -10.738,-4.808 -10.738,-10.742 0,-5.929 4.809,-10.742 10.738,-10.742 5.934,0 10.742,4.813 10.742,10.742 z" /></g><g
         transform="matrix(0,1,1,0,0,0)"
         id="g282"><path
           id="path284"
           style="fill:none;stroke:#000000;stroke-width:1.841434;stroke-linecap:round;stroke-linejoin:round;stroke-miterlimit:4;stroke-dasharray:none;stroke-opacity:1"
           d="m 116.52,271.266 c 0,5.933 -4.809,10.742 -10.743,10.742 -5.933,0 -10.742,-4.809 -10.742,-10.742 0,-5.934 4.809,-10.743 10.742,-10.743 5.934,0 10.743,4.809 10.743,10.743 z" /></g><g
         transform="matrix(0,1,1,0,0,0)"
         id="g286"><path
           id="path288"
           style="fill:none;stroke:#000000;stroke-width:1.841434;stroke-linecap:round;stroke-linejoin:round;stroke-miterlimit:4;stroke-dasharray:none;stroke-opacity:1"
           d="m 116.52,363.336 c 0,5.934 -4.809,10.742 -10.743,10.742 -5.933,0 -10.742,-4.808 -10.742,-10.742 0,-5.93 4.809,-10.738 10.742,-10.738 5.934,0 10.743,4.808 10.743,10.738 z" /></g><g
         transform="matrix(0,1,1,0,0,0)"
         id="g290"><path
           id="path292"
           style="fill:none;stroke:#000000;stroke-width:1.841434;stroke-linecap:round;stroke-linejoin:round;stroke-miterlimit:4;stroke-dasharray:none;stroke-opacity:1"
           d="m 55.137,363.336 c 0,5.934 -4.809,10.742 -10.742,10.742 -5.93,0 -10.743,-4.808 -10.743,-10.742 0,-5.93 4.813,-10.738 10.743,-10.738 5.933,0 10.742,4.808 10.742,10.738 z" /></g><path
         id="path294"
         style="fill:#000000;fill-opacity:1;fill-rule:nonzero;stroke:none"
         d="m 355.027,42.152 v -0.535 h 4.938 v 0.535 h -1.152 l -0.954,-0.007 v 5.07 h -0.722 v -5.07 l -0.957,0.007 z" /><path
         id="path296"
         style="fill:#000000;fill-opacity:1;fill-rule:nonzero;stroke:none"
         d="m 361.035,47.215 v -5.637 h 1.996 c 0.539,0 1.008,0.129 1.399,0.383 0.398,0.258 0.703,0.609 0.918,1.059 0.215,0.445 0.324,0.918 0.324,1.418 0,0.753 -0.223,1.382 -0.668,1.89 -0.441,0.508 -0.965,0.797 -1.566,0.867 -0.086,0.012 -0.219,0.02 -0.391,0.02 z m 0.707,-0.457 h 1.16 c 0.68,0 1.207,-0.25 1.582,-0.746 0.321,-0.418 0.481,-0.942 0.481,-1.567 0,-0.687 -0.18,-1.261 -0.543,-1.718 -0.359,-0.465 -0.867,-0.696 -1.52,-0.696 h -1.16 z" /><path
         id="path298"
         style="fill:#000000;fill-opacity:1;fill-rule:nonzero;stroke:none"
         d="m 366.578,44.41 c 0,-0.84 0.25,-1.551 0.75,-2.133 0.504,-0.586 1.102,-0.879 1.793,-0.879 0.68,0 1.274,0.293 1.774,0.879 0.5,0.582 0.75,1.293 0.75,2.133 0,0.852 -0.254,1.559 -0.758,2.129 -0.508,0.566 -1.098,0.852 -1.774,0.852 -0.683,0 -1.277,-0.286 -1.781,-0.856 -0.504,-0.574 -0.754,-1.281 -0.754,-2.125 z m 1.266,-1.832 c -0.356,0.438 -0.535,1.008 -0.535,1.719 0,0.711 0.168,1.316 0.504,1.816 0.335,0.5 0.769,0.75 1.3,0.75 0.516,0 0.946,-0.246 1.289,-0.742 0.344,-0.496 0.52,-1.101 0.52,-1.824 0,-0.707 -0.18,-1.281 -0.535,-1.719 -0.36,-0.437 -0.782,-0.66 -1.274,-0.66 -0.488,0 -0.91,0.223 -1.269,0.66 z" /><path
         id="path300"
         style="fill:#000000;fill-opacity:1;fill-rule:nonzero;stroke:none"
         d="m 324.793,42.152 v -0.535 h 4.937 v 0.535 h -1.152 l -0.953,-0.007 v 5.07 h -0.723 v -5.07 l -0.957,0.007 z" /><path
         id="path302"
         style="fill:#000000;fill-opacity:1;fill-rule:nonzero;stroke:none"
         d="m 330.563,44.395 c 0,-0.446 0.078,-0.86 0.23,-1.243 0.156,-0.382 0.359,-0.699 0.605,-0.945 0.25,-0.254 0.524,-0.449 0.825,-0.594 0.297,-0.14 0.59,-0.215 0.882,-0.215 0.211,0 0.379,0.008 0.5,0.016 0.122,0.008 0.278,0.031 0.477,0.07 0.195,0.039 0.406,0.102 0.633,0.192 l -0.121,0.672 c -0.246,-0.145 -0.465,-0.254 -0.656,-0.321 -0.192,-0.07 -0.434,-0.109 -0.727,-0.109 -0.539,0 -0.996,0.242 -1.367,0.723 -0.367,0.48 -0.551,1.066 -0.551,1.754 0,0.691 0.184,1.277 0.555,1.761 0.375,0.477 0.836,0.715 1.386,0.715 0.106,0 0.204,-0.004 0.293,-0.012 0.094,-0.007 0.172,-0.015 0.235,-0.023 0.066,-0.008 0.14,-0.023 0.215,-0.051 0.078,-0.031 0.136,-0.051 0.175,-0.058 0.039,-0.012 0.094,-0.039 0.164,-0.082 0.075,-0.043 0.122,-0.071 0.141,-0.082 0.02,-0.012 0.07,-0.04 0.152,-0.09 0.082,-0.055 0.129,-0.086 0.145,-0.098 l 0.047,0.566 c -0.293,0.176 -0.543,0.293 -0.758,0.356 -0.207,0.062 -0.48,0.094 -0.816,0.094 -0.774,0 -1.411,-0.297 -1.914,-0.891 -0.5,-0.598 -0.75,-1.301 -0.75,-2.105 z" /><path
         id="path304"
         style="fill:#000000;fill-opacity:1;fill-rule:nonzero;stroke:none"
         d="m 335.988,47.215 v -5.637 h 0.696 v 3.012 l 2.949,-3.012 h 0.754 l -2.176,2.227 v 0.008 l 2.289,3.402 h -0.762 l -1.972,-2.949 -1.082,1.093 v 1.856 z" /><path
         id="path306"
         style="fill:#000000;fill-opacity:1;fill-rule:nonzero;stroke:none"
         d="m 294.688,42.152 v -0.535 h 4.937 v 0.535 h -1.152 l -0.953,-0.007 v 5.07 h -0.723 v -5.07 l -0.957,0.007 z" /><path
         id="path308"
         style="fill:#000000;fill-opacity:1;fill-rule:nonzero;stroke:none"
         d="m 300.695,47.215 v -5.637 h 1.832 c 0.387,0 0.731,0.051 1.028,0.152 0.297,0.098 0.523,0.227 0.679,0.387 0.164,0.16 0.282,0.321 0.356,0.488 0.074,0.165 0.113,0.325 0.113,0.485 0,0.312 -0.117,0.605 -0.355,0.875 -0.239,0.269 -0.582,0.469 -1.032,0.598 l 1.618,2.652 h -0.735 l -1.515,-2.567 h -1.282 v 2.567 z m 0.707,-3.07 h 1.071 c 0.566,0 0.972,-0.11 1.211,-0.321 0.242,-0.215 0.363,-0.457 0.363,-0.726 0,-0.121 -0.024,-0.235 -0.074,-0.348 -0.047,-0.117 -0.125,-0.227 -0.231,-0.34 -0.109,-0.109 -0.269,-0.199 -0.484,-0.273 -0.215,-0.071 -0.469,-0.106 -0.762,-0.106 h -1.094 z" /><path
         id="path310"
         style="fill:#000000;fill-opacity:1;fill-rule:nonzero;stroke:none"
         d="m 305.527,46.832 0.125,-0.672 c 0.567,0.449 1.149,0.672 1.735,0.672 0.351,0 0.64,-0.109 0.859,-0.324 0.219,-0.219 0.328,-0.469 0.328,-0.75 0,-0.211 -0.062,-0.406 -0.191,-0.578 -0.125,-0.18 -0.297,-0.309 -0.508,-0.395 -0.008,-0.004 -0.344,-0.094 -1.008,-0.269 -0.328,-0.086 -0.621,-0.262 -0.871,-0.532 -0.25,-0.265 -0.375,-0.593 -0.375,-0.984 0,-0.418 0.168,-0.789 0.508,-1.113 0.336,-0.324 0.777,-0.489 1.324,-0.489 0.508,0 1.004,0.133 1.485,0.391 l -0.11,0.676 c -0.226,-0.176 -0.437,-0.305 -0.637,-0.391 -0.195,-0.086 -0.445,-0.129 -0.746,-0.129 -0.351,0 -0.636,0.094 -0.855,0.289 -0.215,0.188 -0.324,0.414 -0.324,0.668 0,0.192 0.062,0.364 0.183,0.52 0.125,0.156 0.281,0.273 0.469,0.348 0.074,0.035 0.273,0.085 0.59,0.164 0.316,0.074 0.527,0.132 0.629,0.179 0.301,0.125 0.554,0.325 0.765,0.598 0.215,0.273 0.321,0.594 0.321,0.969 0,0.457 -0.172,0.859 -0.516,1.199 -0.344,0.344 -0.781,0.512 -1.32,0.512 -0.649,0 -1.27,-0.188 -1.86,-0.559 z" /><path
         id="path312"
         style="fill:#000000;fill-opacity:1;fill-rule:nonzero;stroke:none"
         d="m 355.141,72.844 v -0.535 h 4.937 v 0.535 h -1.152 l -0.953,-0.008 v 5.066 h -0.723 v -5.066 l -0.957,0.008 z" /><path
         id="path314"
         style="fill:#000000;fill-opacity:1;fill-rule:nonzero;stroke:none"
         d="M 361.188,77.902 V 72.27 h 0.925 l 1.254,3.253 c 0.344,0.942 0.531,1.489 0.559,1.633 h 0.008 c 0.023,-0.187 0.207,-0.73 0.55,-1.625 l 1.254,-3.261 h 0.93 v 5.632 h -0.633 v -4.804 l -0.008,-0.262 -0.082,0.301 -0.488,1.332 -1.246,3.258 h -0.586 l -1.219,-3.161 c -0.347,-0.941 -0.539,-1.519 -0.582,-1.73 v 5.066 z" /><path
         id="path316"
         style="fill:#000000;fill-opacity:1;fill-rule:nonzero;stroke:none"
         d="m 367.836,77.523 0.125,-0.675 c 0.566,0.449 1.148,0.675 1.738,0.675 0.352,0 0.637,-0.109 0.856,-0.324 0.218,-0.219 0.328,-0.469 0.328,-0.75 0,-0.211 -0.063,-0.406 -0.192,-0.578 -0.125,-0.18 -0.293,-0.308 -0.507,-0.394 -0.008,-0.004 -0.344,-0.094 -1.004,-0.27 -0.332,-0.086 -0.621,-0.266 -0.875,-0.531 -0.25,-0.266 -0.375,-0.598 -0.375,-0.988 0,-0.418 0.168,-0.786 0.508,-1.11 0.335,-0.324 0.777,-0.488 1.324,-0.488 0.508,0 1.004,0.129 1.484,0.39 l -0.109,0.672 c -0.227,-0.172 -0.438,-0.304 -0.633,-0.386 -0.199,-0.09 -0.445,-0.133 -0.75,-0.133 -0.352,0 -0.637,0.097 -0.852,0.289 -0.218,0.191 -0.328,0.414 -0.328,0.672 0,0.191 0.063,0.363 0.184,0.519 0.125,0.157 0.281,0.274 0.469,0.348 0.074,0.031 0.273,0.086 0.589,0.164 0.317,0.074 0.528,0.133 0.629,0.18 0.301,0.121 0.555,0.32 0.766,0.597 0.215,0.274 0.32,0.594 0.32,0.965 0,0.461 -0.172,0.863 -0.511,1.203 -0.344,0.34 -0.786,0.512 -1.321,0.512 -0.652,0 -1.273,-0.187 -1.863,-0.559 z" /><path
         id="path318"
         style="fill:#000000;fill-opacity:1;fill-rule:nonzero;stroke:none"
         d="m 326.348,72.844 v -0.535 h 4.937 v 0.535 h -1.152 l -0.953,-0.008 v 5.066 h -0.723 v -5.066 l -0.957,0.008 z" /><path
         id="path320"
         style="fill:#000000;fill-opacity:1;fill-rule:nonzero;stroke:none"
         d="M 332.355,77.902 V 72.27 h 1.997 c 0.539,0 1.007,0.125 1.398,0.378 0.395,0.262 0.703,0.614 0.914,1.059 0.219,0.449 0.328,0.922 0.328,1.422 0,0.754 -0.222,1.383 -0.668,1.891 -0.445,0.507 -0.965,0.796 -1.566,0.867 -0.086,0.011 -0.219,0.015 -0.391,0.015 z m 0.708,-0.453 h 1.16 c 0.675,0 1.203,-0.25 1.582,-0.746 0.32,-0.418 0.48,-0.941 0.48,-1.566 0,-0.688 -0.18,-1.262 -0.543,-1.723 -0.359,-0.461 -0.867,-0.691 -1.519,-0.691 h -1.16 z" /><path
         id="path322"
         style="fill:#000000;fill-opacity:1;fill-rule:nonzero;stroke:none"
         d="m 338.215,72.27 h 0.73 v 5.633 h -0.73 z" /><path
         id="path324"
         style="fill:#000000;fill-opacity:1;fill-rule:nonzero;stroke:none"
         d="M 297.723,77.902 V 72.27 h 1.918 c 0.496,0 0.91,0.105 1.246,0.316 0.25,0.156 0.441,0.348 0.578,0.574 0.14,0.231 0.211,0.473 0.211,0.738 0,0.422 -0.172,0.809 -0.524,1.149 -0.347,0.344 -0.843,0.516 -1.48,0.516 -0.027,0 -0.07,0 -0.133,-0.004 -0.059,0 -0.105,-0.004 -0.137,-0.004 h -0.949 v 2.347 z m 0.707,-2.816 h 1.078 c 0.281,0 0.527,-0.039 0.738,-0.113 0.211,-0.075 0.367,-0.176 0.473,-0.305 0.101,-0.125 0.176,-0.254 0.226,-0.379 0.047,-0.133 0.075,-0.262 0.075,-0.391 0,-0.117 -0.024,-0.238 -0.067,-0.359 -0.043,-0.121 -0.117,-0.25 -0.215,-0.379 -0.097,-0.129 -0.254,-0.234 -0.465,-0.316 -0.21,-0.082 -0.464,-0.121 -0.765,-0.121 h -1.078 z" /><path
         id="path326"
         style="fill:#000000;fill-opacity:1;fill-rule:nonzero;stroke:none"
         d="m 302.492,77.523 0.125,-0.675 c 0.567,0.449 1.149,0.675 1.735,0.675 0.351,0 0.64,-0.109 0.859,-0.324 0.219,-0.219 0.328,-0.469 0.328,-0.75 0,-0.211 -0.062,-0.406 -0.191,-0.578 -0.125,-0.18 -0.297,-0.308 -0.508,-0.394 -0.008,-0.004 -0.344,-0.094 -1.008,-0.27 -0.328,-0.086 -0.621,-0.266 -0.871,-0.531 -0.25,-0.266 -0.375,-0.598 -0.375,-0.988 0,-0.418 0.168,-0.786 0.508,-1.11 0.336,-0.324 0.777,-0.488 1.324,-0.488 0.508,0 1.004,0.129 1.484,0.39 l -0.109,0.672 c -0.227,-0.172 -0.438,-0.304 -0.637,-0.386 -0.195,-0.09 -0.445,-0.133 -0.746,-0.133 -0.351,0 -0.637,0.097 -0.855,0.289 -0.215,0.191 -0.325,0.414 -0.325,0.672 0,0.191 0.063,0.363 0.184,0.519 0.125,0.157 0.281,0.274 0.469,0.348 0.074,0.031 0.273,0.086 0.59,0.164 0.316,0.074 0.527,0.133 0.629,0.18 0.3,0.121 0.554,0.32 0.765,0.597 0.215,0.274 0.321,0.594 0.321,0.965 0,0.461 -0.172,0.863 -0.516,1.203 -0.344,0.34 -0.781,0.512 -1.32,0.512 -0.649,0 -1.27,-0.187 -1.86,-0.559 z" /><path
         id="path328"
         style="fill:#000000;fill-opacity:1;fill-rule:nonzero;stroke:none"
         d="M 264.574,77.902 V 72.27 h 1.832 c 0.391,0 0.731,0.05 1.028,0.152 0.296,0.098 0.523,0.226 0.683,0.387 0.16,0.16 0.278,0.32 0.352,0.488 0.078,0.164 0.113,0.324 0.113,0.484 0,0.313 -0.117,0.606 -0.355,0.875 -0.239,0.27 -0.582,0.469 -1.032,0.598 l 1.618,2.648 h -0.735 l -1.515,-2.562 h -1.282 v 2.562 z m 0.707,-3.066 h 1.071 c 0.566,0 0.972,-0.109 1.214,-0.324 0.239,-0.211 0.36,-0.453 0.36,-0.723 0,-0.121 -0.024,-0.238 -0.071,-0.351 -0.05,-0.114 -0.128,-0.223 -0.234,-0.336 -0.109,-0.11 -0.269,-0.204 -0.484,-0.274 -0.215,-0.07 -0.469,-0.105 -0.762,-0.105 h -1.094 z" /><path
         id="path330"
         style="fill:#000000;fill-opacity:1;fill-rule:nonzero;stroke:none"
         d="m 269.816,77.902 v -5.609 h 3.629 v 0.535 h -0.465 l -0.203,-0.008 h -1.945 l -0.285,-0.007 v 1.921 h 2.68 v 0.496 h -2.68 v 2.106 h 0.687 l 0.196,-0.008 h 1.574 l 0.18,-0.008 h 0.375 v 0.582 z" /><path
         id="path332"
         style="fill:#000000;fill-opacity:1;fill-rule:nonzero;stroke:none"
         d="m 274.262,77.523 0.121,-0.675 c 0.57,0.449 1.148,0.675 1.738,0.675 0.352,0 0.637,-0.109 0.856,-0.324 0.218,-0.219 0.328,-0.469 0.328,-0.75 0,-0.211 -0.063,-0.406 -0.188,-0.578 -0.129,-0.18 -0.297,-0.308 -0.508,-0.394 -0.011,-0.004 -0.347,-0.094 -1.007,-0.27 -0.332,-0.086 -0.622,-0.266 -0.872,-0.531 -0.253,-0.266 -0.378,-0.598 -0.378,-0.988 0,-0.418 0.171,-0.786 0.507,-1.11 0.34,-0.324 0.782,-0.488 1.325,-0.488 0.511,0 1.007,0.129 1.488,0.39 l -0.113,0.672 c -0.227,-0.172 -0.438,-0.304 -0.633,-0.386 -0.196,-0.09 -0.446,-0.133 -0.75,-0.133 -0.352,0 -0.637,0.097 -0.852,0.289 -0.219,0.191 -0.324,0.414 -0.324,0.672 0,0.191 0.059,0.363 0.18,0.519 0.125,0.157 0.281,0.274 0.468,0.348 0.079,0.031 0.274,0.086 0.59,0.164 0.321,0.074 0.528,0.133 0.633,0.18 0.297,0.121 0.555,0.32 0.766,0.597 0.215,0.274 0.32,0.594 0.32,0.965 0,0.461 -0.172,0.863 -0.516,1.203 -0.343,0.34 -0.785,0.512 -1.32,0.512 -0.652,0 -1.269,-0.187 -1.859,-0.559 z" /><path
         id="path334"
         style="fill:#000000;fill-opacity:1;fill-rule:nonzero;stroke:none"
         d="m 356.527,108.504 v -5.633 h 1.832 c 0.391,0 0.731,0.051 1.028,0.149 0.297,0.097 0.523,0.23 0.683,0.39 0.16,0.16 0.278,0.32 0.352,0.488 0.074,0.165 0.113,0.325 0.113,0.485 0,0.312 -0.117,0.605 -0.355,0.875 -0.239,0.269 -0.582,0.469 -1.032,0.597 l 1.618,2.649 h -0.735 l -1.515,-2.563 h -1.282 v 2.563 z m 0.707,-3.066 h 1.071 c 0.566,0 0.972,-0.11 1.211,-0.325 0.242,-0.211 0.363,-0.453 0.363,-0.722 0,-0.121 -0.024,-0.239 -0.07,-0.352 -0.051,-0.113 -0.129,-0.226 -0.235,-0.336 -0.109,-0.109 -0.269,-0.203 -0.484,-0.273 -0.215,-0.071 -0.469,-0.106 -0.762,-0.106 h -1.094 z" /><path
         id="path336"
         style="fill:#000000;fill-opacity:1;fill-rule:nonzero;stroke:none"
         d="m 361.121,108.504 2.176,-2.965 v -0.008 l -2.067,-2.66 h 0.852 l 1.57,2.117 1.528,-2.117 h 0.777 l -1.957,2.66 v 0.008 l 2.297,2.965 h -0.852 l -1.793,-2.477 -1.757,2.477 z" /><path
         id="path338"
         style="fill:#000000;fill-opacity:1;fill-rule:nonzero;stroke:none"
         d="m 366.762,105.988 v -0.14 c 0,-0.211 0.004,-0.395 0.011,-0.551 0.008,-0.156 0.032,-0.363 0.075,-0.617 0.047,-0.262 0.105,-0.481 0.179,-0.66 0.078,-0.18 0.192,-0.36 0.348,-0.536 0.16,-0.175 0.348,-0.304 0.563,-0.386 0.167,-0.067 0.339,-0.102 0.511,-0.102 0.153,0 0.297,0.024 0.438,0.067 0.14,0.039 0.293,0.117 0.449,0.242 0.156,0.121 0.293,0.277 0.41,0.465 0.117,0.191 0.211,0.453 0.285,0.785 0.078,0.336 0.117,0.715 0.117,1.148 v 0.168 c 0,0.207 -0.003,0.391 -0.011,0.555 -0.008,0.164 -0.035,0.367 -0.082,0.621 -0.039,0.246 -0.102,0.461 -0.18,0.644 -0.078,0.18 -0.195,0.356 -0.355,0.528 -0.157,0.168 -0.34,0.297 -0.559,0.379 -0.18,0.058 -0.348,0.09 -0.512,0.086 -0.148,0 -0.293,-0.02 -0.433,-0.059 -0.141,-0.039 -0.289,-0.113 -0.45,-0.23 -0.16,-0.118 -0.296,-0.27 -0.41,-0.457 -0.113,-0.192 -0.207,-0.454 -0.285,-0.79 -0.074,-0.335 -0.109,-0.722 -0.109,-1.16 z m 0.633,0 c 0,0.36 0.023,0.68 0.074,0.953 0.047,0.274 0.109,0.489 0.176,0.645 0.074,0.152 0.16,0.277 0.257,0.371 0.102,0.098 0.196,0.156 0.278,0.188 0.09,0.027 0.179,0.043 0.277,0.043 0.125,0 0.242,-0.028 0.352,-0.083 0.105,-0.058 0.218,-0.16 0.332,-0.3 0.113,-0.145 0.203,-0.371 0.269,-0.684 0.07,-0.312 0.102,-0.691 0.102,-1.141 v -0.48 c 0,-0.414 -0.032,-0.758 -0.102,-1.039 -0.066,-0.281 -0.156,-0.484 -0.273,-0.613 -0.117,-0.133 -0.231,-0.223 -0.336,-0.27 -0.11,-0.051 -0.227,-0.078 -0.352,-0.078 -0.125,0 -0.238,0.027 -0.347,0.078 -0.11,0.047 -0.219,0.137 -0.332,0.27 -0.114,0.129 -0.207,0.336 -0.274,0.621 -0.066,0.281 -0.101,0.625 -0.101,1.031 z" /><path
         id="path340"
         style="fill:#000000;fill-opacity:1;fill-rule:nonzero;stroke:none"
         d="m 325.457,103.445 v -0.535 h 4.938 v 0.535 h -1.153 l -0.953,-0.007 v 5.066 h -0.723 v -5.066 l -0.957,0.007 z" /><path
         id="path342"
         style="fill:#000000;fill-opacity:1;fill-rule:nonzero;stroke:none"
         d="m 330.809,108.504 2.175,-2.965 v -0.008 l -2.066,-2.66 h 0.852 l 1.57,2.117 1.527,-2.117 h 0.778 l -1.954,2.66 v 0.008 l 2.293,2.965 h -0.851 l -1.793,-2.477 -1.754,2.477 z" /><path
         id="path344"
         style="fill:#000000;fill-opacity:1;fill-rule:nonzero;stroke:none"
         d="m 336.449,105.988 v -0.14 c 0,-0.211 0.004,-0.395 0.012,-0.551 0.008,-0.156 0.035,-0.363 0.074,-0.617 0.047,-0.262 0.106,-0.481 0.18,-0.66 0.078,-0.18 0.191,-0.36 0.348,-0.536 0.16,-0.175 0.347,-0.304 0.566,-0.386 0.164,-0.067 0.336,-0.102 0.508,-0.102 0.152,0 0.297,0.024 0.437,0.067 0.145,0.039 0.293,0.117 0.449,0.242 0.157,0.121 0.297,0.277 0.411,0.465 0.117,0.191 0.211,0.453 0.285,0.785 0.078,0.336 0.117,0.715 0.117,1.148 v 0.168 c 0,0.207 -0.004,0.391 -0.012,0.555 -0.008,0.164 -0.035,0.367 -0.078,0.621 -0.043,0.246 -0.105,0.461 -0.183,0.644 -0.079,0.18 -0.196,0.356 -0.352,0.528 -0.156,0.168 -0.344,0.297 -0.563,0.379 -0.179,0.058 -0.347,0.09 -0.511,0.086 -0.149,0 -0.293,-0.02 -0.434,-0.059 -0.137,-0.039 -0.289,-0.113 -0.449,-0.23 -0.16,-0.118 -0.293,-0.27 -0.406,-0.457 -0.118,-0.192 -0.211,-0.454 -0.289,-0.79 -0.071,-0.335 -0.11,-0.722 -0.11,-1.16 z m 0.633,0 c 0,0.36 0.027,0.68 0.074,0.953 0.051,0.274 0.11,0.489 0.176,0.645 0.074,0.152 0.16,0.277 0.258,0.371 0.101,0.098 0.195,0.156 0.277,0.188 0.09,0.027 0.18,0.043 0.278,0.043 0.125,0 0.242,-0.028 0.351,-0.083 0.109,-0.058 0.219,-0.16 0.332,-0.3 0.113,-0.145 0.203,-0.371 0.27,-0.684 0.07,-0.312 0.101,-0.691 0.101,-1.141 v -0.48 c 0,-0.414 -0.031,-0.758 -0.101,-1.039 -0.067,-0.281 -0.157,-0.484 -0.274,-0.613 -0.117,-0.133 -0.226,-0.223 -0.336,-0.27 -0.109,-0.051 -0.226,-0.078 -0.351,-0.078 -0.121,0 -0.239,0.027 -0.348,0.078 -0.109,0.047 -0.219,0.137 -0.332,0.27 -0.113,0.129 -0.207,0.336 -0.273,0.621 -0.067,0.281 -0.102,0.625 -0.102,1.031 z" /><path
         id="path346"
         style="fill:#000000;fill-opacity:1;fill-rule:nonzero;stroke:none"
         d="M 294.902,103.535 V 103 h 4.938 v 0.535 h -1.156 l -0.95,-0.008 v 5.067 h -0.722 v -5.067 l -0.961,0.008 z" /><path
         id="path348"
         style="fill:#000000;fill-opacity:1;fill-rule:nonzero;stroke:none"
         d="m 300.25,108.594 2.18,-2.965 v -0.008 l -2.067,-2.66 h 0.852 l 1.57,2.117 1.528,-2.117 h 0.777 l -1.957,2.66 v 0.008 l 2.297,2.965 h -0.852 l -1.793,-2.477 -1.758,2.477 z" /><path
         id="path350"
         style="fill:#000000;fill-opacity:1;fill-rule:nonzero;stroke:none"
         d="m 306.289,104.094 v -0.469 c 0.652,0 1.168,-0.18 1.551,-0.539 h 0.156 v 5.027 h 1.016 v 0.481 h -2.68 v -0.481 h 1.016 v -4.207 c -0.321,0.125 -0.676,0.188 -1.059,0.188 z" /><path
         id="path352"
         style="fill:#000000;fill-opacity:1;fill-rule:nonzero;stroke:none"
         d="m 264.59,108.594 v -5.633 h 1.832 c 0.391,0 0.73,0.051 1.027,0.148 0.297,0.098 0.524,0.231 0.684,0.391 0.16,0.156 0.277,0.32 0.351,0.488 0.079,0.164 0.114,0.325 0.114,0.481 0,0.316 -0.118,0.609 -0.356,0.879 -0.238,0.269 -0.582,0.468 -1.031,0.597 l 1.617,2.649 h -0.73 l -1.52,-2.567 h -1.281 v 2.567 z m 0.707,-3.071 h 1.07 c 0.567,0 0.973,-0.105 1.215,-0.32 0.238,-0.215 0.359,-0.453 0.359,-0.726 0,-0.118 -0.023,-0.235 -0.07,-0.348 -0.047,-0.113 -0.125,-0.227 -0.234,-0.336 -0.11,-0.113 -0.27,-0.203 -0.485,-0.273 -0.214,-0.071 -0.468,-0.11 -0.761,-0.11 h -1.094 z" /><path
         id="path354"
         style="fill:#000000;fill-opacity:1;fill-rule:nonzero;stroke:none"
         d="m 269.184,108.594 2.175,-2.965 v -0.008 l -2.066,-2.66 h 0.852 l 1.57,2.117 1.527,-2.117 h 0.778 l -1.954,2.66 v 0.008 l 2.293,2.965 h -0.851 l -1.793,-2.477 -1.754,2.477 z" /><path
         id="path356"
         style="fill:#000000;fill-opacity:1;fill-rule:nonzero;stroke:none"
         d="m 275.223,104.094 v -0.469 c 0.648,0 1.164,-0.18 1.547,-0.539 h 0.156 v 5.027 h 1.015 v 0.481 h -2.675 v -0.481 h 1.015 v -4.207 c -0.324,0.125 -0.676,0.188 -1.058,0.188 z" /><path
         id="path358"
         style="fill:#000000;fill-opacity:1;fill-rule:nonzero;stroke:none"
         d="m 233.801,108.594 v -5.633 h 1.832 c 0.39,0 0.73,0.051 1.027,0.148 0.297,0.098 0.524,0.231 0.684,0.391 0.16,0.156 0.277,0.32 0.351,0.488 0.075,0.164 0.114,0.325 0.114,0.481 0,0.316 -0.118,0.609 -0.356,0.879 -0.238,0.269 -0.582,0.468 -1.031,0.597 l 1.617,2.649 h -0.734 l -1.516,-2.567 h -1.281 v 2.567 z m 0.707,-3.071 h 1.07 c 0.567,0 0.973,-0.105 1.211,-0.32 0.242,-0.215 0.363,-0.453 0.363,-0.726 0,-0.118 -0.023,-0.235 -0.07,-0.348 -0.051,-0.113 -0.129,-0.227 -0.234,-0.336 -0.11,-0.113 -0.27,-0.203 -0.485,-0.273 -0.215,-0.071 -0.468,-0.11 -0.761,-0.11 h -1.094 z" /><path
         id="path360"
         style="fill:#000000;fill-opacity:1;fill-rule:nonzero;stroke:none"
         d="m 238.395,108.594 2.175,-2.965 v -0.008 l -2.066,-2.66 h 0.851 l 1.571,2.117 1.527,-2.117 h 0.777 l -1.957,2.66 v 0.008 l 2.297,2.965 h -0.851 l -1.793,-2.477 -1.758,2.477 z" /><path
         id="path362"
         style="fill:#000000;fill-opacity:1;fill-rule:nonzero;stroke:none"
         d="m 244.035,104.418 c 0.266,-0.887 0.789,-1.332 1.574,-1.332 0.52,0 0.942,0.172 1.262,0.516 0.32,0.339 0.477,0.75 0.477,1.226 0,0.192 -0.024,0.363 -0.078,0.52 -0.051,0.156 -0.149,0.32 -0.301,0.5 -0.149,0.172 -0.278,0.316 -0.391,0.422 -0.117,0.109 -0.308,0.285 -0.586,0.527 -0.144,0.129 -0.582,0.539 -1.308,1.23 l 2.664,-0.007 v 0.574 h -3.25 v -0.528 l 1.058,-1.046 c 0.043,-0.043 0.137,-0.129 0.278,-0.258 0.144,-0.133 0.242,-0.219 0.289,-0.266 0.047,-0.047 0.129,-0.129 0.246,-0.246 0.117,-0.117 0.195,-0.203 0.238,-0.266 0.047,-0.062 0.109,-0.148 0.188,-0.254 0.078,-0.105 0.132,-0.199 0.156,-0.277 0.027,-0.082 0.054,-0.176 0.082,-0.281 0.027,-0.106 0.043,-0.211 0.043,-0.32 0,-0.348 -0.11,-0.641 -0.328,-0.875 -0.223,-0.239 -0.5,-0.36 -0.844,-0.36 -0.184,0 -0.348,0.043 -0.492,0.129 -0.145,0.082 -0.254,0.184 -0.328,0.305 -0.071,0.121 -0.129,0.242 -0.176,0.363 -0.047,0.121 -0.078,0.227 -0.094,0.313 l -0.031,0.14 z" /><path
         id="path364"
         style="fill:#000000;fill-opacity:1;fill-rule:nonzero;stroke:none"
         d="m 354.141,136.465 c 0,-0.445 0.078,-0.856 0.23,-1.242 0.156,-0.383 0.359,-0.7 0.606,-0.946 0.25,-0.25 0.523,-0.449 0.82,-0.589 0.301,-0.145 0.594,-0.215 0.887,-0.215 0.211,0 0.375,0.004 0.5,0.011 0.121,0.008 0.277,0.032 0.472,0.071 0.196,0.039 0.41,0.105 0.637,0.191 l -0.125,0.672 c -0.242,-0.145 -0.461,-0.25 -0.652,-0.32 -0.196,-0.071 -0.434,-0.106 -0.727,-0.106 -0.543,0 -0.996,0.238 -1.367,0.723 -0.367,0.48 -0.551,1.062 -0.551,1.75 0,0.691 0.184,1.281 0.555,1.762 0.371,0.476 0.836,0.718 1.387,0.718 0.105,0 0.203,-0.004 0.292,-0.011 0.094,-0.012 0.172,-0.02 0.235,-0.028 0.066,-0.008 0.137,-0.023 0.215,-0.051 0.078,-0.027 0.136,-0.046 0.175,-0.058 0.04,-0.012 0.094,-0.035 0.165,-0.078 0.074,-0.047 0.121,-0.074 0.14,-0.086 0.02,-0.008 0.067,-0.039 0.149,-0.09 0.082,-0.051 0.132,-0.086 0.148,-0.094 l 0.047,0.567 c -0.293,0.172 -0.547,0.293 -0.758,0.351 -0.207,0.063 -0.48,0.098 -0.816,0.098 -0.774,0 -1.414,-0.301 -1.914,-0.895 -0.5,-0.597 -0.75,-1.297 -0.75,-2.105 z" /><path
         id="path366"
         style="fill:#000000;fill-opacity:1;fill-rule:nonzero;stroke:none"
         d="m 359.078,134.227 v -0.536 h 4.934 v 0.536 h -1.153 l -0.953,-0.008 v 5.066 h -0.718 v -5.066 l -0.961,0.008 z" /><path
         id="path368"
         style="fill:#000000;fill-opacity:1;fill-rule:nonzero;stroke:none"
         d="m 364.668,138.902 0.121,-0.672 c 0.57,0.45 1.149,0.672 1.738,0.672 0.352,0 0.637,-0.105 0.856,-0.324 0.219,-0.215 0.328,-0.465 0.328,-0.75 0,-0.211 -0.063,-0.402 -0.188,-0.578 -0.128,-0.176 -0.296,-0.309 -0.507,-0.391 -0.012,-0.007 -0.348,-0.097 -1.008,-0.269 -0.332,-0.09 -0.621,-0.266 -0.871,-0.531 -0.254,-0.27 -0.379,-0.598 -0.379,-0.989 0,-0.418 0.172,-0.789 0.508,-1.109 0.339,-0.328 0.781,-0.488 1.324,-0.488 0.512,0 1.008,0.129 1.488,0.386 l -0.113,0.676 c -0.227,-0.176 -0.438,-0.305 -0.633,-0.39 -0.195,-0.086 -0.445,-0.129 -0.75,-0.129 -0.352,0 -0.637,0.097 -0.852,0.289 -0.218,0.191 -0.324,0.414 -0.324,0.672 0,0.187 0.059,0.363 0.18,0.515 0.125,0.156 0.281,0.274 0.469,0.352 0.078,0.031 0.273,0.086 0.59,0.16 0.32,0.074 0.527,0.137 0.632,0.18 0.297,0.125 0.555,0.324 0.766,0.597 0.215,0.274 0.32,0.598 0.32,0.969 0,0.461 -0.172,0.859 -0.515,1.203 -0.344,0.34 -0.785,0.512 -1.321,0.512 -0.648,0 -1.269,-0.188 -1.859,-0.563 z" /><path
         id="path370"
         style="fill:#000000;fill-opacity:1;fill-rule:nonzero;stroke:none"
         d="m 369.148,136.766 v -0.137 c 0,-0.211 0.004,-0.395 0.012,-0.551 0.008,-0.156 0.031,-0.363 0.074,-0.621 0.047,-0.258 0.106,-0.477 0.18,-0.656 0.078,-0.184 0.191,-0.363 0.348,-0.535 0.16,-0.18 0.347,-0.309 0.562,-0.391 0.168,-0.066 0.34,-0.098 0.512,-0.098 0.152,0 0.297,0.02 0.437,0.063 0.145,0.039 0.293,0.121 0.45,0.242 0.156,0.121 0.293,0.277 0.41,0.469 0.117,0.191 0.211,0.453 0.285,0.785 0.078,0.332 0.117,0.715 0.117,1.144 v 0.172 c 0,0.207 -0.004,0.391 -0.012,0.555 -0.007,0.16 -0.035,0.367 -0.082,0.617 -0.039,0.25 -0.101,0.465 -0.179,0.649 -0.078,0.179 -0.196,0.355 -0.356,0.527 -0.156,0.168 -0.34,0.293 -0.558,0.375 -0.18,0.063 -0.348,0.09 -0.512,0.09 -0.148,0 -0.293,-0.024 -0.434,-0.063 -0.14,-0.035 -0.289,-0.113 -0.449,-0.23 -0.16,-0.113 -0.293,-0.266 -0.41,-0.453 -0.113,-0.192 -0.207,-0.453 -0.285,-0.789 -0.074,-0.336 -0.11,-0.723 -0.11,-1.164 z m 0.633,0 c 0,0.363 0.024,0.683 0.074,0.957 0.047,0.273 0.11,0.484 0.176,0.64 0.074,0.157 0.16,0.278 0.258,0.375 0.102,0.094 0.195,0.157 0.277,0.184 0.09,0.031 0.18,0.047 0.278,0.047 0.125,0 0.242,-0.028 0.351,-0.086 0.106,-0.059 0.219,-0.156 0.332,-0.301 0.114,-0.141 0.203,-0.371 0.27,-0.68 0.07,-0.312 0.101,-0.695 0.101,-1.144 v -0.481 c 0,-0.41 -0.031,-0.757 -0.101,-1.035 -0.067,-0.281 -0.156,-0.488 -0.274,-0.617 -0.117,-0.133 -0.23,-0.223 -0.335,-0.27 -0.11,-0.05 -0.227,-0.074 -0.352,-0.074 -0.121,0 -0.238,0.024 -0.348,0.074 -0.109,0.047 -0.218,0.137 -0.332,0.27 -0.113,0.129 -0.207,0.336 -0.273,0.625 -0.067,0.281 -0.102,0.625 -0.102,1.027 z" /><path
         id="path372"
         style="fill:#000000;fill-opacity:1;fill-rule:nonzero;stroke:none"
         d="m 323.539,139.285 v -5.637 h 1.832 c 0.387,0 0.731,0.051 1.024,0.153 0.296,0.097 0.523,0.226 0.683,0.39 0.16,0.157 0.277,0.321 0.352,0.485 0.078,0.164 0.117,0.328 0.117,0.484 0,0.317 -0.121,0.61 -0.359,0.879 -0.235,0.27 -0.579,0.469 -1.028,0.598 l 1.617,2.648 h -0.734 l -1.52,-2.566 h -1.281 v 2.566 z m 0.703,-3.07 h 1.071 c 0.57,0 0.972,-0.106 1.214,-0.32 0.243,-0.215 0.36,-0.457 0.36,-0.727 0,-0.117 -0.024,-0.234 -0.071,-0.348 -0.046,-0.113 -0.125,-0.226 -0.234,-0.336 -0.109,-0.113 -0.269,-0.203 -0.484,-0.273 -0.211,-0.074 -0.465,-0.109 -0.762,-0.109 h -1.094 z" /><path
         id="path374"
         style="fill:#000000;fill-opacity:1;fill-rule:nonzero;stroke:none"
         d="m 328.301,134.227 v -0.536 h 4.933 v 0.536 h -1.152 l -0.953,-0.008 v 5.066 h -0.719 v -5.066 l -0.961,0.008 z" /><path
         id="path376"
         style="fill:#000000;fill-opacity:1;fill-rule:nonzero;stroke:none"
         d="m 333.891,138.902 0.121,-0.672 c 0.57,0.45 1.148,0.672 1.738,0.672 0.352,0 0.637,-0.105 0.855,-0.324 0.219,-0.215 0.329,-0.465 0.329,-0.75 0,-0.211 -0.063,-0.402 -0.188,-0.578 -0.129,-0.176 -0.297,-0.309 -0.508,-0.391 -0.011,-0.007 -0.347,-0.097 -1.008,-0.269 -0.332,-0.09 -0.621,-0.266 -0.871,-0.531 -0.254,-0.27 -0.379,-0.598 -0.379,-0.989 0,-0.418 0.168,-0.789 0.508,-1.109 0.34,-0.328 0.782,-0.488 1.325,-0.488 0.511,0 1.007,0.129 1.488,0.386 l -0.113,0.676 c -0.227,-0.176 -0.438,-0.305 -0.633,-0.39 -0.196,-0.086 -0.446,-0.129 -0.75,-0.129 -0.352,0 -0.637,0.097 -0.852,0.289 -0.219,0.191 -0.324,0.414 -0.324,0.672 0,0.187 0.059,0.363 0.18,0.515 0.125,0.156 0.281,0.274 0.468,0.352 0.078,0.031 0.274,0.086 0.59,0.16 0.321,0.074 0.528,0.137 0.633,0.18 0.297,0.125 0.551,0.324 0.766,0.597 0.211,0.274 0.32,0.598 0.32,0.969 0,0.461 -0.172,0.859 -0.516,1.203 -0.343,0.34 -0.785,0.512 -1.32,0.512 -0.652,0 -1.27,-0.188 -1.859,-0.563 z" /><path
         id="path378"
         style="fill:#000000;fill-opacity:1;fill-rule:nonzero;stroke:none"
         d="m 338.371,136.766 v -0.137 c 0,-0.211 0.004,-0.395 0.012,-0.551 0.008,-0.156 0.031,-0.363 0.074,-0.621 0.047,-0.258 0.106,-0.477 0.18,-0.656 0.074,-0.184 0.191,-0.363 0.347,-0.535 0.161,-0.18 0.348,-0.309 0.563,-0.391 0.168,-0.066 0.34,-0.098 0.512,-0.098 0.152,0 0.296,0.02 0.437,0.063 0.141,0.039 0.293,0.121 0.449,0.242 0.157,0.121 0.293,0.277 0.41,0.469 0.118,0.191 0.211,0.453 0.286,0.785 0.078,0.332 0.117,0.715 0.117,1.144 v 0.172 c 0,0.207 -0.004,0.391 -0.012,0.555 -0.008,0.16 -0.035,0.367 -0.082,0.617 -0.043,0.25 -0.101,0.465 -0.18,0.649 -0.078,0.179 -0.195,0.355 -0.355,0.527 -0.156,0.168 -0.34,0.293 -0.559,0.375 -0.179,0.063 -0.347,0.09 -0.511,0.09 -0.149,0 -0.297,-0.024 -0.434,-0.063 -0.141,-0.035 -0.289,-0.113 -0.449,-0.23 -0.16,-0.113 -0.297,-0.266 -0.41,-0.453 -0.114,-0.192 -0.207,-0.453 -0.286,-0.789 -0.074,-0.336 -0.109,-0.723 -0.109,-1.164 z m 0.633,0 c 0,0.363 0.023,0.683 0.07,0.957 0.051,0.273 0.114,0.484 0.18,0.64 0.07,0.157 0.156,0.278 0.258,0.375 0.101,0.094 0.195,0.157 0.277,0.184 0.09,0.031 0.18,0.047 0.277,0.047 0.125,0 0.243,-0.028 0.352,-0.086 0.105,-0.059 0.219,-0.156 0.332,-0.301 0.113,-0.141 0.203,-0.371 0.27,-0.68 0.066,-0.312 0.101,-0.695 0.101,-1.144 v -0.481 c 0,-0.41 -0.035,-0.757 -0.101,-1.035 -0.067,-0.281 -0.157,-0.488 -0.274,-0.617 -0.117,-0.133 -0.23,-0.223 -0.336,-0.27 -0.109,-0.05 -0.226,-0.074 -0.351,-0.074 -0.125,0 -0.239,0.024 -0.348,0.074 -0.109,0.047 -0.219,0.137 -0.332,0.27 -0.113,0.129 -0.207,0.336 -0.274,0.625 -0.066,0.281 -0.101,0.625 -0.101,1.027 z" /><path
         id="path380"
         style="fill:#000000;fill-opacity:1;fill-rule:nonzero;stroke:none"
         d="m 292.895,136.465 c 0,-0.442 0.078,-0.856 0.23,-1.242 0.156,-0.383 0.359,-0.696 0.605,-0.946 0.25,-0.25 0.524,-0.449 0.821,-0.589 0.301,-0.145 0.594,-0.215 0.887,-0.215 0.21,0 0.375,0.004 0.5,0.011 0.121,0.008 0.277,0.032 0.472,0.071 0.195,0.039 0.41,0.105 0.637,0.191 l -0.125,0.672 c -0.242,-0.145 -0.461,-0.25 -0.652,-0.32 -0.196,-0.071 -0.438,-0.106 -0.727,-0.106 -0.543,0 -0.996,0.238 -1.367,0.723 -0.367,0.48 -0.551,1.062 -0.551,1.75 0,0.691 0.184,1.281 0.555,1.762 0.371,0.476 0.836,0.718 1.386,0.718 0.106,0 0.204,-0.004 0.293,-0.011 0.094,-0.008 0.172,-0.02 0.235,-0.028 0.066,-0.008 0.136,-0.023 0.215,-0.051 0.078,-0.027 0.136,-0.046 0.175,-0.058 0.039,-0.012 0.094,-0.035 0.164,-0.078 0.075,-0.047 0.122,-0.074 0.141,-0.086 0.016,-0.008 0.066,-0.039 0.149,-0.09 0.082,-0.051 0.132,-0.086 0.148,-0.094 l 0.047,0.567 c -0.293,0.175 -0.547,0.293 -0.758,0.351 -0.207,0.063 -0.48,0.098 -0.816,0.098 -0.774,0 -1.414,-0.301 -1.914,-0.895 -0.5,-0.597 -0.75,-1.297 -0.75,-2.105 z" /><path
         id="path382"
         style="fill:#000000;fill-opacity:1;fill-rule:nonzero;stroke:none"
         d="m 297.832,134.227 v -0.536 h 4.934 v 0.536 h -1.153 l -0.953,-0.008 v 5.066 h -0.719 v -5.066 l -0.961,0.008 z" /><path
         id="path384"
         style="fill:#000000;fill-opacity:1;fill-rule:nonzero;stroke:none"
         d="m 303.422,138.902 0.121,-0.672 c 0.57,0.45 1.148,0.672 1.738,0.672 0.352,0 0.637,-0.105 0.856,-0.324 0.218,-0.215 0.328,-0.465 0.328,-0.75 0,-0.211 -0.063,-0.402 -0.188,-0.578 -0.129,-0.176 -0.297,-0.309 -0.507,-0.391 -0.012,-0.007 -0.348,-0.097 -1.008,-0.269 -0.332,-0.09 -0.621,-0.266 -0.871,-0.531 -0.254,-0.27 -0.379,-0.598 -0.379,-0.989 0,-0.418 0.172,-0.789 0.508,-1.109 0.339,-0.328 0.781,-0.488 1.324,-0.488 0.511,0 1.008,0.129 1.488,0.386 l -0.113,0.676 c -0.227,-0.176 -0.438,-0.305 -0.633,-0.39 -0.195,-0.086 -0.445,-0.129 -0.75,-0.129 -0.352,0 -0.637,0.097 -0.852,0.289 -0.218,0.191 -0.324,0.414 -0.324,0.672 0,0.187 0.059,0.363 0.18,0.519 0.125,0.152 0.281,0.27 0.469,0.348 0.078,0.031 0.273,0.086 0.589,0.16 0.321,0.074 0.528,0.137 0.633,0.18 0.297,0.125 0.555,0.324 0.766,0.597 0.211,0.274 0.32,0.598 0.32,0.969 0,0.461 -0.172,0.859 -0.515,1.203 -0.344,0.34 -0.786,0.512 -1.321,0.512 -0.652,0 -1.269,-0.188 -1.859,-0.563 z" /><path
         id="path386"
         style="fill:#000000;fill-opacity:1;fill-rule:nonzero;stroke:none"
         d="m 308.297,134.785 v -0.469 c 0.652,0 1.168,-0.179 1.551,-0.539 h 0.156 v 5.028 h 1.016 v 0.48 h -2.676 v -0.48 h 1.011 v -4.207 c -0.32,0.125 -0.671,0.187 -1.058,0.187 z" /><path
         id="path388"
         style="fill:#000000;fill-opacity:1;fill-rule:nonzero;stroke:none"
         d="m 262.293,139.285 v -5.633 h 1.828 c 0.391,0 0.734,0.047 1.027,0.149 0.297,0.097 0.524,0.226 0.684,0.39 0.16,0.157 0.277,0.321 0.352,0.485 0.078,0.164 0.117,0.328 0.117,0.484 0,0.317 -0.121,0.61 -0.36,0.879 -0.238,0.27 -0.578,0.469 -1.031,0.598 l 1.621,2.648 h -0.734 l -1.52,-2.566 h -1.281 v 2.566 z m 0.703,-3.07 h 1.07 c 0.571,0 0.973,-0.106 1.215,-0.32 0.239,-0.215 0.36,-0.457 0.36,-0.727 0,-0.117 -0.024,-0.234 -0.071,-0.348 -0.047,-0.113 -0.125,-0.226 -0.234,-0.336 -0.109,-0.113 -0.27,-0.203 -0.484,-0.273 -0.215,-0.074 -0.469,-0.109 -0.762,-0.109 h -1.094 z" /><path
         id="path390"
         style="fill:#000000;fill-opacity:1;fill-rule:nonzero;stroke:none"
         d="m 267.055,134.227 v -0.536 h 4.933 v 0.536 h -1.152 l -0.953,-0.008 v 5.066 h -0.719 v -5.066 l -0.961,0.008 z" /><path
         id="path392"
         style="fill:#000000;fill-opacity:1;fill-rule:nonzero;stroke:none"
         d="m 272.645,138.902 0.121,-0.672 c 0.57,0.45 1.148,0.672 1.738,0.672 0.351,0 0.637,-0.105 0.855,-0.324 0.219,-0.215 0.329,-0.465 0.329,-0.75 0,-0.211 -0.063,-0.402 -0.188,-0.578 -0.129,-0.176 -0.297,-0.309 -0.508,-0.391 -0.012,-0.007 -0.347,-0.097 -1.008,-0.269 -0.332,-0.09 -0.621,-0.266 -0.871,-0.531 -0.254,-0.27 -0.379,-0.598 -0.379,-0.989 0,-0.418 0.168,-0.789 0.508,-1.109 0.34,-0.328 0.781,-0.488 1.324,-0.488 0.512,0 1.008,0.129 1.489,0.386 l -0.114,0.676 c -0.226,-0.176 -0.437,-0.305 -0.632,-0.39 -0.196,-0.086 -0.446,-0.129 -0.75,-0.129 -0.352,0 -0.637,0.097 -0.852,0.289 -0.219,0.191 -0.324,0.414 -0.324,0.672 0,0.187 0.058,0.363 0.18,0.519 0.125,0.152 0.281,0.27 0.468,0.348 0.078,0.031 0.274,0.086 0.59,0.16 0.317,0.074 0.527,0.137 0.633,0.18 0.297,0.125 0.551,0.324 0.766,0.597 0.21,0.274 0.32,0.598 0.32,0.969 0,0.461 -0.172,0.859 -0.516,1.203 -0.344,0.34 -0.785,0.512 -1.32,0.512 -0.652,0 -1.27,-0.188 -1.859,-0.563 z" /><path
         id="path394"
         style="fill:#000000;fill-opacity:1;fill-rule:nonzero;stroke:none"
         d="m 277.52,134.785 v -0.469 c 0.652,0 1.168,-0.179 1.55,-0.539 h 0.157 v 5.028 h 1.015 v 0.48 h -2.679 v -0.48 h 1.015 v -4.207 c -0.32,0.125 -0.676,0.187 -1.058,0.187 z" /><path
         id="path396"
         style="fill:#000000;fill-opacity:1;fill-rule:nonzero;stroke:none"
         d="m 233.422,134.227 v -0.536 h 4.937 v 0.536 h -1.156 l -0.949,-0.008 v 5.066 h -0.723 v -5.066 l -0.957,0.008 z" /><path
         id="path398"
         style="fill:#000000;fill-opacity:1;fill-rule:nonzero;stroke:none"
         d="m 238.77,139.285 2.179,-2.965 v -0.007 l -2.066,-2.661 h 0.851 l 1.571,2.118 1.527,-2.118 h 0.777 l -1.957,2.661 v 0.007 l 2.297,2.965 h -0.851 l -1.793,-2.48 -1.758,2.48 z" /><path
         id="path400"
         style="fill:#000000;fill-opacity:1;fill-rule:nonzero;stroke:none"
         d="m 244.414,135.109 c 0.262,-0.886 0.789,-1.332 1.574,-1.332 0.52,0 0.942,0.172 1.262,0.516 0.316,0.34 0.477,0.75 0.477,1.227 0,0.187 -0.024,0.363 -0.079,0.519 -0.05,0.152 -0.148,0.32 -0.3,0.496 -0.149,0.176 -0.278,0.317 -0.395,0.426 -0.113,0.109 -0.305,0.285 -0.582,0.527 -0.144,0.129 -0.582,0.539 -1.308,1.231 l 2.664,-0.008 v 0.574 h -3.25 v -0.527 l 1.058,-1.047 c 0.043,-0.043 0.137,-0.129 0.278,-0.258 0.144,-0.133 0.242,-0.223 0.289,-0.265 0.046,-0.047 0.128,-0.129 0.246,-0.247 0.117,-0.117 0.195,-0.203 0.238,-0.265 0.047,-0.063 0.105,-0.149 0.187,-0.254 0.079,-0.106 0.133,-0.199 0.157,-0.277 0.027,-0.082 0.054,-0.176 0.082,-0.282 0.027,-0.105 0.043,-0.215 0.043,-0.32 0,-0.348 -0.11,-0.641 -0.328,-0.879 -0.223,-0.238 -0.5,-0.355 -0.844,-0.355 -0.184,0 -0.348,0.043 -0.492,0.125 -0.145,0.082 -0.254,0.187 -0.328,0.308 -0.071,0.121 -0.129,0.242 -0.176,0.363 -0.047,0.122 -0.078,0.227 -0.094,0.313 l -0.031,0.141 z" /><path
         id="path402"
         style="fill:#000000;fill-opacity:1;fill-rule:nonzero;stroke:none"
         d="m 357.078,164.34 h 0.754 l 1.238,3.199 c 0.399,1.066 0.618,1.688 0.66,1.871 0.032,-0.215 0.243,-0.824 0.633,-1.828 l 1.262,-3.242 h 0.629 l -2.215,5.637 h -0.746 z" /><path
         id="path404"
         style="fill:#000000;fill-opacity:1;fill-rule:nonzero;stroke:none"
         d="m 363.152,164.34 h 0.727 v 5.637 h -0.727 z" /><path
         id="path406"
         style="fill:#000000;fill-opacity:1;fill-rule:nonzero;stroke:none"
         d="m 365.41,169.977 v -5.637 h 1.016 l 2.226,4.418 0.317,0.652 v -5.07 h 0.629 v 5.637 h -1.016 l -2.223,-4.418 -0.316,-0.653 v 5.071 z" /><path
         id="path408"
         style="fill:#000000;fill-opacity:1;fill-rule:nonzero;stroke:none"
         d="m 326.215,169.227 0.09,-0.497 c 0.172,0.235 0.379,0.418 0.613,0.559 0.234,0.133 0.422,0.211 0.555,0.234 0.136,0.028 0.269,0.04 0.394,0.04 0.297,0 0.539,-0.11 0.719,-0.329 0.187,-0.214 0.277,-0.492 0.277,-0.828 0,-0.312 -0.086,-0.582 -0.265,-0.808 -0.176,-0.223 -0.434,-0.336 -0.778,-0.336 h -0.59 v -0.5 c 0.129,-0.012 0.243,-0.02 0.336,-0.028 0.098,-0.011 0.157,-0.019 0.184,-0.019 0.027,-0.004 0.047,-0.004 0.063,-0.004 0.261,-0.047 0.472,-0.18 0.64,-0.391 0.164,-0.211 0.25,-0.441 0.25,-0.695 0,-0.23 -0.078,-0.41 -0.23,-0.547 -0.153,-0.14 -0.348,-0.211 -0.59,-0.211 -0.477,0 -0.856,0.203 -1.133,0.61 -0.031,0.046 -0.074,0.125 -0.129,0.234 l -0.289,-0.445 c 0.371,-0.59 0.895,-0.883 1.566,-0.887 0.411,0 0.758,0.121 1.043,0.367 0.286,0.246 0.426,0.535 0.426,0.879 0,0.582 -0.301,1.047 -0.902,1.387 0.371,0.129 0.652,0.32 0.844,0.578 0.191,0.254 0.285,0.531 0.285,0.832 0,0.441 -0.164,0.824 -0.492,1.152 -0.329,0.328 -0.739,0.489 -1.227,0.489 -0.668,0 -1.219,-0.278 -1.66,-0.836 z" /><path
         id="path410"
         style="fill:#000000;fill-opacity:1;fill-rule:nonzero;stroke:none"
         d="m 330.059,164.25 h 0.754 l 1.238,3.203 c 0.398,1.063 0.617,1.688 0.66,1.867 0.031,-0.211 0.242,-0.82 0.633,-1.828 l 1.261,-3.242 h 0.629 l -2.214,5.637 h -0.747 z" /><path
         id="path412"
         style="fill:#000000;fill-opacity:1;fill-rule:nonzero;stroke:none"
         d="m 335.699,169.227 0.09,-0.497 c 0.172,0.235 0.379,0.418 0.613,0.559 0.235,0.133 0.418,0.211 0.555,0.234 0.137,0.028 0.27,0.04 0.391,0.04 0.3,0 0.539,-0.11 0.722,-0.329 0.188,-0.214 0.278,-0.492 0.278,-0.828 0,-0.312 -0.086,-0.582 -0.266,-0.808 -0.176,-0.223 -0.434,-0.336 -0.777,-0.336 h -0.59 v -0.5 c 0.129,-0.012 0.242,-0.02 0.336,-0.028 0.097,-0.011 0.156,-0.019 0.183,-0.019 0.028,-0.004 0.047,-0.004 0.063,-0.004 0.262,-0.047 0.473,-0.18 0.641,-0.391 0.164,-0.211 0.25,-0.441 0.25,-0.695 0,-0.23 -0.079,-0.41 -0.231,-0.547 -0.152,-0.14 -0.348,-0.211 -0.59,-0.211 -0.476,0 -0.855,0.203 -1.133,0.61 -0.031,0.046 -0.074,0.125 -0.129,0.234 l -0.289,-0.445 c 0.372,-0.59 0.895,-0.883 1.567,-0.887 0.41,0 0.758,0.121 1.043,0.367 0.285,0.246 0.426,0.535 0.426,0.879 0,0.582 -0.301,1.047 -0.903,1.387 0.371,0.129 0.653,0.32 0.844,0.578 0.191,0.254 0.285,0.531 0.285,0.832 0,0.441 -0.164,0.824 -0.492,1.152 -0.328,0.328 -0.738,0.489 -1.231,0.489 -0.664,0 -1.214,-0.278 -1.656,-0.836 z" /><path
         id="path414"
         style="fill:#000000;fill-opacity:1;fill-rule:nonzero;stroke:none"
         d="m 295.723,165.387 v -0.469 c 0.652,0 1.168,-0.18 1.55,-0.539 h 0.157 v 5.027 h 1.015 v 0.481 h -2.679 v -0.481 h 1.015 v -4.207 c -0.32,0.125 -0.676,0.188 -1.058,0.188 z" /><path
         id="path416"
         style="fill:#000000;fill-opacity:1;fill-rule:nonzero;stroke:none"
         d="m 299.168,164.25 h 0.754 l 1.242,3.203 c 0.395,1.063 0.617,1.688 0.656,1.867 0.032,-0.211 0.246,-0.82 0.637,-1.828 l 1.262,-3.242 h 0.629 l -2.215,5.637 h -0.746 z" /><path
         id="path418"
         style="fill:#000000;fill-opacity:1;fill-rule:nonzero;stroke:none"
         d="m 304.813,168.422 c 0,-0.305 0.089,-0.578 0.273,-0.828 0.184,-0.246 0.469,-0.442 0.855,-0.582 -0.257,-0.082 -0.492,-0.227 -0.703,-0.434 -0.207,-0.207 -0.312,-0.465 -0.312,-0.777 0,-0.375 0.152,-0.707 0.453,-0.992 0.305,-0.289 0.676,-0.43 1.121,-0.43 0.449,0 0.824,0.144 1.121,0.434 0.301,0.285 0.453,0.617 0.453,0.988 0,0.254 -0.086,0.488 -0.254,0.703 -0.168,0.215 -0.422,0.383 -0.761,0.508 0.3,0.093 0.562,0.261 0.789,0.508 0.226,0.246 0.34,0.55 0.34,0.91 0,0.433 -0.161,0.816 -0.485,1.144 -0.328,0.328 -0.726,0.489 -1.203,0.489 -0.469,0 -0.871,-0.161 -1.195,-0.485 -0.328,-0.328 -0.492,-0.711 -0.492,-1.156 z m 0.656,-0.008 c 0,0.348 0.094,0.625 0.281,0.832 0.191,0.211 0.441,0.317 0.75,0.317 0.301,0 0.543,-0.106 0.738,-0.313 0.196,-0.203 0.293,-0.484 0.293,-0.844 0,-0.34 -0.097,-0.617 -0.289,-0.828 -0.191,-0.211 -0.437,-0.316 -0.742,-0.316 -0.266,0 -0.504,0.097 -0.715,0.289 -0.211,0.191 -0.316,0.48 -0.316,0.863 z m 0.023,-2.605 c 0,0.289 0.094,0.519 0.278,0.695 0.187,0.172 0.429,0.258 0.722,0.258 0.305,0 0.547,-0.09 0.735,-0.266 0.187,-0.176 0.281,-0.406 0.281,-0.687 0,-0.286 -0.094,-0.516 -0.281,-0.688 -0.188,-0.176 -0.426,-0.262 -0.727,-0.262 -0.305,0 -0.547,0.086 -0.734,0.266 -0.18,0.176 -0.274,0.406 -0.274,0.684 z" /><path
         id="path420"
         style="fill:#000000;fill-opacity:1;fill-rule:nonzero;stroke:none"
         d="m 263.246,167.156 c 0,-0.832 0.254,-1.539 0.766,-2.121 0.511,-0.582 1.136,-0.871 1.875,-0.871 0.562,0 1.105,0.129 1.621,0.387 l -0.117,0.676 c -0.157,-0.122 -0.289,-0.211 -0.395,-0.27 -0.101,-0.066 -0.254,-0.125 -0.449,-0.184 -0.195,-0.062 -0.41,-0.089 -0.645,-0.089 -0.558,0 -1.019,0.242 -1.382,0.73 -0.364,0.492 -0.543,1.066 -0.543,1.734 0,0.692 0.183,1.282 0.554,1.766 0.371,0.481 0.828,0.719 1.364,0.719 0.281,0 0.628,-0.055 1.046,-0.168 v -1.414 h -1.078 v -0.504 h 1.715 v 2.219 c -0.543,0.257 -1.105,0.386 -1.691,0.386 -0.742,0 -1.367,-0.289 -1.879,-0.875 -0.508,-0.586 -0.762,-1.293 -0.762,-2.121 z" /><path
         id="path422"
         style="fill:#000000;fill-opacity:1;fill-rule:nonzero;stroke:none"
         d="m 268.91,169.977 v -5.637 h 1.012 l 2.226,4.418 0.317,0.652 v -5.07 h 0.629 v 5.637 h -1.012 l -2.227,-4.418 -0.316,-0.653 v 5.071 z" /><path
         id="path424"
         style="fill:#000000;fill-opacity:1;fill-rule:nonzero;stroke:none"
         d="m 274.648,169.977 v -5.637 h 1.997 c 0.543,0 1.007,0.129 1.398,0.383 0.398,0.257 0.703,0.609 0.918,1.058 0.215,0.446 0.324,0.918 0.324,1.418 0,0.754 -0.222,1.383 -0.668,1.891 -0.441,0.508 -0.965,0.797 -1.566,0.871 -0.086,0.008 -0.215,0.016 -0.391,0.016 z m 0.707,-0.457 h 1.161 c 0.679,0 1.207,-0.25 1.582,-0.747 0.32,-0.418 0.48,-0.937 0.48,-1.566 0,-0.687 -0.18,-1.262 -0.543,-1.719 -0.359,-0.465 -0.863,-0.695 -1.519,-0.695 h -1.161 z" /><path
         id="path426"
         style="fill:#000000;fill-opacity:1;fill-rule:nonzero;stroke:none"
         d="m 234.988,164.34 h 0.727 v 5.637 h -0.727 z" /><path
         id="path428"
         style="fill:#000000;fill-opacity:1;fill-rule:nonzero;stroke:none"
         d="m 236.922,167.172 c 0,-0.836 0.25,-1.551 0.75,-2.133 0.5,-0.586 1.098,-0.875 1.793,-0.875 0.68,0 1.269,0.289 1.769,0.875 0.504,0.582 0.754,1.297 0.754,2.133 0,0.851 -0.254,1.562 -0.761,2.129 -0.504,0.57 -1.094,0.851 -1.77,0.851 -0.684,0 -1.277,-0.285 -1.781,-0.855 -0.504,-0.574 -0.754,-1.281 -0.754,-2.125 z m 1.266,-1.832 c -0.36,0.437 -0.536,1.012 -0.536,1.723 0,0.707 0.168,1.312 0.504,1.812 0.336,0.5 0.77,0.75 1.301,0.75 0.512,0 0.941,-0.246 1.285,-0.738 0.348,-0.5 0.52,-1.106 0.52,-1.824 0,-0.711 -0.176,-1.286 -0.535,-1.723 -0.356,-0.438 -0.782,-0.656 -1.27,-0.656 -0.488,0 -0.91,0.218 -1.269,0.656 z" /><path
         id="path430"
         style="fill:#000000;fill-opacity:1;fill-rule:nonzero;stroke:none"
         d="m 242.785,169.316 0.086,-0.496 c 0.176,0.235 0.383,0.418 0.617,0.555 0.235,0.137 0.418,0.215 0.555,0.238 0.137,0.024 0.27,0.035 0.391,0.035 0.3,0 0.539,-0.105 0.722,-0.324 0.188,-0.215 0.278,-0.492 0.278,-0.828 0,-0.312 -0.086,-0.582 -0.266,-0.808 -0.176,-0.227 -0.434,-0.336 -0.777,-0.336 h -0.59 v -0.5 c 0.129,-0.012 0.242,-0.02 0.336,-0.028 0.097,-0.011 0.156,-0.019 0.183,-0.019 0.028,-0.004 0.047,-0.004 0.063,-0.004 0.262,-0.051 0.472,-0.18 0.64,-0.391 0.165,-0.211 0.25,-0.445 0.25,-0.695 0,-0.231 -0.078,-0.41 -0.23,-0.551 -0.152,-0.137 -0.348,-0.207 -0.594,-0.207 -0.472,0 -0.851,0.203 -1.129,0.609 -0.031,0.047 -0.074,0.125 -0.129,0.235 l -0.289,-0.446 c 0.371,-0.589 0.895,-0.886 1.567,-0.886 0.41,0 0.758,0.121 1.039,0.367 0.289,0.242 0.43,0.535 0.43,0.879 0,0.582 -0.301,1.043 -0.903,1.387 0.371,0.128 0.653,0.32 0.844,0.578 0.191,0.254 0.285,0.531 0.285,0.832 0,0.437 -0.164,0.824 -0.492,1.148 -0.328,0.328 -0.738,0.492 -1.231,0.492 -0.664,0 -1.218,-0.277 -1.656,-0.836 z" /></g></g></svg>