<svg xmlns="http://www.w3.org/2000/svg" width="90.7" height="45.4" viewBox="0 0 24437473 11653126" xmlns:v="https://vecta.io/nano"><style><![CDATA[.B{fill-opacity:0}.C{stroke-linejoin:round}.D{stroke-width:120000}]]></style><g transform="translate(0 2133126.6)"><g stroke="#000" transform="rotate(90)" class="C D B"><use href="#B"/><use href="#B" y="-2000000"/><use href="#B" x="2000000" y="-4000000"/><use href="#B" x="-2000000" y="-2000000"/><use href="#B" x="2000000" y="2000000"/><use href="#B" x="-2000000" y="-4000000"/><use href="#B" x="2000000" y="-2000000"/><use href="#B" x="2000000"/><use href="#B" y="-6000000"/><use href="#B" x="4000000" y="2000000"/><use href="#B" x="4000000" y="-2000000"/><use href="#B" x="-2000000"/><use href="#B" x="-2000000" y="2000000"/><use href="#B" x="4000000"/><use href="#B" x="2000000" y="-6000000"/><path d="M1460000-2760000c0 386599.3-313400.7 700000-700000 700000S60000-2373400.7 60000-2760000s313400.7-700000 700000-700000 700000 313400.7 700000 700000z"/><use href="#B" x="4000000" y="-4000000"/><path d="M1460000-4760000c0 386599.3-313400.7 700000-700000 700000S60000-4373400.7 60000-4760000s313400.7-700000 700000-700000 700000 313400.7 700000 700000z"/><use href="#B" x="4000000" y="-6000000"/><use href="#B" y="-4000000"/><use href="#B" y="2000000"/><path d="M1460000-760000c0 386599.3-313400.7 700000-700000 700000S60000-373400.7 60000-760000s313400.7-700000 700000-700000 700000 313400.7 700000 700000z"/></g><path d="M582750.6 532364.5v-60978.2q127124 0 202055-70280h20153.8v655257.2H937251v62528.5H588435v-62528.5h132291.7v-548287q-63045.2 24288-137976 24288zm1961241.6 42374.7q51676.4-173632.8 205155.4-173632.8 101802.6 0 164331 67179.4Q2976007 534948.4 2976007 627966q0 37207-10335.3 67696-9818.5 30489-39274 65112.3-28938.8 34106.4-51159.7 55293.8-22220.8 21187.3-75964.3 68729.7-28422 25321.5-170532.2 160197l347265.6-1033.5v74930.8h-423746.8v-68729.7l137976-136425.7q8268.2-8268.2 36173.5-33589.7 28422-25838.2 37723.8-34623.2 9301.8-9301.8 32039.4-32039.4 22737.6-22737.6 31006-34623.2 8785-12402.3 24288-33073 15503-20670.6 20670.6-36173.5 5167.6-16019.7 10335.2-36690.3 5684.5-20670.6 5684.5-41858 0-67696-42891.5-114205-42891.4-46508.8-109554-46508.8-36173.5 0-64595.6 16536.5-27905.2 16019.7-42374.6 39791-13952.7 23771.2-23254.4 47542.3-8785 23771.2-11885.6 40824.4l-4134 18086.8zm1995866 446743.8l11368.8-64595.5q34106.5 45475.2 80098.5 72347 45992 26355 72347 31005.8 26871.7 4651 51159.7 4651 58394.3 0 94051-42374.7 36173.5-42374.6 36173.5-108003.7 0-61495-34623.2-105420-34623.2-43925-101285.8-43925h-76998v-65112.3q25321.4-2067 43925-3617.3 18603.6-2067 23771.2-2583.8 5167.6-516.8 8268.2-516.8 50643-9301.8 83199-50643 32556-41341.2 32556-90950.5 0-44441.7-29972.3-71313.5-29455.6-27388.5-76998-27388.5-93017.6 0-147277.8 79581.7-6201.2 9301.8-17053.2 30489l-37723.8-57877.6Q4627707.7 389997 4758966 389480q80615.2 0 135909 48059 55810.6 47542.3 55810.6 114205 0 114205-117822.3 180867.5Q4905727 757933 4942934 808059.2q37207 49609.4 37207 108520.5 0 85782.8-64078.8 149861.6-64078.7 64078.8-160197 64078.8-130224.6 0-216007.5-109037.3zM524872 2925622.5q0 0 0-51159.7 0-12919 11885.6-32556L792556 2413509h97668.5v447518h104903.2v64595.6H890224.4V3106490H805475v-180867.5zm82682.3-64595.6h204122v-408760.6q-6201.2 39274-29972.3 93534.4-23771.2 53743.5-44958.5 91467.3-21187.3 37207-93017.6 161230.5-23254.4 40307.6-36173.5 62528.4zm1934887.3 153222l35656.8-58911.2q59428 97151.7 165364.5 97151.7 52710 0 95601.5-40824.4 42891.4-40824.3 42891.4-133842 0-86816.4-31522.6-128674.3-31006-41858-76481.2-41858-71830.2 0-116272 84749.4h-71830.3v-390157H2942417v67696h-279569.5v216524.3Q2716591 2642695 2776019 2643212q81648.8 0 141593.4 68213 59944.7 68213 59944.7 167431.6 0 101802.6-69763.2 170532.2-69246.4 68729.7-163297.5 68729.7-60461.5 0-114205-27905.3-53743.5-28422-87850-75964.3zm1997934-249080.8q0-158646.6 80098.5-267167.2 80615.2-108520.5 202571.6-108520.5 54777 0 113171.4 21187.4v63562q-60461.4-22221-113171.4-22221-61495 0-106970.2 42891.5-45475.3 42891.4-64595.5 97668.4-19120.3 54260.3-22221 112654.6 32556.2-41341 80098.5-64078.7 48059-22737.7 98702-22737.7 69763 0 115238.4 64595.6 56327.3 78548.2 56327.3 187068.7 0 117305.5-72863.7 194820-61495 65629-144177.3 65629-29455.6 0-57877.6-8785-27905.3-8268.2-58911-32556.2-30489-24288-53226.8-62528.4-22737.6-38757.4-37723.8-105936.7-14469.4-67696.2-14469.4-155546zm89917 109037.3q20153.8 190686 131258.2 190686 53743.5 0 84749.3-36173.5 31522.6-36690.2 41341.2-81132 5167.6-23254.4 5167.6-70796.7 0-91984-29455.6-139009.6-35140-54777-96635-54777-59428 0-97668.4 48059-37723.8 48059-37723.8 114721.6 0 9301.8 2067 28422z"/><use href="#C"/><path d="M539858.2 4916580q0-59428 35656.7-108003.8 36173.5-48575.8 111621-75964.3-50643-16019.7-91467.3-56327.4-40824.4-40824.3-40824.4-101285.8 0-73897.3 58911-129707.8 59428-55810.6 146244.3-55810.6 87850 0 146244.3 56327.3 58911 56327.4 58911 129191 0 49609.4-33073 91467.3-32556.2 41858-99218.7 66146 58394.4 18086.7 102836 66145.8 44441.7 48059 44441.7 118855.8 0 84749.3-63562 148828-63562 64078.8-156579.6 64078.8-91984 0-156062.8-63562-64078.8-63562-64078.8-150378.4zm85783-1033.6q0 67696.2 36690.3 108520.5 37207 40824.4 97668.5 40824.4 58394.4 0 96118.2-40307.6 38240.6-40307.6 38240.6-110070.8 0-66662.6-37723.8-108003.7-37207-41341.2-96635-41341.2-51676.4 0-93017.6 37723.8-41341 37723.8-41341 112654.6zm3100.6-339514q0 56327.3 36173.5 90433.7 36690.3 33589.7 94051 33589.7 59428 0 95601.4-34623.2 36690.3-34623.2 36690.3-89400.2 0-56327.4-36690.3-89917-36173.5-34106.5-94568-34106.5-59428 0-95601.4 34623.2-35656.7 34623.2-35656.7 89400.3zm1911634 70796.6q0-116272 75964.4-193786.7 62528.5-63562 146244.3-63562 37207 0 71313.5 15503 34623.2 15503 68729.6 52193.2 34623.2 36173.5 55810.6 113171.3 21187.3 76481.2 21187.3 184485 0 162780.8-78031.4 269234.2-77514.6 106453.5-188619 106453.5-75964.3 0-141076.6-48576l33073-57360.8q1033.5 1033.5 8785 6718 8268.2 5167.7 10852 7234.7 2583.8 2067 9818.5 6201.2 7751.5 4134 12402.4 6718 4651 2067 12919 5167.6 8785 3100.6 16536.5 4651 8268.2 1550.3 18086.7 2583.8 9818.5 1033.5 20670.6 1033.5 71830.2-1033.5 119372.5-68729.6 48059-67696.2 56327.4-180867.6-73897.3 87850-178800.5 87850-68729.7 0-114205-64595.6-57361-80615.2-57361-191719.5zm86816.4 0q0 48575.8 6201.2 80098.4 6718 31006 27388.5 62011.8 34106.5 48575.8 92500.8 48575.8 59428 0 97151.7-48059 38240.6-48575.8 38240.6-116272 0-18086.8-1033.5-27388.6h2067q-2067-31522.6-8785-60461.4-6201-29455.6-19637-61495-12919-32556.2-38240.6-51676.5-25321.4-19120.3-59428-19120.3-54777 0-87333 37207-32039.4 37207-42891.5 80615.2-6201.2 25321.5-6201.2 75964.4zm1673404.5-126102.5v-60978.2q127124 0 202055-70280h20153.8v655257.2H4655097v62528.5h-348816v-62528.5h132291.7v-548287q-63045.2 24288-137976 24288zm477490.4 258382V4761022q0-41341.2 1550.3-71830.3 1550.3-30489 9818.5-80615.2 8785-50643 23254.4-85783 14986.2-35656.7 45475.3-69763.2 31005.8-34623.2 73380.5-50643 32556.2-12919 66662.6-12919 29455.6 0 56844 8268.3 27905.3 7751.4 58394.4 31522.6 31005.8 23771 53743.4 60978.2 22737.7 37207 37207 102319.3 14986 65112.3 14986 149345v22221q0 40307.6-1550.3 72347-1550.2 31522.6-10335.2 80615.2-8268.3 48576-23771.2 84232.6-14986.2 35140-45992 68729.7-30489 33073-72863.8 49092.6-35140 11885.6-66662.6 11368.8-29455.6 0-56844-7751.5-26871.7-7234.7-58394.3-29972.3-31006-22737.6-53226.8-59428-22220.8-37207-37207-102836-14469.4-65629-14469.4-151412zm82682.3 0q0 70796.8 9301.7 124540.2 9818.6 53226.8 23254.4 83716 13952.7 29972.3 33589.7 48575.8 19637 18603.5 36173.5 24288 17053.3 5684.5 36173.5 5684.5 24288 0 45475.3-10852 21187.3-11368.8 43408.2-39274 22221-27905.3 35140-88883.5 13435.8-60978 13435.8-148828V4715547q0-80615.2-13435.8-135392.2-12919-54777-35656.8-80098.5-22737.6-25838.2-43925-35140-21187.4-9818.5-45475.3-9818.5-24288 0-45475.3 9818.5-21187.3 9301.8-43408.2 35140-22220.8 25321.4-35656.7 81132-12919 55293.8-12919 134358.7zm1457397.3-246744v-60978.2q127124 0 202055-70280h20153.8v655257.2H6672667v62528.5h-348816v-62528.5h132291.7v-548287q-63045.2 24288-137976 24288z"/><use href="#D"/><path d="M8305246.6 4532364.5v-60978.2q127124 0 202055-70280h20153.8v655257.2H8659747v62528.5h-348816v-62528.5h132291.7v-548287q-63045.2 24288-137976 24288zM8782737 4574739q51676.4-173632.8 205155.4-173632.8 101802.6 0 164331 67179.4 62528.5 66662.6 62528.5 159680.2 0 37207-10335.3 67696-9818.5 30489-39274 65112.3-28938.8 34106.5-51159.7 55293.8-22220.8 21187.3-75964.3 68729.7-28422 25321.4-170532.3 160197l347265.7-1033.5v74930.8h-423747v-68729.7l137976-136425.7q8268.2-8268.3 36173.5-33589.7 28422-25838.2 37723.8-34623.2 9301.8-9301.8 32039.4-32039.4 22737.6-22737.7 31006-34623.2 8785-12402.4 24288-33073 15503-20670.5 20670.6-36173.5 5167.6-16019.7 10335.2-36690.2 5684.4-20670.6 5684.4-41858 0-67696.2-42891.4-114205-42891.4-46508.8-109554-46508.8-36173.5 0-64595.6 16536.5-27905.3 16019.7-42374.7 39791-13952.6 23771-23254.4 47542.3-8785 23771-11885.5 40824.4l-4134 18086.7z"/><use href="#E"/><path d="M778603 7021483l11368.8-64595.5q34106.4 45475.2 80098.5 72347 45992 26355 72347 31005.8 26871.7 4651 51159.7 4651 58394.3 0 94051-42374.7 36173.5-42374.6 36173.5-108003.7 0-61495-34623.2-105420-34623.2-43925-101285.8-43925h-76998v-65112.3q25321.5-2067 43925-3617.4 18603.5-2067 23771.2-2583.8 5167.7-516.7 8268.2-516.7 50643-9301.8 83199-50643 32556-41341.2 32556-90950.6 0-44441.7-29972.3-71313.4-29455.6-27388.6-76998-27388.6-93017.6 0-147277.8 79581.8-6201.2 9301.7-17053.2 30489l-37723.8-57877.6q72863.8-115238.4 204122-115755.2 80615.2 0 135909 48059 55810.5 47542.3 55810.5 114205 0 114205-117822.2 180867.6 72863.7 25321.4 110070.8 75447.5 37207 49609.4 37207 108520.6 0 85782.8-64078.8 149861.6-64078.7 64078.8-160197 64078.8-130224.6 0-216007.5-109037.3zm1515017.6-489118.5v-60978.2q127124 0 202055-70280h20153.8v655257.2H2648121v62528.5h-348816v-62528.5h132291.7v-548287q-63045.2 24288-137976 24288zm462504 405660q0 0 0-51159.7 0-12919 11885.6-32556l255798.4-428397.7h97668.4v447518h104903.2v64595.6H3121477V7118892h-84749.3v-180867.5zm82682.3-64595.6h204122v-408760.6q-6201 39274-29972.3 93534.4-23771.2 53743.5-44958.5 91467.3-21187.3 37207-93017.6 161230.5-23254.4 40307.6-36173.5 62528.4zm1466439.6-352690.4v-60978.2q127124 0 202055-70280h20153.8v655257.2H4659747v62528.5h-348816v-62528.5h132291.7v-548287q-63045.2 24288-137976 24288zm474389.7 505912.3l35656.7-58911.2q59428 97151.7 165364.6 97151.7 52710 0 95601.4-40824.4 42891.5-40824.3 42891.5-133842 0-86816.4-31522.6-128674.3-31006-41858-76481.2-41858-71830.2 0-116272 84749.4h-71830.3v-390157H5179612v67696h-279569.5v216524.3Q4953786 6655097 5013214 6655614q81648.8 0 141593.4 68213 59944.7 68213 59944.7 167431.6 0 101802.6-69763.2 170532.2-69246.4 68729.7-163297.5 68729.7-60461.5 0-114205-27905.3-53743.4-28422-87850-75964.3zm1521476.3-505912.3v-60978.2q127124 0 202055-70280h20153.8v655257.2H6655613v62528.5h-348816v-62528.5h132291.7v-548287q-63045.2 24288-137976 24288zm478523.8 244429.5q0-158646.6 80098.5-267167.2 80615.2-108520.5 202571.6-108520.5 54777 0 113171.4 21187.4v63562q-60461.4-22221-113171.4-22221-61495 0-106970.2 42891.5-45475.3 42891.4-64595.5 97668.4-19120.3 54260.3-22221 112654.6 32556-41341 80098.5-64078.7 48059-22737.7 98702-22737.7 69763 0 115238.4 64595.6 56327.3 78548.2 56327.3 187068.7 0 117305.5-72863.8 194820-61495 65629-144177.2 65629-29455.6 0-57877.6-8785-27905.3-8268.2-58911.2-32556.2-30489-24288-53226.7-62528.4-22737.6-38757.4-37723.8-105936.7-14469.4-67696.2-14469.4-155546zm89917 109037.3q20153.8 190686 131258.2 190686 53743.5 0 84749.3-36173.5 31522.6-36690.2 41341.2-81132 5167.6-23254.4 5167.6-70796.7 0-91984-29455.6-139009.6-35140-54777-96635-54777-59428 0-97668.5 48059-37723.8 48059-37723.8 114721.6 0 9301.8 2067 28422zm1431559.2-347782.8v-60978.2q127124 0 202055-70280h20153.8v655257.2H8655613v62528.5h-348816v-62528.5h132291.7v-548287q-63045.2 24288-137976 24288z"/><use href="#C" x="2238744.8" y="4011886"/><use href="#E" y="2000000"/><path d="M778603 8916580q0-59428 35656.7-108003.8 36173.5-48575.8 111621-75964.3-50643-16019.7-91467.3-56327.4-40824.4-40824.3-40824.4-101285.8 0-73897.3 58911-129707.8 59428-55810.6 146244.3-55810.6 87850 0 146244.3 56327.3 58911 56327.4 58911 129191 0 49609.4-33073 91467.3-32556 41858-99218.7 66146 58394.3 18086.7 102836 66145.8 44441.7 48059 44441.7 118855.8 0 84749.3-63562 148828-63562 64078.8-156579.6 64078.8-91984 0-156062.8-63562-64078.8-63562-64078.8-150378.4zm85783-1033.6q0 67696.2 36690.3 108520.5 37207 40824.4 97668.5 40824.4 58394.4 0 96118.2-40307.6 38240.5-40307.6 38240.5-110070.8 0-66662.6-37723.8-108003.7-37207-41341.2-96635-41341.2-51676.4 0-93017.6 37723.8-41341.2 37723.8-41341.2 112654.6zm3100.6-339514q0 56327.3 36173.5 90433.7 36690.3 33589.7 94051 33589.7 59428 0 95601.4-34623.2 36690.2-34623.2 36690.2-89400.2 0-56327.4-36690.2-89917-36173.5-34106.5-94568-34106.5-59428 0-95601.4 34623.2-35656.7 34623.2-35656.7 89400.3zm1433626-55294v-60978.2q127124 0 202055-70280h20153.8v655257.2H2655613v62528.5h-348816v-62528.5h132291.7v-548287q-63045.2 24288-137976 24288zm478523.8 126090.5q0-116272 75964.4-193786.7 62528.5-63562 146244.3-63562 37207 0 71313.5 15503 34623.2 15503 68729.6 52193.2 34623.2 36173.5 55810.6 113171.3 21187.3 76481.2 21187.3 184485 0 162780.8-78031.4 269234.2-77514.7 106453.5-188619 106453.5-75964.3 0-141076.7-48576l33073-57360.8q1033.5 1033.5 8785 6718 8268.2 5167.7 10852 7234.7 2583.8 2067 9818.5 6201.2 7751.5 4134 12402.4 6718 4651 2067 12919 5167.6 8785 3100.6 16536.4 4651 8268.3 1550.3 18086.8 2583.8 9818.5 1033.5 20670.6 1033.5 71830.2-1033.5 119372.5-68729.6 48059-67696.2 56327.3-180867.6-73897.3 87850-178800.4 87850-68729.7 0-114205-64595.6-57361-80615.2-57361-191719.5zm86816.4 0q0 48575.8 6201.2 80098.4 6718 31006 27388.5 62011.8 34106.5 48575.8 92500.8 48575.8 59428 0 97151.7-48059 38240.6-48575.8 38240.6-116272 0-18086.8-1033.5-27388.6h2067q-2067-31522.6-8785-60461.4-6201-29455.6-19637-61495-12919-32556.2-38240.6-51676.5-25321.4-19120.3-59428-19120.3-54777 0-87333.2 37207-32039.3 37207-42891.4 80615.2-6201.2 25321.5-6201.2 75964.4z"/><use href="#F"/><path d="M4803925 8779108.6V8761022q0-41341.2 1550.3-71830.3 1550.3-30489 9818.5-80615.2 8785-50643 23254.4-85783 14986.2-35656.7 45475.3-69763.2 31005.8-34623.2 73380.5-50643 32556.2-12919 66662.6-12919 29455.6 0 56844 8268.3 27905.3 7751.4 58394.4 31522.6 31005.8 23771 53743.4 60978.2 22737.7 37207 37207 102319.3 14986 65112.3 14986 149345v22221q0 40307.6-1550.3 72347-1550.2 31522.6-10335.2 80615.2-8268.3 48576-23771.2 84232.6-14986.2 35140-45992 68729.7-30489 33073-72863.8 49092.6-35140 11885.6-66662.6 11368.8-29455.6 0-56844-7751.5-26871.7-7234.7-58394.3-29972.3-31006-22737.6-53226.8-59428-22220.8-37207-37207-102836-14469.4-65629-14469.4-151412zm82682.3 0q0 70796.8 9301.7 124540.2 9818.6 53226.8 23254.4 83716 13952.7 29972.3 33589.7 48575.8 19637 18603.5 36173.5 24288 17053.3 5684.5 36173.5 5684.5 24288 0 45475.3-10852 21187.3-11368.8 43408.2-39274 22221-27905.3 35140-88883.5 13435.8-60978 13435.8-148828v-62528.5q0-80615.2-13435.8-135392.2-12919-54777-35656.8-80098.5-22737.6-25838.2-43925-35140-21187.4-9818.5-45475.3-9818.5-24288 0-45475.3 9818.5-21187.3 9301.8-43408.2 35140-22220.8 25321.4-35656.7 81132-12919 55293.8-12919 134358.7z"/><use href="#F" x="2017570" y="11638"/><use href="#D" x="25838" y="4000000"/><use href="#F" x="4004650" y="11638"/><path d="M8808575 8574739q51676.4-173632.8 205155.4-173632.8 101802.6 0 164331 67179.4 62528.5 66662.6 62528.5 159680.2 0 37207-10335.3 67696-9818.5 30489-39274 65112.3-28938.8 34106.5-51159.7 55293.8-22220.8 21187.3-75964.3 68729.7-28422 25321.4-170532.3 160197l347265.7-1033.5v74930.8H8816843v-68729.7l137976-136425.7q8268.2-8268.3 36173.5-33589.7 28422-25838.2 37723.8-34623.2 9301.8-9301.8 32039.4-32039.4 22737.6-22737.7 31006-34623.2 8785-12402.4 24288-33073 15503-20670.5 20670.6-36173.5 5167.6-16019.7 10335.2-36690.2 5684.4-20670.6 5684.4-41858 0-67696.2-42891.4-114205-42891.4-46508.8-109554-46508.8-36173.5 0-64595.6 16536.5-27905.3 16019.7-42374.7 39791-13952.6 23771-23254.4 47542.3-8785 23771-11885.5 40824.4l-4134 18086.7z"/></g><path d="M2023905.2 81304.3v219108h261138.2V398942h-261138.2v418923.6q0 94395.6 25493.7 121267.4 26182.7 26871.8 105420 26871.8h130224.6v106109H2154819q-146761 0-202571.6-54432.6-55810.6-55121.5-55810.6-199815.5V398942H1803419v-98529.7h93017.5v-219108zm727604.2 307991.5q-101975 0-161230.5 79926.2-59255.7 79237.2-59255.7 217730 0 138492.8 58566.7 218419 59255.6 79237.2 161919.5 79237.2 101285.8 0 160541.4-79926.2 59255.6-79926.2 59255.6-217730 0-137114.8-59255.6-217041-59255.6-80615.2-160541.4-80615.2zm0-107487q165364.5 0 259760.2 107487 94395.6 107487 94395.6 297656.3 0 189480.3-94395.6 297656.3-94395.7 107487-259760.2 107487-166053.7 0-260449.3-107487-93706.6-108176-93706.6-297656.2 0-190169.3 93706.6-297656.2 94395.6-107487 260449.3-107487zm686263 674549.7V1365636h-127468.5V300412.4h127468.5v117133.3q39963-68902 100596.8-101974.8 61322.7-33762 146072-33762 140560 0 228065.3 111621 88194.4 111621 88194.4 293522 0 181901-88194.4 293522-87505.4 111621-228065.3 111621-84749.4 0-146072-33073-60633.7-33762-100596.8-102664zm431326-269406.5q0-139871-57877.6-219108-57188.6-79926.2-157785.4-79926.2-100596.8 0-158474.4 79926.2-57188.6 79237.2-57188.6 219108 0 139871 57188.6 219797 57877.6 79237.2 158474.4 79237.2 100596.8 0 157785.4-79237.2 57877.6-79926.2 57877.6-219797zm700043.4-386539.6h134358.7l241156.7 647678 241156.7-647678h134358.7l-289388 771701.4h-172254.8zm926041.7 0H5621963v771701.4h-126779.6zm0-300412.3H5621963v160541.5h-126779.6zm1051443 654568V716580h-582910.2q8268.3 130913.6 78548.2 199815.5 70969 68213 197059.5 68213 73036 0 141249-17914.5 68902-17914.5 136425.8-53743.5V1032840q-68213 28938.8-139871 44097.2-71658 15158.4-145383 15158.4-184657.2 0-292833.2-107487-107487-107487-107487-290766 0-189480.2 101974.8-300412.3 102663.8-111621 276296.6-111621 155718.4 0 245980 100596.8 90950.5 99907.8 90950.5 272162.5zM6419847 617361q-1378-104042-58566.7-166053.6-56499.5-62011.7-150206-62011.7-106109 0-170187.7 59944.7-63389.8 59944.7-73036 168809.7zm261138-316948.6h126779.6L6966239 902615l157785.3-602202.7h149517.2L7432016 902615l157785.3-602202.7H7716581l-201882.6 771701.5H7365181l-166053.6-632519.6-166742.6 632519.6h-149517.2zm9247879 523310q0-139871-57878-219108-57188-79926.2-157785-79926.2-100597 0-158474 79926.2-57189 79237.2-57189 219108 0 139871 57189 219797 57877 79237.2 158474 79237.2 100597 0 157785-79237.2 57878-79926.2 57878-219797zM15497538 554316q39963-68902 100597-101974.8 61323-33762 146072-33762 140560 0 228065 111621 88195 111621 88195 293522.2 0 181901-88195 293522.2-87505 111621-228065 111621-84749 0-146072-33073-60634-33762-100597-102664V1208884h-127468V136770.3h127468zm1072114-28250q-101975 0-161231 79926.2-59255 79237.2-59255 217730 0 138492.8 58566 218419 59256 79237.2 161920 79237.2 101286 0 160541-79926.2 59256-79926.3 59256-217730 0-137114.8-59256-217041-59255-80615.2-160541-80615.2zm0-107487q165365 0 259760 107487 94396 107487 94396 297656.3 0 189480.3-94396 297656.3-94395 107487-259760 107487-166054 0-260449-107487-93707-108176-93707-297656.3 0-190169.3 93707-297656.3 94395-107487 260449-107487zm689019-200504.4v219108h261138v98529.7h-261138V954636q0 94395.6 25494 121267.4 26183 26871.8 105420 26871.8h130224v106109h-130224q-146761 0-202572-54432.5-55810-55121.5-55810-199815.6V535712.4h-93018v-98529.7h93018v-219108zm553972 0v219108h261138v98529.7h-261138V954636q0 94395.6 25493 121267.4 26183 26871.8 105420 26871.8h130225v106109h-130225q-146761 0-202571-54432.5-55811-55121.5-55811-199815.6V535712.4h-93017v-98529.7h93017v-219108zm727604 307991.4q-101975 0-161231 79926.2-59255 79237.2-59255 217730 0 138492.8 58566 218419 59256 79237.2 161920 79237.2 101286 0 160541-79926.2 59256-79926.3 59256-217730 0-137114.8-59256-217041-59255-80615.2-160541-80615.2zm0-107487q165364 0 259760 107487 94396 107487 94396 297656.3 0 189480.3-94396 297656.3-94396 107487-259760 107487-166054 0-260449-107487-93707-108176-93707-297656.3 0-190169.3 93707-297656.3 94395-107487 260449-107487zm1164442 166742.8q47542-85438.4 113688-126090.5 66146-40652 155719-40652 120578 0 186035 84749.4 65457 84060.3 65457 239778.7v465777h-127469v-461643q0-110932-39274-164675.6-39274-53743.5-119889-53743.5-98530 0-155719 65456.8-57188 65456.8-57188 178456v436149h-127469V747241.3q0-111621-39274-164675.6-39274-53743.5-121267-53743.5-97152 0-154341 66145.8-57188 65456.8-57188 177767v436149h-127469V437182.7h127469V557072q43408-70969 104042-104731 60633-33762 144005-33762 84060 0 142627 42719.2 59255 42719.2 87505 124023.4zm1132748-148139h134358l241157 647678 241157-647678h134359l-289388 771701.4h-172255zm926042 0h126779V1208884h-126779zm0-300412.4h126779v160541.5h-126779zm1051443 654568.2v62011.7h-582911q8269 130913.6 78549 199815.6 70969 68213 197059 68213 73036 0 141249-17914.5 68902-17914.5 136426-53743.5V1169610q-68213 28938.8-139871 44097.3-71658 15158.4-145383 15158.4-184657 0-292833-107487-107487-107487-107487-290766 0-189480.3 101975-300412.3 102663-111621 276296-111621 155719 0 245980 100596.8 90951 99907.8 90951 272162.6zm-126780-37207q-1378-104042-58567-166053.6-56499-62011.7-150206-62011.7-106109 0-170188 59944.7-63389 59944.7-73036 168809.7zm261139-316948.8h126779l158475 602202.7 157785-602202.7h149517l158475 602202.7 157785-602202.7h126779l-201882 771701.4h-149517l-166054-632519.6-166743 632519.6h-149517z"/><g transform="translate(-.5 .1)"><path d="M7593127 21677474c0 386599.3-313400.7 700000-700000 700000s-700000-313400.7-700000-700000 313400.7-700000 700000-700000 700000 313400.7 700000 700000zm0-2000000c0 386599.3-313400.7 700000-700000 700000s-700000-313400.7-700000-700000 313400.7-700000 700000-700000 700000 313400.7 700000 700000zm2000000-2000000c0 386599.3-313400.7 700000-700000 700000s-700000-313400.7-700000-700000 313400.7-700000 700000-700000 700000 313400.7 700000 700000zm-4000000 2000000c0 386599.3-313400.7 700000-700000 700000s-700000-313400.7-700000-700000 313400.7-700000 700000-700000 700000 313400.7 700000 700000zm4000000 4000000c0 386599.3-313400.7 700000-700000 700000s-700000-313400.7-700000-700000 313400.7-700000 700000-700000 700000 313400.7 700000 700000zm-4000000-6000000c0 386599.3-313400.7 700000-700000 700000s-700000-313400.7-700000-700000 313400.7-700000 700000-700000 700000 313400.7 700000 700000zm4000000 2000000c0 386599.3-313400.7 700000-700000 700000s-700000-313400.7-700000-700000 313400.7-700000 700000-700000 700000 313400.7 700000 700000zm0 2000000c0 386599.3-313400.7 700000-700000 700000s-700000-313400.7-700000-700000 313400.7-700000 700000-700000 700000 313400.7 700000 700000zm-2000000-6000001c0 386599.3-313400.7 700000-700000 700000s-700000-313400.7-700000-700000 313400.7-700000 700000-700000 700000 313400.7 700000 700000zm3999999 8000001c0 386599.3-313400.7 700000-700000 700000s-700000-313400.7-700000-700000 313400.7-700000 700000-700000 700000 313400.7 700000 700000zm0-4000000c0 386599.3-313400.7 700000-700000 700000s-700000-313400.7-700000-700000 313400.7-700000 700000-700000 700000 313400.7 700000 700000zm-5999999 2000000c0 386599.3-313400.7 700000-700000 700000s-700000-313400.7-700000-700000 313400.7-700000 700000-700000 700000 313400.7 700000 700000zm0 2000000c0 386599.3-313400.7 700000-700000 700000s-700000-313400.7-700000-700000 313400.7-700000 700000-700000 700000 313400.7 700000 700000zm5999999-2000000c0 386599.3-313400.7 700000-700000 700000s-700000-313400.7-700000-700000 313400.7-700000 700000-700000 700000 313400.7 700000 700000zm-1999999-6000001c0 386599.3-313400.7 700000-700000 700000s-700000-313400.7-700000-700000 313400.7-700000 700000-700000 700000 313400.7 700000 700000zm-6000000 6000001c0 386599.3-313400.7 700000-700000 700000s-700000-313400.7-700000-700000 313400.7-700000 700000-700000 700000 313400.7 700000 700000zm7999999-4000000c0 386599.3-313400.7 700000-700000 700000s-700000-313400.7-700000-700000 313400.7-700000 700000-700000 700000 313400.7 700000 700000zm-7999999 2000000c0 386599.3-313400.7 700000-700000 700000s-700000-313400.7-700000-700000 313400.7-700000 700000-700000 700000 313400.7 700000 700000zm7999999-4000001c0 386599.3-313400.7 700000-700000 700000s-700000-313400.7-700000-700000 313400.7-700000 700000-700000 700000 313400.7 700000 700000zm-3999999 2000001c0 386599.3-313400.7 700000-700000 700000s-700000-313400.7-700000-700000 313400.7-700000 700000-700000 700000 313400.7 700000 700000zm0 6000000c0 386599.3-313400.7 700000-700000 700000s-700000-313400.7-700000-700000 313400.7-700000 700000-700000 700000 313400.7 700000 700000zm-4000000 0c0 386599.3-313400.7 700000-700000 700000s-700000-313400.7-700000-700000 313400.7-700000 700000-700000 700000 313400.7 700000 700000z" stroke="#000" transform="matrix(0 1 1 0 0 0)" class="C D B"/><use href="#G"/><use href="#H"/><path d="M23888701 2894031.3q0-81907 48834-139009.6 49093-57102.5 116789-57102.5 66662 0 115497 57102.5 49092 57102.5 49092 139009.6 0 83199-49609 138751.2-49351 55552.2-115497 55552.2-66663 0-116014-55810.6-49092-56069-49092-138492.8zm82424-119372.6q-34882 42633-34882 112138 0 69246.4 32815 118339 32814 48834.3 84749 48834.3 50385 0 83974-48317.5 33848-48575.8 33848-118855.8 0-69246.4-34881-112138-34882-42891.4-82941-42891.4-47542 0-82682 42891.4z"/><use href="#G" x="-1970286"/><path d="M21541694 2892997.8q0-43408.2 14986-80873.6 15244-37465.5 39532-61753.4 24288-24546.3 53485-38499 29197-13952.7 57620-13952.7 20670 0 32556 775.2 11885 775 31006 4651 19120 3875.7 41341 12402.3l-8010 43925q-23771-14211-42633-20929-18862-6976.3-47284-6976.3-52968 0-89142 47025.6-35915 47025.5-35915 114205 0 67696 36173 114721.7 36432 46767 90434 46767 10077 0 19120-775 9044-775.2 15245-1550.3 6460-775.2 13953-3359 7751-2842.2 11368-3875.7 3876-1033.5 10852-5167.7 7235-4392.4 9044-5426 1809-1033.5 9818-5942.8 8010-5167.6 9561-6201l3100 36948.6q-28680 17053.2-49351 22996-20412 6201.2-53227 6201.2-75706 0-124798-58136-48834-58394.4-48834-137201zm353466 183709.7v-367161h45476v196112l191978-196112h49351l-141852 144952.4v516.8l149086 221692h-49609l-128674-191978-70280 71313.5v120664.5zm-2691301-329695.7v-34881.5h321686v34881.5h-75189l-62012-516.7v330212.4h-47025V2746495l-62529 516.7zm391449 329695.7v-367161h119373q37982 0 66921 9818.6 28939 9560 44442 25321.4 15761 15503 22996 31781 7493 16019.7 7493 31522.6 0 30747.5-23255 57102.5-23254 26355-67179 39015.7l105420 172599.3h-47801l-98960-167173.3h-83458v167173.3zm45992-199987.8h69764q55552 0 79065-20929 23512-20929 23512-47284 0-11627.2-4651-22737.6-4650-11110.5-15244-21962.5-10594-10852-31523-17828.4-20929-6976.3-49609-6976.3h-71314zm268976 175183l8010-43925q55552 43925 113172 43925 34364 0 55810-21187.3 21446-21187.4 21446-48834.3 0-20670.5-12403-37723.8-12402-17311.6-33072-25579.8-1034-516.8-65629-17570-32298-8526.6-56845-34623.2-24546-26096.6-24546-64337 0-40824.4 33073-72347 33073-31781 86300-31781 49867 0 96893 25321.5l-7235 43925q-22221-17053.3-41341-25321.5-19120-8526.6-48834-8526.6-34365 0-55552 18862-21188 18603.5-21188 43666.6 0 18603.5 11886 33848 12144 15244.6 30489 22737.7 7493 3100.6 38499 10593.6 31006 7234.7 41083 11627.2 29197 12144 49868 39015.7 20929 26613.4 20929 63045.3 0 44958.5-33590 78289.8-33590 33331.3-86041 33331.3-63562 0-121182-36432z"/><use href="#I"/><path d="M23537430 5076707.5v-367161h60203l81649 212131.8q33848 91984 36432 106453.5h517q2584-18603.6 35915-105936.7l81649-212648.6h60719v367161h-41341v-313159.2l-516-17053.2-5168 19637-31781 86816.4-81390 212131.8h-38241l-79323-205930.6q-33848-91984-37983-112654.6v330212.4zm433307-24804.7l8010-43925q55552 43925 113171 43925 34365 0 55811-21187.3 21446-21187.4 21446-48834.3 0-20670.5-12403-37723.8-12402-17311.6-33073-25579.8-1033-516.8-65629-17570-32297-8526.6-56844-34623.2-24546-26096.6-24546-64337 0-40824.4 33073-72347 33073-31781 86300-31781 49867 0 96893 25321.5l-7235 43925q-22221-17053.3-41341-25321.5-19120-8526.6-48834-8526.6-34365 0-55552 18862-21188 18603.5-21188 43666.6 0 18603.5 11886 33848 12144 15244.6 30489 22737.7 7493 3100.6 38499 10593.6 31006 7234.7 41083 11627.2 29197 12144 49867 39015.7 20929 26613.4 20929 63045.3 0 44958.5-33589 78289.8-33590 33331.3-86042 33331.3-63562 0-121181-36432z"/><use href="#I" x="-1876364"/><use href="#H" x="-1869000" y="2000000"/><path d="M22040371 5076707.5v-367161h47543v367161zm-2638720 0v-367161h124798q48576 0 81390 20670.6 24288 15244.6 37724 37465.4 13695 22221 13695 48059 0 41341.2-34107 74930.8-34106 33589.7-96635 33589.7-2584 0-8526-258.4-5685-258.3-9044-258.3h-61753v152962.2zm45992-183709.7h70280q27388 0 48059-7234.7 20670-7493 30747-19895.5 10077-12402.3 14728-24804.6 4909-12660.8 4909-25321.5 0-11627.2-4392-23512.8-4135-11885.6-13953-24546.3-9560-12660.7-30231-20670.6-20670-8009.8-49867-8009.8h-70280z"/><use href="#J"/><use href="#K"/><path d="M17583036 5076707.5v-365610.8h236419v34881.6h-30230l-13178-516.7h-126865l-18604-516.8V4870260h174666v32297.8h-174666v137201h44959l12660-516.7h102578l11627-516.8h24547v37982.2zm289646-24804.7l8010-43925q55552 43925 113171 43925 34365 0 55811-21187.3 21446-21187.4 21446-48834.3 0-20670.5-12403-37723.8-12402-17311.6-33073-25579.8-1033-516.8-65629-17570-32297-8526.6-56844-34623.2-24546-26096.6-24546-64337 0-40824.4 33073-72347 33073-31781 86299-31781 49868 0 96894 25321.5l-7235 43925q-22221-17053.3-41341-25321.5-19120-8526.6-48834-8526.6-34365 0-55552 18862-21188 18603.5-21188 43666.6 0 18603.5 11886 33848 12144 15244.6 30489 22737.7 7493 3100.6 38499 10593.6 31006 7234.7 41083 11627.2 29197 12144 49867 39015.7 20929 26613.4 20929 63045.3 0 44958.5-33589 78289.8-33590 33331.3-86042 33331.3-63562 0-121181-36432z"/><use href="#K" x="5992248" y="1994181"/><use href="#L"/><path d="M23900587 6906815.8v-9043.4q0-20670.5 775-35915 775-15244.5 4909-40307.6 4393-25321.4 11628-42891.4 7493-17828.4 22737-34881.6 15503-17311.6 36690-25321.5 16278-6459.5 33332-6459.5 14728 0 28422 4134 13952 3875.7 29197 15761.3 15503 11885.6 26872 30489 11369 18603.5 18603 51159.7 7493 32556 7493 74672.4v11110.4q0 20153.8-775 36173.5-775 15761.4-5168 40307.7-4134 24288-11885 42116.3-7493 17570-22996 34364.8-15245 16536.4-36432 24546.3-17570 5942.8-33331 5684.4-14728 0-28422-3875.7-13436-3617.4-29198-14986.2-15502-11368.8-26613-29714-11110-18603.5-18603-51418-7235-32814.5-7235-75706zm41341 0q0 35398.4 4651 62270 4909 26613.4 11627 41858 6976 14986.2 16795 24288 9819 9301.7 18087 12144 8526 2842.2 18086 2842.2 12144 0 22738-5426 10594-5684.4 21704-19637 11111-13952.7 17570-44441.8 6718-30489 6718-74414V6875035q0-40307.6-6718-67696-6459-27388.5-17828-40049.3-11369-12919-21963-17570-10593-4909.3-22737-4909.3-12144 0-22738 4909.3-10594 4650.8-21704 17570-11110 12660.8-17828 40566-6460 27647-6460 67179.4zm-2732900-165623v-34881.5h321685v34881.5h-75189l-62012-516.7v330212.4h-47025V6740676l-62529 516.7z"/><use href="#L" x="-1975324"/><path d="M21925263 6906815.8v-9043.4q0-20670.5 775-35915 775-15244.5 4909-40307.6 4393-25321.4 11627-42891.4 7494-17828.4 22738-34881.6 15503-17311.6 36690-25321.5 16278-6459.5 33332-6459.5 14727 0 28422 4134 13952 3875.7 29197 15761.3 15503 11885.6 26872 30489 11368 18603.5 18603 51159.7 7493 32556 7493 74672.4v11110.4q0 20153.8-775 36173.5-775 15761.4-5168 40307.7-4134 24288-11885 42116.3-7493 17570-22996 34364.8-15245 16536.4-36432 24546.3-17570 5942.8-33331 5684.4-14728 0-28422-3875.7-13436-3617.4-29198-14986.2-15502-11368.8-26613-29714-11110-18603.5-18603-51418-7235-32814.5-7235-75706zm41341 0q0 35398.4 4651 62270 4909 26613.4 11627 41858 6976 14986.2 16795 24288 9818 9301.7 18087 12144 8526 2842.2 18086 2842.2 12144 0 22738-5426 10594-5684.4 21704-19637 11111-13952.7 17570-44441.8 6718-30489 6718-74414V6875035q0-40307.6-6718-67696-6459-27388.5-17828-40049.3-11369-12919-21963-17570-10593-4909.3-22737-4909.3-12144 0-22738 4909.3-10594 4650.8-21704 17570-11111 12660.8-17828 40566-6460 27647-6460 67179.4zm-2748792-159804v-34881.5h321685v34881.5h-75189l-62012-516.7v330212.4h-47025V6746495l-62529 516.7z"/><use href="#L" x="-3966540" y="5819"/><path d="M19959885 6783443.7v-30489q63562 0 101027-35140h10077v327628.6h66146v31264.2h-174408v-31264.2h66146v-274143.5q-31523 12144-68988 12144z"/><use href="#K" x="1034" y="2000000"/><use href="#L" x="-5991214" y="5819"/><path d="M17935211 6783443.7v-30489q63562 0 101028-35140h10076v327628.6h66146v31264.2h-174408v-31264.2h66146v-274143.5q-31522 12144-68988 12144z"/><use href="#K" x="-2005427" y="2000000"/><use href="#L" x="-7997675" y="5819"/><path d="M15902912 6804631q25838-86816.4 102578-86816.4 50901 0 82165 33589.6 31264 33331.3 31264 79840 0 18603.6-5167 33848-4909 15244.5-19637 32556.2-14470 17053.2-25580 27646.8-11111 10593.7-37982 34365-14211 12660.7-85266 80098.4l173632-516.7v37465.4h-211873v-34364.8l68988-68213q4134-4134 18087-16795 14211-12919 18862-17311.6 4651-4650.8 16019-16019.7 11369-11368.8 15503-17311.6 4393-6201 12144-16536.4 7752-10335.3 10336-18086.8 2583-8009.8 5167-18345 2842-10335.3 2842-20929 0-33848-21445-57102.4-21446-23254.4-54777-23254.4-18087 0-32298 8268.2-13953 8010-21187 19895.4-6977 11885.6-11628 23771.2-4392 11885.6-5942 20412.2l-2067 9043.4z"/><use href="#M"/><path d="M23399841 8747006.3v-34881.5h321686v34881.5h-75189l-62012-516.7V9076702h-47025v-330212.4l-62529 516.7z"/><use href="#J" x="4051676" y="3999994.5"/><path d="M24056132 8912629.3v-9043.4q0-20670.5 775-35915 775-15244.5 4910-40307.6 4392-25321.4 11627-42891.4 7493-17828.4 22737-34881.6 15503-17311.6 36691-25321.5 16278-6459.5 33331-6459.5 14728 0 28422 4134 13953 3875.7 29197 15761.3 15503 11885.6 26872 30489 11369 18603.5 18603 51159.7 7493 32556 7493 74672.4v11110.4q0 20153.8-775 36173.5-775 15761.4-5167 40307.7-4134 24288-11886 42116.3-7493 17570-22996 34364.8-15244 16536.4-36432 24546.3-17570 5942.8-33331 5684.4-14728 0-28422-3875.7-13436-3617.4-29197-14986.2-15503-11368.8-26614-29714-11110-18603.5-18603-51418-7235-32814.5-7235-75706zm41341 0q0 35398.4 4651 62270 4909 26613.4 11627 41858 6977 14986.2 16795 24288 9819 9301.7 18087 12144 8527 2842.2 18087 2842.2 12144 0 22737-5426 10594-5684.4 21704-19637 11111-13952.7 17570-44441.8 6718-30489 6718-74414v-31264.3q0-40307.6-6718-67696-6459-27388.5-17828-40049.3-11369-12919-21962-17570-10594-4909.3-22738-4909.3-12144 0-22738 4909.3-10593 4650.8-21704 17570-11110 12660.8-17828 40566-6460 27647-6460 67179.4zM21083841 9076702v-367161h119372q37982 0 66921 9818.6 28939 9560 44442 25321.4 15761 15503 22996 31781 7493 16019.7 7493 31522.6 0 30747.5-23254 57102.5-23255 26355-67180 39015.7l105420 172599.3h-47801l-98960-167173.3h-83457V9076702zm45992-199987.8h69763q55552 0 79065-20929 23512-20929 23512-47284 0-11627.2-4650-22737.6-4651-11110.5-15245-21962.5-10594-10852-31523-17828.4-20929-6976.3-49609-6976.3h-71313zm264325-129708v-34881.5h321685v34881.5h-75189l-62012-516.7V9076702h-47025v-330212.4l-62529 516.7z"/><use href="#N"/><path d="M22050448 8912629.3v-9043.4q0-20670.5 775-35915 776-15244.5 4910-40307.6 4392-25321.4 11627-42891.4 7493-17828.4 22737-34881.6 15503-17311.6 36691-25321.5 16278-6459.5 33331-6459.5 14728 0 28422 4134 13953 3875.7 29197 15761.3 15503 11885.6 26872 30489 11369 18603.5 18604 51159.7 7493 32556 7493 74672.4v11110.4q0 20153.8-776 36173.5-775 15761.4-5167 40307.7-4134 24288-11886 42116.3-7493 17570-22996 34364.8-15244 16536.4-36432 24546.3-17570 5942.8-33331 5684.4-14728 0-28422-3875.7-13436-3617.4-29197-14986.2-15503-11368.8-26614-29714-11110-18603.5-18603-51418-7235-32814.5-7235-75706zm41341 0q0 35398.4 4651 62270 4910 26613.4 11627 41858 6977 14986.2 16795 24288 9819 9301.7 18087 12144 8527 2842.2 18087 2842.2 12144 0 22737-5426 10594-5684.4 21705-19637 11110-13952.7 17570-44441.8 6717-30489 6717-74414v-31264.3q0-40307.6-6717-67696-6460-27388.5-17829-40049.3-11369-12919-21962-17570-10594-4909.3-22738-4909.3-12144 0-22738 4909.3-10593 4650.8-21704 17570-11110 12660.8-17828 40566-6460 27647-6460 67179.4z"/><use href="#M" x="-3991214" y="6"/><path d="M19408627 8747012.3v-34881.5h321686v34881.5h-75189l-62012-516.7V9076708h-47025v-330212.4l-62529 516.7z"/><use href="#J" x="60462" y="4000000.5"/><path d="M20090756 8783444.2v-30489q63562 0 101028-35140h10077v327628.6h66145v31264.2h-174407v-31264.2h66145v-274143.5q-31522 12144-68988 12144zM17092627 9076708v-367161h119372q37982 0 66921 9818.6 28939 9560 44442 25321.4 15761 15503 22996 31781 7493 16019.7 7493 31522.6 0 30747.5-23254 57102.5-23255 26355-67180 39015.7l105420 172599.3h-47801l-98960-167173.3h-83457V9076708zm45992-199987.8h69763q55552 0 79065-20929 23512-20929 23512-47284 0-11627.2-4650-22737.6-4651-11110.5-15245-21962.5-10594-10852-31523-17828.4-20929-6976.3-49609-6976.3h-71313z"/><use href="#O"/><use href="#N" x="-3991214" y="6"/><path d="M18085072 8783444.2v-30489q63562 0 101028-35140h10077v327628.6h66146v31264.2h-174408v-31264.2h66145v-274143.5q-31522 12144-68988 12144z"/><use href="#O" x="-2191592"/><use href="#L" x="-7973000" y="2005819.5"/><path d="M15927587 8804631.6q25838-86816.4 102578-86816.4 50901 0 82165 33589.6 31264 33331.3 31264 79840 0 18603.6-5167 33848-4910 15244.5-19637 32556.2-14470 17053.2-25580 27646.8-11111 10593.7-37982 34365-14211 12660.7-85266 80098.4l173632-516.7v37465.4h-211873V9042343l68988-68213q4134-4134 18087-16795 14211-12919 18862-17311.6 4651-4650.8 16019-16019.7 11369-11368.8 15503-17311.6 4393-6201 12144-16536.4 7752-10335.3 10336-18086.8 2583-8009.8 5167-18345 2842-10335.3 2842-20929 0-33848-21445-57102.4-21446-23254.4-54777-23254.4-18087 0-32298 8268.2-13953 8010-21187 19895.4-6977 11885.6-11628 23771.2-4392 11885.6-5942 20412.2l-2068 9043.4zm7341902 1904914.4h49093l80873 208514q38758 104128 42892 121698 3100-20670 41341-119114l82165-211098h41083l-144435 367161h-48576z"/><use href="#P"/><use href="#Q"/><path d="M21258378 11028002l5685-32298q17053 22737 40049 36173 22996 13178 36173 15503 13436 2326 25580 2326 29197 0 47026-21188 18086-21187 18086-54002 0-30747-17311-52710-17312-21962-50643-21962h-38499v-32556q12661-1034 21962-1809 9302-1033 11886-1292 2584-258 4134-258 25322-4651 41600-25322 16278-20670 16278-45475 0-22221-14986-35657-14728-13694-38499-13694-46509 0-73639 39791-3101 4651-8527 15245l-18862-28939q36432-57619 102061-57878 40308 0 67955 24030 27905 23771 27905 57102 0 57103-58911 90434 36432 12661 55035 37724 18604 24804 18604 54260 0 42891-32040 74931-32039 32039-80098 32039-65112 0-108004-54518z"/><use href="#R"/><path d="M21876428 11028002l5685-32298q17053 22737 40049 36173 22996 13178 36173 15503 13436 2326 25580 2326 29197 0 47026-21188 18087-21187 18087-54002 0-30747-17312-52710-17312-21962-50643-21962h-38499v-32556q12661-1034 21963-1809 9301-1033 11885-1292 2584-258 4134-258 25322-4651 41600-25322 16278-20670 16278-45475 0-22221-14986-35657-14728-13694-38499-13694-46509 0-73639 39791-3101 4651-8527 15245l-18862-28939q36432-57619 102061-57878 40308 0 67955 24030 27905 23771 27905 57102 0 57103-58911 90434 36432 12661 55035 37724 18604 24804 18604 54260 0 42891-32040 74931-32039 32039-80098 32039-65112 0-108004-54518zm-2605132-250373v-30489q63562 0 101028-35140h10077v327629h66145v31264h-174407v-31264h66145v-274144q-31522 12144-68988 12144z"/><use href="#R" x="-2012920"/><path d="M19863508 10975550q0-29714 17829-54002 18086-24288 55810-37982-25321-8010-45733-28164-20413-20412-20413-50643 0-36948 29456-64854 29714-27905 73122-27905 43925 0 73122 28164 29456 28163 29456 64595 0 24805-16537 45734-16278 20929-49609 33073 29197 9043 51418 33073 22221 24029 22221 59428 0 42374-31781 74414-31781 32039-78290 32039-45992 0-78031-31781-32040-31781-32040-75189zm42892-517q0 33848 18345 54260 18603 20413 48834 20413 29197 0 48059-20154 19120-20154 19120-55036 0-33331-18862-54001-18603-20671-48317-20671-25838 0-46509 18862-20670 18862-20670 56327zm1550-169757q0 28164 18087 45217 18345 16795 47025 16795 29714 0 47801-17312 18345-17311 18345-44700 0-28164-18345-44958-18087-17054-47284-17054-29714 0-47801 17312-17828 17312-17828 44700zm-2753054 87721q0-81390 49867-138234 50126-56844 122215-56844 55036 0 105678 25321l-7751 43925q-15245-11627-25580-17570-10077-6201-29455-11885-19121-5943-41858-5943-54519 0-90176 47801-35398 47800-35398 112913 0 67696 36173 114980 36432 47025 88884 47025 27388 0 68213-11110v-91984h-70280v-32815h111621v144436q-52968 25321-110071 25321-72605 0-122473-57102-49609-57361-49609-138235z"/><use href="#Q" x="-6288743"/><path d="M17898003 11076707v-367161h129966q52968 0 91209 24805 38757 25321 59686 68988 21187 43666 21187 92500 0 73639-43408 123249-43408 49609-102061 56585-8526 1034-25580 1034zm45992-29714h75706q66146 0 103094-48576 31264-40824 31264-102061 0-67179-35398-112138-35140-45216-98960-45216h-75706z"/><use href="#P" x="-8352047"/><path d="M15439374 10894031q0-81907 48834-139010 49093-57102 116789-57102 66663 0 115497 57102 49093 57103 49093 139010 0 83199-49610 138751-49351 55552-115497 55552-66662 0-116013-55810-49093-56069-49093-138493zm82424-119373q-34881 42633-34881 112138 0 69247 32814 118339 32815 48834 84749 48834 50385 0 83975-48317 33848-48576 33848-118856 0-69246-34882-112138-34881-42891-82941-42891-47542 0-82682 42891zm299723 259158l5685-32298q17053 22737 40049 36173 22996 13178 36174 15503 13435 2326 25579 2326 29198 0 47026-21188 18087-21187 18087-54002 0-30747-17312-52710-17311-21962-50643-21962h-38499v-32556q12661-1034 21963-1809 9302-1033 11885-1292 2584-258 4134-258 25322-4651 41600-25322 16278-20670 16278-45475 0-22221-14986-35657-14728-13694-38499-13694-46509 0-73639 39791-3101 4651-8527 15245l-18861-28939q36431-57619 102061-57878 40307 0 67954 24030 27905 23771 27905 57102 0 57103-58911 90434 36432 12661 55036 37724 18603 24804 18603 54260 0 42891-32039 74931-32040 32039-80099 32039-65112 0-108004-54518z"/></g><defs ><path id="B" d="M5460000-2760000c0 386599.3-313400.7 700000-700000 700000s-700000-313400.7-700000-700000 313400.7-700000 700000-700000 700000 313400.7 700000 700000z"/><path id="C" d="M6539858.2 2481980.3v-74930.8l440283.2 1033.5v68729.7q-112137.8 129191-173116 295589.2-60978.2 165881.3-60978.2 340547.7h-89917q0-167431.7 61495-329695.7 61495-162780.7 190686-301273.6z"/><path id="D" d="M6847333.3 4532364.5v-60978.2q127124 0 202055-70280h20153.8v655257.2h132291.7v62528.5h-348816v-62528.5h132291.7v-548287q-63045.2 24288-137976 24288z"/><path id="E" d="M301112.6 6520738.5v-60978.2q127124 0 202055-70280h20153.8v655257.2H655613v62528.5H306797v-62528.5h132291.7v-548287q-63045.2 24288-137976 24288z"/><path id="F" d="M4274758.2 8563101q51676.4-173632.8 205155.4-173632.8 101802.6 0 164331 67179.4 62528.5 66662.6 62528.5 159680.2 0 37207-10335.3 67696-9818.5 30489-39274 65112.3-28938.8 34106.5-51159.7 55293.8-22220.8 21187.3-75964.3 68729.7-28422 25321.4-170532.2 160197l347265.6-1033.5v74930.8h-423746.8v-68729.7l137976-136425.7q8268.2-8268.3 36173.5-33589.7 28422-25838.2 37723.8-34623.2 9301.8-9301.8 32039.4-32039.4 22737.6-22737.7 31006-34623.2 8785-12402.4 24288-33073 15503-20670.5 20670.6-36173.5 5167.6-16019.7 10335.2-36690.2 5684.5-20670.6 5684.5-41858 0-67696.2-42891.5-114205-42891.4-46508.8-109554-46508.8-36173.5 0-64595.6 16536.5-27905.2 16019.7-42374.6 39791-13952.7 23771-23254.4 47542.3-8785 23771-11885.6 40824.4l-4134 18086.7z"/><path id="G" d="M23136034 2747011.8v-34881.5h321685v34881.5h-75189l-62012-516.7v330212.4h-47025V2746495l-62529 516.7z"/><path id="H" d="M23527482 3076707.5v-367161h129967q52968 0 91209 24804.7 38757 25321.5 59686 68988 21187 43666.5 21187 92500.8 0 73639-43408 123248.3-43408 49609.4-102061 56585.7-8527 1033.5-25580 1033.5zm45993-29714h75705q66146 0 103095-48576 31264-40824.4 31264-102061 0-67179.3-35398-112137.8-35140-45217-98961-45217h-75705z"/><path id="I" d="M23143398 4747011.8v-34881.5h321685v34881.5h-75189l-62012-516.7v330212.4h-47025V4746495l-62529 516.7z"/><path id="J" d="M19712484 5051902.8l8010-43925q55552 43925 113172 43925 34364 0 55810-21187.3 21446-21187.4 21446-48834.3 0-20670.5-12403-37723.8-12402-17311.6-33072-25579.8-1034-516.8-65630-17570-32297-8526.6-56844-34623.2-24546-26096.6-24546-64337 0-40824.4 33073-72347 33073-31781 86300-31781 49867 0 96893 25321.5l-7235 43925q-22221-17053.3-41341-25321.5-19120-8526.6-48834-8526.6-34365 0-55552 18862-21188 18603.5-21188 43666.6 0 18603.5 11886 33848 12144 15244.6 30489 22737.7 7493 3100.6 38499 10593.6 31006 7234.7 41083 11627.2 29197 12144 49867 39015.7 20929 26613.4 20929 63045.3 0 44958.5-33589 78289.8-33590 33331.3-86041 33331.3-63563 0-121182-36432z"/><path id="K" d="M17241455 5076707.5v-367161h119372q37982 0 66921 9818.6 28939 9560 44442 25321.4 15761 15503 22996 31781 7493 16019.7 7493 31522.6 0 30747.5-23254 57102.5-23255 26355-67180 39015.7l105420 172599.3h-47801l-98960-167173.3h-83457v167173.3zm45992-199987.8h69763q55552 0 79065-20929 23512-20929 23512-47284 0-11627.2-4650-22737.6-4651-11110.5-15245-21962.5-10594-10852-31523-17828.4-20929-6976.3-49609-6976.3h-71313z"/><path id="L" d="M23532909 7070888.5l141852-193270v-516.7l-134617-173374.5h55552l102319 137976 99477-137976h50643l-127382 173374.5v516.7l149603 193270h-55552l-116789-161489-114463 161489z"/><path id="M" d="M23078156 8892992.3q0-43408.2 14986-80873.6 15244-37465.5 39532-61753.4 24288-24546.3 53485-38499 29198-13952.7 57620-13952.7 20670 0 32556 775.2 11885 775 31006 4651 19120 3875.7 41341 12402.3l-8010 43925q-23771-14211-42633-20929-18862-6976.3-47284-6976.3-52968 0-89142 47025.6-35915 47025.5-35915 114205 0 67696 36173 114721.7 36432 46767 90434 46767 10077 0 19120-775 9044-775.2 15245-1550.3 6460-775.2 13953-3359 7751-2842.2 11368-3875.7 3876-1033.5 10853-5167.7 7234-4392.4 9043-5426 1809-1033.5 9818-5942.8 8010-5167.6 9561-6201l3100 36948.6q-28680 17053.2-49351 22996-20412 6201.2-53227 6201.2-75706 0-124798-58136-48834-58394.4-48834-137201z"/><path id="N" d="M21758476 9051897.3l8010-43925q55552 43925 113172 43925 34364 0 55810-21187.3 21446-21187.4 21446-48834.3 0-20670.5-12402-37723.8-12403-17311.6-33073-25579.8-1034-516.8-65629-17570-32298-8526.6-56845-34623.2-24546-26096.6-24546-64337 0-40824.4 33073-72347 33073-31781 86300-31781 49868 0 96893 25321.5l-7235 43925q-22221-17053.3-41341-25321.5-19120-8526.6-48834-8526.6-34365 0-55552 18862-21188 18603.5-21188 43666.6 0 18603.5 11886 33848 12144 15244.6 30489 22737.7 7493 3100.6 38499 10593.6 31006 7234.7 41083 11627.2 29197 12144 49868 39015.7 20929 26613.4 20929 63045.3 0 44958.5-33590 78289.8-33590 33331.3-86041 33331.3-63562 0-121182-36432z"/><path id="O" d="M17402944 8747012.3v-34881.5h321685v34881.5h-75189l-62012-516.7V9076708h-47025v-330212.4l-62529 516.7z"/><path id="P" d="M23665331 11076707v-367161h47542v367161z"/><path id="Q" d="M23812608 11076707v-367161h66146l144953 287838 20670 42374v-330212h41083v367161h-66146l-144952-287838-20671-42374v330212z"/><path id="R" d="M21508750 10703732h49093l80874 208514q38757 104128 42891 121698 3101-20670 41341-119114l82166-211098h41083l-144436 367161h-48576z"/></defs></svg>